SplineFontDB: 3.0
FontName: HussarBdObl
FullName: Hussar Bold Oblique
FamilyName: Hussar
Weight: Bold
Copyright: (c) 2014-2015, Robert Jablonski/Cannot Into Space Fonts, all rights reserved. Design Improvements (c) 2015, "Crazy Dave"@ PlusOne Fonts, Mew Too/Cannot Into Space Fonts, Robert Jablonski/Cannot Into Space Fonts, Jasper@Cannot Into Space Fonts, All Rights Reserved.
Version: 2.21
ItalicAngle: 0
UnderlinePosition: -50
UnderlineWidth: 50
Ascent: 750
Descent: 250
InvalidEm: 0
sfntRevision: 0x000235c3
LayerCount: 2
Layer: 0 0 "Back" 1
Layer: 1 0 "Fore" 0
XUID: [1021 604 120746000 2512]
StyleMap: 0x0000
FSType: 0
OS2Version: 3
OS2_WeightWidthSlopeOnly: 0
OS2_UseTypoMetrics: 0
CreationTime: 1411326290
ModificationTime: 1437157795
PfmFamily: 81
TTFWeight: 700
TTFWidth: 5
LineGap: 0
VLineGap: 0
Panose: 0 0 8 0 0 0 0 0 0 0
OS2TypoAscent: 750
OS2TypoAOffset: 0
OS2TypoDescent: -250
OS2TypoDOffset: 0
OS2TypoLinegap: 0
OS2WinAscent: 900
OS2WinAOffset: 0
OS2WinDescent: 350
OS2WinDOffset: 0
HheadAscent: 900
HheadAOffset: 0
HheadDescent: -350
HheadDOffset: 0
OS2SubXSize: 650
OS2SubYSize: 600
OS2SubXOff: 0
OS2SubYOff: 75
OS2SupXSize: 650
OS2SupYSize: 600
OS2SupXOff: 0
OS2SupYOff: 350
OS2StrikeYSize: 50
OS2StrikeYPos: 307
OS2CapHeight: 825
OS2XHeight: 608
OS2FamilyClass: 1283
OS2Vendor: 'CiSf'
OS2CodePages: 2000009f.00000000
OS2UnicodeRanges: a00006bf.5200c0ea.06008000.00000000
Lookup: 4 0 1 "<1,2> Common Ligatures lookup 0" { "<1,2> Common Ligatures lookup 0 subtable"  } [<1,2> ('DFLT' <'dflt' > ) 'liga' ('DFLT' <'dflt' > ) ]
Lookup: 258 0 0 "'kern' Horizontal Kerning in Latin lookup 0" { "'kern' Horizontal Kerning in Latin lookup 0 subtable"  } ['kern' ('DFLT' <'dflt' > 'latn' <'dflt' > ) ]
Lookup: 258 0 0 "'kern' Horizontal Kerning in Latin lookup 1" { "'kern' Horizontal Kerning in Latin lookup 1 subtable"  } ['kern' ('DFLT' <'dflt' > 'latn' <'dflt' > ) ]
MarkAttachClasses: 1
DEI: 91125
KernClass2: 21 24 "'kern' Horizontal Kerning in Latin lookup 1 subtable"

StartChar: .notdef
Encoding: 65536 -1 0
Width: 543
Flags: W
HStem: 0 50<128.884 428.884> 450 50<187.95 487.95>
LayerCount: 2
Fore
SplineSet
128.883789062 50 m 1
 428.883789062 50 l 1
 487.950195312 450 l 1
 187.950195312 450 l 1
 128.883789062 50 l 1
71.5 0 m 1
 145.333984375 500 l 1
 545.333984375 500 l 1
 471.5 0 l 1
 71.5 0 l 1
EndSplineSet
EndChar

StartChar: exclam
Encoding: 33 33 2
Width: 308
Flags: W
HStem: 0 176<124.346 213.643> 805 20G<185.118 364.325>
VStem: 83.9951 170<39.0625 136.938>
LayerCount: 2
Fore
SplineSet
122.202148438 235 m 1
 187.325195312 825 l 1
 364.325195312 825 l 1
 254.202148438 235 l 1
 122.202148438 235 l 1
83.9951171875 88 m 0
 91.0830078125 136 135.989257812 176 181.989257812 176 c 0
 227.989257812 176 261.083007812 136 253.995117188 88 c 0
 246.90625 40 202 0 156 0 c 0
 110 0 76.90625 40 83.9951171875 88 c 0
EndSplineSet
EndChar

StartChar: quotedbl
Encoding: 34 34 3
Width: 430
Flags: W
HStem: 581 279<189.194 260.705 362.194 433.705>
VStem: 167.885 326.909
LayerCount: 2
Fore
SplineSet
189.194335938 860 m 1
 321.793945312 860 l 1
 260.705078125 581 l 1
 167.884765625 581 l 1
 189.194335938 860 l 1
362.194335938 860 m 1
 494.793945312 860 l 1
 433.705078125 581 l 1
 340.884765625 581 l 1
 362.194335938 860 l 1
EndSplineSet
EndChar

StartChar: numbersign
Encoding: 35 35 4
Width: 764
Flags: W
HStem: 0 21G<96 228.159 328 460.159> 219 121<133.207 185.339 359.207 417.339 591.207 648.339> 486 121<237.634 294.767 468.634 526.767 700.634 752.767> 805 20G<425.642 557.825 657.642 789.825>
LayerCount: 2
Fore
SplineSet
467.20703125 340 m 1
 526.766601562 486 l 1
 418.766601562 486 l 1
 359.20703125 340 l 1
 467.20703125 340 l 1
309.338867188 219 m 1
 220 0 l 1
 96 0 l 1
 185.338867188 219 l 1
 83.3388671875 219 l 1
 133.20703125 340 l 1
 235.20703125 340 l 1
 294.766601562 486 l 1
 187.766601562 486 l 1
 237.633789062 607 l 1
 344.633789062 607 l 1
 433.825195312 825 l 1
 557.825195312 825 l 1
 468.633789062 607 l 1
 576.633789062 607 l 1
 665.825195312 825 l 1
 789.825195312 825 l 1
 700.633789062 607 l 1
 802.633789062 607 l 1
 752.766601562 486 l 1
 650.766601562 486 l 1
 591.20703125 340 l 1
 698.20703125 340 l 1
 648.338867188 219 l 1
 541.338867188 219 l 1
 452 0 l 1
 328 0 l 1
 417.338867188 219 l 1
 309.338867188 219 l 1
EndSplineSet
EndChar

StartChar: dollar
Encoding: 36 36 5
Width: 723
Flags: W
LayerCount: 2
Fore
SplineSet
501.440429688 240 m 0
 518.096679688 352.80078125 181.918945312 399 209.828125 588 c 0
 229.3203125 720 341.610351562 810 457.154296875 834 c 1
 471.625976562 932 l 1
 585.423828125 890 l 1
 577.450195312 836 l 1
 691.086914062 820 760.522460938 762 760.522460938 762 c 1
 662.372070312 612 l 1
 662.372070312 612 588.7890625 669 503.7890625 669 c 0
 439.7890625 669 401.506835938 640 394.862304688 595 c 0
 377.823242188 479.6171875 740.9609375 467 709.064453125 251 c 0
 685.733398438 93 577.658203125 18 453.114257812 -6 c 1
 437.904296875 -109 l 1
 322.482421875 -78 l 1
 331.932617188 -14 l 1
 156.26171875 -5 64.880859375 94 64.880859375 94 c 1
 182.211914062 252 l 1
 182.211914062 252 278.479492188 159 370.479492188 159 c 0
 411.479492188 159 490.069335938 163 501.440429688 240 c 0
EndSplineSet
EndChar

StartChar: percent
Encoding: 37 37 6
Width: 981
Flags: W
HStem: -15 116.344<685.044 797.353> 0 21G<194.5 327.09> 275.906 116.344<704.678 817.971> 440 116.344<287.232 399.542> 730.906 116.344<306.867 420.16> 805 20G<781.735 914.325>
LayerCount: 2
Fore
SplineSet
264.658203125 643.26953125 m 0x38
 257.819335938 596.95703125 292.434570312 556.34375 340.883789062 556.34375 c 0
 389.334960938 556.34375 435.233398438 596.95703125 442.072265625 643.26953125 c 0
 448.911132812 689.58203125 415.112304688 730.90625 366.661132812 730.90625 c 0
 318.211914062 730.90625 271.497070312 689.58203125 264.658203125 643.26953125 c 0x38
145.987304688 643.25 m 0
 162.045898438 752 270.611328125 847.25 384.611328125 847.25 c 0
 498.611328125 847.25 576.795898438 752 560.737304688 643.25 c 0
 544.677734375 534.5 438.473632812 440 324.473632812 440 c 0
 210.473632812 440 129.927734375 534.5 145.987304688 643.25 c 0
662.46875 188.26953125 m 0
 655.629882812 141.95703125 690.24609375 101.34375 738.6953125 101.34375 c 0xb0
 787.146484375 101.34375 833.043945312 141.95703125 839.8828125 188.26953125 c 0
 846.721679688 234.58203125 812.923828125 275.90625 764.47265625 275.90625 c 0
 716.0234375 275.90625 669.307617188 234.58203125 662.46875 188.26953125 c 0
543.798828125 188.25 m 0
 559.857421875 297 668.422851562 392.25 782.422851562 392.25 c 0
 896.422851562 392.25 974.607421875 297 958.548828125 188.25 c 0
 942.489257812 79.5 836.28515625 -15 722.28515625 -15 c 0
 608.28515625 -15 527.739257812 79.5 543.798828125 188.25 c 0
914.325195312 825 m 1x74
 312.5 0 l 1
 194.5 0 l 1
 796.325195312 825 l 1
 914.325195312 825 l 1x74
EndSplineSet
EndChar

StartChar: ampersand
Encoding: 38 38 7
Width: 972
Flags: W
HStem: -15 178<318.601 469.127> 0 21G<671.269 924> 707 133<482.561 595.251>
LayerCount: 2
Fore
SplineSet
514.009765625 210 m 1xa0
 402.059570312 339 l 1
 402.059570312 339 311.481445312 308 300.258789062 232 c 0
 293.170898438 184 339.069335938 163 383.069335938 163 c 0
 451.069335938 163 514.009765625 210 514.009765625 210 c 1xa0
538.400390625 707 m 0
 487.400390625 707 460.7890625 669 454.291992188 625 c 0
 447.204101562 577 499.377929688 524 499.377929688 524 c 1
 544.774414062 547 599.794921875 581 606.291992188 625 c 0
 612.7890625 669 599.400390625 707 538.400390625 707 c 0
577.986328125 413 m 1
 763.23828125 198 832.528320312 288 907.004882812 298 c 1
 907.004882812 298 877.131835938 265 773.318359375 185 c 1
 924 0 l 1
 687 0 l 1x60
 627.22265625 76 l 1
 547.69140625 25 464.78515625 -15 337.78515625 -15 c 0
 215.78515625 -15 58.0205078125 34 85.0439453125 217 c 0
 105.274414062 354 343.133789062 414 319.59765625 451 c 1
 319.59765625 451 253.693359375 560 263.291992188 625 c 0
 282.193359375 753 387.040039062 840 558.040039062 840 c 0
 723.040039062 840 785.680664062 727.997070312 771.291992188 625 c 0
 754.33203125 503.59375 554.502929688 451.467773438 577.986328125 413 c 1
EndSplineSet
EndChar

StartChar: quotesingle
Encoding: 39 39 8
Width: 257
Flags: W
HStem: 581 279<189.194 260.705>
VStem: 167.885 153.909
LayerCount: 2
Fore
SplineSet
189.194335938 860 m 1
 321.793945312 860 l 1
 260.705078125 581 l 1
 167.884765625 581 l 1
 189.194335938 860 l 1
EndSplineSet
EndChar

StartChar: parenleft
Encoding: 40 40 9
Width: 409
Flags: W
HStem: -260 21G<189.106 238.998>
LayerCount: 2
Fore
SplineSet
311.341796875 -211 m 1
 189.106445312 -260 l 1
 189.106445312 -260 45.2646484375 -49 96.357421875 297 c 0
 148.926757812 653 370.708984375 875 370.708984375 875 c 1
 478.47265625 826 l 1
 478.47265625 826 312.221679688 655 259.357421875 297 c 0
 209.4453125 -41 311.341796875 -211 311.341796875 -211 c 1
EndSplineSet
EndChar

StartChar: parenright
Encoding: 41 41 10
Width: 410
Flags: W
HStem: -260 21G<99.6209 143.606>
LayerCount: 2
Fore
SplineSet
143.606445312 -260 m 1
 35.841796875 -211 l 1
 35.841796875 -211 187.9453125 -41 237.857421875 297 c 0
 290.721679688 655 174.97265625 826 174.97265625 826 c 1
 297.208984375 875 l 1
 297.208984375 875 453.426757812 653 400.857421875 297 c 0
 349.764648438 -49 143.606445312 -260 143.606445312 -260 c 1
EndSplineSet
EndChar

StartChar: asterisk
Encoding: 42 42 11
Width: 476
Flags: W
HStem: 513 21G<217.373 262.091 371.322 416.04>
LayerCount: 2
Fore
SplineSet
510.884765625 778 m 1
 525.071289062 698 l 1
 405.017578125 657 l 1
 456.3984375 558 l 1
 383.752929688 513 l 1
 327.19140625 604 l 1
 243.752929688 513 l 1
 184.3984375 558 l 1
 265.017578125 657 l 1
 157.071289062 698 l 1
 194.884765625 778 l 1
 303.716796875 743 l 1
 321.994140625 860 l 1
 407.994140625 860 l 1
 391.716796875 743 l 1
 510.884765625 778 l 1
EndSplineSet
EndChar

StartChar: plus
Encoding: 43 43 12
Width: 636
Flags: W
HStem: 338 153<134.005 291.411 467.005 624.411>
LayerCount: 2
Fore
SplineSet
417.831054688 158 m 1
 264.831054688 158 l 1
 291.411132812 338 l 1
 111.411132812 338 l 1
 134.004882812 491 l 1
 314.004882812 491 l 1
 340.584960938 671 l 1
 493.584960938 671 l 1
 467.004882812 491 l 1
 647.004882812 491 l 1
 624.411132812 338 l 1
 444.411132812 338 l 1
 417.831054688 158 l 1
EndSplineSet
EndChar

StartChar: comma
Encoding: 44 44 13
Width: 295
Flags: W
HStem: -135.75 301.5
VStem: 53.7305 191.384
LayerCount: 2
Fore
SplineSet
171.600585938 165.75 m 0
 219.600585938 165.75 252.202148438 127.5 245.114257812 79.5 c 0
 231.713867188 -11.25 156.360351562 -84.75 87.3291015625 -135.75 c 1
 53.73046875 -104.25 l 1
 53.73046875 -104.25 105.043945312 -61.5 126.235351562 0.75 c 1
 90.814453125 9.75 67.4951171875 39.75 73.3642578125 79.5 c 0
 80.4521484375 127.5 124.350585938 165.75 171.600585938 165.75 c 0
EndSplineSet
EndChar

StartChar: hyphen
Encoding: 45 45 14
Width: 455
Flags: W
HStem: 213 153<120.546 419.953>
LayerCount: 2
Fore
SplineSet
120.545898438 366 m 1
 442.545898438 366 l 1
 419.953125 213 l 1
 97.953125 213 l 1
 120.545898438 366 l 1
EndSplineSet
EndChar

StartChar: period
Encoding: 46 46 15
Width: 294
Flags: W
HStem: 0 176<115.346 204.643>
VStem: 74.9951 170<39.0625 136.938>
LayerCount: 2
Fore
SplineSet
74.9951171875 88 m 0
 82.0830078125 136 126.989257812 176 172.989257812 176 c 0
 218.989257812 176 252.083007812 136 244.995117188 88 c 0
 237.90625 40 193 0 147 0 c 0
 101 0 67.90625 40 74.9951171875 88 c 0
EndSplineSet
EndChar

StartChar: slash
Encoding: 47 47 16
Width: 652
Flags: W
LayerCount: 2
Fore
SplineSet
735.494140625 860 m 1
 178.780273438 -120 l 1
 25.7802734375 -120 l 1
 582.494140625 860 l 1
 735.494140625 860 l 1
EndSplineSet
EndChar

StartChar: zero
Encoding: 48 48 17
Width: 792
Flags: W
HStem: -15 165<353.67 486.803> 675 165<429.204 555.202>
LayerCount: 2
Fore
SplineSet
311.338867188 412 m 0
 285.053710938 234 327.650390625 150 418.650390625 150 c 0
 508.650390625 150 576.053710938 234 602.338867188 412 c 0
 626.999023438 579 586.17578125 675 496.17578125 675 c 0
 405.17578125 675 335.8515625 578 311.338867188 412 c 0
121.338867188 412 m 0
 163.571289062 698 343.540039062 840 520.540039062 840 c 0
 697.540039062 840 834.571289062 698 792.338867188 412 c 0
 747.15234375 106 571.28515625 -15 394.28515625 -15 c 0
 217.28515625 -15 76.15234375 106 121.338867188 412 c 0
EndSplineSet
EndChar

StartChar: one
Encoding: 49 49 18
Width: 457
Flags: W
HStem: 0 21G<202.5 393.453> 805 20G<389.451 512.325>
LayerCount: 2
Fore
SplineSet
138.4140625 487 m 1
 165.879882812 673 l 1
 423.325195312 825 l 1
 512.325195312 825 l 1
 390.5 0 l 1
 202.5 0 l 1
 287.408203125 575 l 1
 138.4140625 487 l 1
EndSplineSet
EndChar

StartChar: two
Encoding: 50 50 19
Width: 755
Flags: W
HStem: 0 165<417.365 699> 524 21G<256.015 294.378> 681 159<406.473 529.076>
LayerCount: 2
Fore
SplineSet
464.561523438 681 m 0
 374.561523438 681 294.377929688 524 294.377929688 524 c 1
 148.600585938 600 l 1
 148.600585938 600 264.040039062 840 488.040039062 840 c 0
 771.040039062 840 780.57421875 654 765.216796875 550 c 0
 736.716796875 357 417.365234375 165 417.365234375 165 c 1
 723.365234375 165 l 1
 699 0 l 1
 56 0 l 1
 62.9404296875 47 l 1
 62.9404296875 47 539.771484375 398 562.216796875 550 c 0
 566.646484375 580 574.561523438 681 464.561523438 681 c 0
EndSplineSet
EndChar

StartChar: three
Encoding: 51 51 20
Width: 720
Flags: W
HStem: -15 162<314.782 469.369> 371 123<397.947 497.217> 689 151<390.979 524.992>
LayerCount: 2
Fore
SplineSet
189.3125 659 m 1
 189.3125 659 258.040039062 840 489.040039062 840 c 0
 646.040039062 840 745.2734375 740 724.600585938 600 c 0
 714.55859375 532 678.879882812 480 628.711914062 445 c 1
 686.953125 406 718.649414062 343 705.802734375 256 c 0
 682.471679688 98 536.78515625 -15 359.78515625 -15 c 0
 105.78515625 -15 79.76171875 188 79.76171875 188 c 1
 266.313476562 273 l 1
 266.313476562 273 258.70703125 147 382.70703125 147 c 0
 557.23046875 147 637.965820312 379 379.784179688 371 c 1
 397.947265625 494 l 1
 604.947265625 494 586.776367188 689 464.7421875 689 c 0
 360.7421875 689 326.680664062 587 326.680664062 587 c 1
 189.3125 659 l 1
EndSplineSet
EndChar

StartChar: four
Encoding: 52 52 21
Width: 782
Flags: W
HStem: 0 21G<455 633.953> 174 165<356.06 480.694 681.06 752.694> 805 20G<491.813 752.825>
LayerCount: 2
Fore
SplineSet
539.760742188 574 m 1
 499.760742188 574 l 1
 356.059570312 339 l 1
 505.059570312 339 l 1
 539.760742188 574 l 1
752.825195312 825 m 1
 681.059570312 339 l 1
 777.059570312 339 l 1
 752.694335938 174 l 1
 656.694335938 174 l 1
 631 0 l 1
 455 0 l 1
 480.694335938 174 l 1
 80.6943359375 174 l 1
 88.9638671875 230 l 1
 505.825195312 825 l 1
 752.825195312 825 l 1
EndSplineSet
EndChar

StartChar: five
Encoding: 53 53 22
Width: 706
Flags: W
HStem: -15 157<283.52 440.445> 660 165<437.46 697.46>
LayerCount: 2
Fore
SplineSet
367.96875 142 m 0
 531.620117188 142 611.100585938 407 311.100585938 407 c 0
 242.100585938 407 192.885742188 392 166.260742188 381 c 1
 300.825195312 825 l 1
 721.825195312 825 l 1
 697.459960938 660 l 1
 437.459960938 660 l 1
 402.478515625 545 l 1
 586.478515625 545 724.618164062 485 690.802734375 256 c 0
 667.471679688 98 521.78515625 -15 344.78515625 -15 c 0
 168.78515625 -15 95.8134765625 80 77.2177734375 164 c 1
 236.849609375 236 l 1
 244.318359375 185 281.96875 142 367.96875 142 c 0
EndSplineSet
EndChar

StartChar: six
Encoding: 54 54 23
Width: 748
Flags: W
HStem: -15 155<330.732 470.338> 393 161<400.033 566.808> 805 20G<431.012 719.325>
LayerCount: 2
Fore
SplineSet
290.631835938 265 m 0
 280 193 324.173828125 140 397.173828125 140 c 0
 470.173828125 140 532 193 542.631835938 265 c 0
 553.559570312 339 505.533203125 393 434.533203125 393 c 0
 365.533203125 393 301.559570312 339 290.631835938 265 c 0
502.325195312 825 m 1
 719.325195312 825 l 1
 449.53515625 542 l 1
 449.53515625 542 472.307617188 554 510.307617188 554 c 0
 623.307617188 554 758.984375 457 730.631835938 265 c 0
 701.836914062 70 532.28515625 -15 383.28515625 -15 c 0
 198.28515625 -15 72.30078125 107 95.6318359375 265 c 0
 117.043945312 410 359.698242188 665 502.325195312 825 c 1
EndSplineSet
EndChar

StartChar: seven
Encoding: 55 55 24
Width: 760
Flags: W
HStem: 0 21G<51 335.754> 660 165<197.825 528.46>
LayerCount: 2
Fore
SplineSet
830.825195312 825 m 1
 822.704101562 770 l 1
 598.8828125 513.333007812 398.5078125 256.666992188 273 0 c 1
 51 0 l 1
 187.450195312 226.587890625 304.419921875 458.829101562 528.459960938 660 c 1
 173.459960938 660 l 1
 197.825195312 825 l 1
 830.825195312 825 l 1
EndSplineSet
EndChar

StartChar: eight
Encoding: 56 56 25
Width: 726
Flags: W
HStem: -15 162<322.776 450.895> 357 156<383.064 476.812> 698 142<403.432 521.017>
LayerCount: 2
Fore
SplineSet
295.711914062 252 m 0
 286.704101562 191 322.20703125 147 384.20703125 147 c 0
 444.20703125 147 495.704101562 191 504.711914062 252 c 0
 513.8671875 314 473.216796875 357 415.216796875 357 c 0
 356.216796875 357 304.8671875 314 295.711914062 252 c 0
543.838867188 605 m 0
 551.665039062 658 520.571289062 698 466.571289062 698 c 0
 413.571289062 698 367.665039062 658 359.838867188 605 c 0
 351.716796875 550 388.252929688 513 439.252929688 513 c 0
 492.252929688 513 535.716796875 550 543.838867188 605 c 0
725.825195312 632 m 0
 712.387695312 541 659.528320312 481 592.211914062 445 c 1
 669.600585938 407 720.96875 335 704.282226562 222 c 0
 683.756835938 83 516.28515625 -15 361.28515625 -15 c 0
 201.28515625 -15 66.7568359375 83 87.2822265625 222 c 0
 103.96875 335 175.600585938 407 264.211914062 445 c 1
 206.528320312 481 169.387695312 541 182.825195312 632 c 0
 200.840820312 754 350.540039062 840 486.540039062 840 c 0
 627.540039062 840 743.840820312 754 725.825195312 632 c 0
EndSplineSet
EndChar

StartChar: nine
Encoding: 57 57 26
Width: 749
Flags: W
HStem: 0 21G<151 439.313> 271 161<303.518 470.292> 685 155<399.987 539.593>
LayerCount: 2
Fore
SplineSet
579.693359375 560 m 0
 590.325195312 632 546.15234375 685 473.15234375 685 c 0
 400.15234375 685 338.325195312 632 327.693359375 560 c 0
 316.766601562 486 364.791992188 432 435.791992188 432 c 0
 504.791992188 432 568.766601562 486 579.693359375 560 c 0
368 0 m 1
 151 0 l 1
 420.790039062 283 l 1
 420.790039062 283 398.017578125 271 360.017578125 271 c 0
 247.017578125 271 111.341796875 368 139.693359375 560 c 0
 168.48828125 755 338.040039062 840 487.040039062 840 c 0
 672.040039062 840 798.025390625 718 774.693359375 560 c 0
 753.282226562 415 510.626953125 160 368 0 c 1
EndSplineSet
EndChar

StartChar: colon
Encoding: 58 58 27
Width: 301
Flags: W
HStem: 0 176<118.846 208.143> 298 176<162.851 252.148>
VStem: 78.4951 214.005
LayerCount: 2
Fore
SplineSet
78.4951171875 88 m 0
 85.5830078125 136 130.489257812 176 176.489257812 176 c 0
 222.489257812 176 255.583007812 136 248.495117188 88 c 0
 241.40625 40 196.5 0 150.5 0 c 0
 104.5 0 71.40625 40 78.4951171875 88 c 0
122.5 386 m 0
 129.587890625 434 174.494140625 474 220.494140625 474 c 0
 266.494140625 474 299.587890625 434 292.5 386 c 0
 285.411132812 338 240.504882812 298 194.504882812 298 c 0
 148.504882812 298 115.411132812 338 122.5 386 c 0
EndSplineSet
EndChar

StartChar: semicolon
Encoding: 59 59 28
Width: 302
Flags: W
HStem: 298 176<161.913 251.211>
VStem: 57.793 233.77
LayerCount: 2
Fore
SplineSet
121.5625 386 m 0
 128.650390625 434 173.556640625 474 219.556640625 474 c 0
 265.556640625 474 298.650390625 434 291.5625 386 c 0
 284.473632812 338 239.567382812 298 193.567382812 298 c 0
 147.567382812 298 114.473632812 338 121.5625 386 c 0
175.663085938 165.75 m 0
 223.663085938 165.75 256.264648438 127.5 249.176757812 79.5 c 0
 235.776367188 -11.25 160.422851562 -84.75 91.3916015625 -135.75 c 1
 57.79296875 -104.25 l 1
 57.79296875 -104.25 109.106445312 -61.5 130.297851562 0.75 c 1
 94.876953125 9.75 71.5576171875 39.75 77.4267578125 79.5 c 0
 84.5146484375 127.5 128.413085938 165.75 175.663085938 165.75 c 0
EndSplineSet
EndChar

StartChar: less
Encoding: 60 60 29
Width: 672
Flags: W
LayerCount: 2
Fore
SplineSet
132.641601562 475 m 1
 712.423828125 697 l 1
 691.455078125 555 l 1
 312.782226562 415 l 1
 650.403320312 277 l 1
 629.435546875 135 l 1
 115.216796875 357 l 1
 132.641601562 475 l 1
EndSplineSet
EndChar

StartChar: equal
Encoding: 61 61 30
Width: 652
Flags: W
HStem: 218 153<124.284 614.691> 458 153<159.725 650.132>
LayerCount: 2
Fore
SplineSet
124.284179688 371 m 1
 637.284179688 371 l 1
 614.69140625 218 l 1
 101.69140625 218 l 1
 124.284179688 371 l 1
159.724609375 611 m 1
 672.724609375 611 l 1
 650.131835938 458 l 1
 137.131835938 458 l 1
 159.724609375 611 l 1
EndSplineSet
EndChar

StartChar: greater
Encoding: 62 62 31
Width: 674
Flags: W
LayerCount: 2
Fore
SplineSet
104.403320312 277 m 1
 482.782226562 415 l 1
 145.455078125 555 l 1
 166.423828125 697 l 1
 680.641601562 475 l 1
 663.216796875 357 l 1
 83.435546875 135 l 1
 104.403320312 277 l 1
EndSplineSet
EndChar

StartChar: question
Encoding: 63 63 32
Width: 656
Flags: W
HStem: 0 176<287.346 376.643> 643 157<343.607 465.307>
LayerCount: 2
Fore
SplineSet
487.455078125 362 m 1
 446.46875 335 447.243164062 322.647460938 432.963867188 230 c 1
 267.963867188 230 l 1
 290.409179688 382 299.020507812 420 347.155273438 448 c 0
 413.9140625 487 471.356445312 490 481.840820312 561 c 0
 488.9296875 609 457.950195312 643 412.950195312 643 c 0
 340.950195312 643 297.08984375 583 279.740234375 540 c 1
 143.224609375 611 l 1
 143.962890625 616 214.133789062 800 437.133789062 800 c 0
 587.133789062 800 706.662109375 702 685.840820312 561 c 0
 671.370117188 463 589.509765625 403 487.455078125 362 c 1
246.995117188 88 m 0
 254.083007812 136 298.989257812 176 344.989257812 176 c 0
 390.989257812 176 424.083007812 136 416.995117188 88 c 0
 409.90625 40 365 0 319 0 c 0
 273 0 239.90625 40 246.995117188 88 c 0
EndSplineSet
EndChar

StartChar: at
Encoding: 64 64 33
Width: 994
Flags: W
HStem: -15 142<415.793 648.215> 202 123<431.612 580.205> 223 133<737.93 863.402> 487 119<506.556 623.957> 709 131<498.31 734.774>
LayerCount: 2
Fore
SplineSet
467.805664062 405 m 0xd8
 461.012695312 359 492.291992188 325 545.091796875 325 c 0
 594.591796875 325 637.012695312 359 643.805664062 405 c 0
 650.745117188 452 616.314453125 487 569.013671875 487 c 0
 519.513671875 487 474.745117188 452 467.805664062 405 c 0xd8
813.569335938 356 m 0xb8
 856.569335938 356 870.341796875 368 881.268554688 442 c 0
 904.452148438 599 787.696289062 709 613.696289062 709 c 0
 443.696289062 709 290.056640625 576 265.986328125 413 c 0
 241.916992188 250 360.75390625 127 527.75390625 127 c 0
 659.75390625 127 724.794921875 195 724.794921875 195 c 1
 829.424804688 118 l 1
 829.424804688 118 722.78515625 -15 506.78515625 -15 c 0
 262.78515625 -15 82.4794921875 159 119.986328125 413 c 0
 157.494140625 667 389.040039062 840 633.040039062 840 c 0
 867.040039062 840 1035.11816406 678 1000.26855469 442 c 0
 977.232421875 286 862.9296875 223 764.9296875 223 c 0xb8
 710.9296875 223 661.587890625 241 632.72265625 269 c 1
 600.782226562 222 540.829101562 202 487.829101562 202 c 0xd8
 377.829101562 202 311.970703125 291 328.509765625 403 c 0
 345.196289062 516 437.486328125 606 547.486328125 606 c 0
 856.486328125 606 745.094726562 356 813.569335938 356 c 0xb8
EndSplineSet
EndChar

StartChar: A
Encoding: 65 65 34
Width: 931
Flags: W
HStem: 0 21G<45.5 257.726 678.938 885.5> 165 165<420.23 606.23> 805 20G<488.323 678.469>
LayerCount: 2
Fore
SplineSet
673.325195312 825 m 1
 885.5 0 l 1
 683.5 0 l 1
 645.865234375 165 l 1
 331.865234375 165 l 1
 247.5 0 l 1
 45.5 0 l 1
 499.325195312 825 l 1
 673.325195312 825 l 1
606.23046875 330 m 1
 547.669921875 570 l 1
 420.23046875 330 l 1
 606.23046875 330 l 1
EndSplineSet
EndChar

StartChar: B
Encoding: 66 66 35
Width: 727
Flags: W
HStem: 0 142<284.969 435.93> 346 126<333.699 451.745> 676 145<363.823 496.489>
LayerCount: 2
Fore
SplineSet
333.69921875 472 m 1
 357.69921875 472 l 2
 432.69921875 472 502.4375 477 516.760742188 574 c 0
 531.084960938 671 462.823242188 676 387.823242188 676 c 2
 363.823242188 676 l 1
 333.69921875 472 l 1
315.092773438 346 m 1
 284.96875 142 l 1
 308.96875 142 l 2
 383.96875 142 480.70703125 147 495.03125 244 c 0
 509.354492188 341 380.092773438 346 339.092773438 346 c 2
 315.092773438 346 l 1
626.872070312 419 m 1
 679.818359375 378 706.515625 315 694.258789062 232 c 0
 671.666015625 79 538 0 377 0 c 2
 67 0 l 1
 188.234375 821 l 1
 498.234375 821 l 2
 659.234375 821 742.125976562 739 719.533203125 586 c 0
 709.196289062 516 675.779296875 459 626.872070312 419 c 1
EndSplineSet
EndChar

StartChar: C
Encoding: 67 67 36
Width: 798
Flags: W
HStem: -15 185<446.213 686.771> 655 185<508.951 783.005>
LayerCount: 2
Fore
SplineSet
745.19140625 25 m 1
 745.19140625 25 680.28515625 -15 501.28515625 -15 c 0
 268.28515625 -15 82.341796875 175 117.19140625 411 c 0
 152.188476562 648 393.540039062 840 627.540039062 840 c 0
 806.540039062 840 859.633789062 800 859.633789062 800 c 1
 792.315429688 615 l 1
 792.315429688 615 725.221679688 655 629.221679688 655 c 0
 440.221679688 655 337.729492188 523 321.486328125 413 c 0
 305.095703125 302 368.603515625 170 557.603515625 170 c 0
 653.603515625 170 732.509765625 210 732.509765625 210 c 1
 745.19140625 25 l 1
EndSplineSet
EndChar

StartChar: D
Encoding: 68 68 37
Width: 791
Flags: W
HStem: 0 168<280.808 412.784> 657 168<353.018 481.586>
LayerCount: 2
Fore
SplineSet
582.838867188 412 m 0
 604.102539062 556 556.017578125 657 353.017578125 657 c 1
 280.807617188 168 l 1
 483.807617188 168 561.575195312 268 582.838867188 412 c 0
189.825195312 825 m 1
 429.825195312 825 l 2
 655.825195312 825 819.426757812 653 783.986328125 413 c 0
 748.3984375 172 535 0 308 0 c 2
 68 0 l 1
 189.825195312 825 l 1
EndSplineSet
EndChar

StartChar: E
Encoding: 69 69 38
Width: 613
Flags: W
HStem: 0 165<282.865 542.5> 331 165<331.743 579.378> 660 165<355.96 639.96>
LayerCount: 2
Fore
SplineSet
664.325195312 825 m 1
 639.959960938 660 l 1
 355.959960938 660 l 1
 331.743164062 496 l 1
 603.743164062 496 l 1
 579.377929688 331 l 1
 307.377929688 331 l 1
 282.865234375 165 l 1
 566.865234375 165 l 1
 542.5 0 l 1
 70.5 0 l 1
 192.325195312 825 l 1
 664.325195312 825 l 1
EndSplineSet
EndChar

StartChar: F
Encoding: 70 70 39
Width: 608
Flags: W
HStem: 0 21G<65 255.953> 331 165<326.243 569.878> 660 165<350.46 640.46>
LayerCount: 2
Fore
SplineSet
664.825195312 825 m 1
 640.459960938 660 l 1
 350.459960938 660 l 1
 326.243164062 496 l 1
 594.243164062 496 l 1
 569.877929688 331 l 1
 301.877929688 331 l 1
 253 0 l 1
 65 0 l 1
 186.825195312 825 l 1
 664.825195312 825 l 1
EndSplineSet
EndChar

StartChar: G
Encoding: 71 71 40
Width: 903
Flags: W
HStem: -15 173<418.273 589.887> 0 21G<788.894 845.953> 317 145<528.811 698.811> 670 170<488.867 663.307>
LayerCount: 2
Fore
SplineSet
911.22265625 462 m 1xb0
 843 0 l 1x70
 751.020507812 34 l 1
 764.360351562 93.81640625 l 1
 684.674804688 18.2783203125 579.306640625 -15 459.78515625 -15 c 0
 237.78515625 -15 85.9892578125 176 120.838867188 412 c 0
 155.8359375 649 354.040039062 840 586.040039062 840 c 0
 731.040039062 840 824.06640625 786 883.219726562 699 c 1
 740.284179688 564 l 1
 703.654296875 641 644.936523438 670 571.936523438 670 c 0
 455.936523438 670 344.955078125 555 323.838867188 412 c 0
 303.165039062 272 380.331054688 158 496.331054688 158 c 0
 586.331054688 158 683.896484375 216 698.810546875 317 c 1
 528.810546875 317 l 1
 516.22265625 462 l 1
 911.22265625 462 l 1xb0
EndSplineSet
EndChar

StartChar: H
Encoding: 72 72 41
Width: 744
Flags: W
HStem: 0 21G<75 265.953 481 671.953> 318 188<337.72 527.958> 805 20G<193.872 384.825 599.872 790.825>
LayerCount: 2
Fore
SplineSet
790.825195312 825 m 1
 669 0 l 1
 481 0 l 1
 527.958007812 318 l 1
 309.958007812 318 l 1
 263 0 l 1
 75 0 l 1
 196.825195312 825 l 1
 384.825195312 825 l 1
 337.719726562 506 l 1
 555.719726562 506 l 1
 602.825195312 825 l 1
 790.825195312 825 l 1
EndSplineSet
EndChar

StartChar: I
Encoding: 73 73 42
Width: 338
Flags: W
HStem: 0 21G<75 265.953> 805 20G<193.872 384.825>
VStem: 75 309.825
LayerCount: 2
Fore
SplineSet
384.825195312 825 m 1
 263 0 l 1
 75 0 l 1
 196.825195312 825 l 1
 384.825195312 825 l 1
EndSplineSet
EndChar

StartChar: J
Encoding: 74 74 43
Width: 597
Flags: W
HStem: -15 180<138.686 344.577> 805 20G<468.372 659.325>
LayerCount: 2
Fore
SplineSet
659.325195312 825 m 1
 571.90625 233 l 2
 547.984375 71 443.28515625 -15 278.28515625 -15 c 0
 160.28515625 -15 58.76171875 -5 58.76171875 -5 c 1
 145.341796875 175 l 1
 145.341796875 175 230.865234375 165 278.865234375 165 c 0
 332.865234375 165 378.73828125 198 390.994140625 281 c 2
 471.325195312 825 l 1
 659.325195312 825 l 1
EndSplineSet
EndChar

StartChar: K
Encoding: 75 75 44
Width: 869
Flags: W
HStem: 0 21G<58.5 249.453 538.943 810.5> 805 20G<177.372 368.325 635.382 880.325>
LayerCount: 2
Fore
SplineSet
810.5 0 m 1
 550.5 0 l 1
 308.372070312 419 l 1
 246.5 0 l 1
 58.5 0 l 1
 180.325195312 825 l 1
 368.325195312 825 l 1
 308.372070312 419 l 1
 652.325195312 825 l 1
 880.325195312 825 l 1
 522.372070312 419 l 1
 810.5 0 l 1
EndSplineSet
EndChar

StartChar: L
Encoding: 76 76 45
Width: 604
Flags: W
HStem: 0 165<278.365 538> 805 20G<184.872 375.825>
LayerCount: 2
Fore
SplineSet
375.825195312 825 m 1
 278.365234375 165 l 1
 562.365234375 165 l 1
 538 0 l 1
 66 0 l 1
 187.825195312 825 l 1
 375.825195312 825 l 1
EndSplineSet
EndChar

StartChar: M
Encoding: 77 77 46
Width: 1044
Flags: W
HStem: 0 21G<72.5 262.568 784.5 974.453> 805 20G<191.372 465.103 815.725 1093.33>
LayerCount: 2
Fore
SplineSet
571.23828125 5 m 1
 473.23828125 5 l 1
 339.729492188 523 l 1
 259.5 0 l 1
 72.5 0 l 1
 194.325195312 825 l 1
 460.325195312 825 l 1
 574.036132812 349 l 1
 826.325195312 825 l 1
 1093.32519531 825 l 1
 971.5 0 l 1
 784.5 0 l 1
 859.729492188 523 l 1
 571.23828125 5 l 1
EndSplineSet
EndChar

StartChar: N
Encoding: 78 78 47
Width: 856
Flags: W
HStem: 0 21G<75 265.953 759.519 783.953> 805 20G<193.872 218.154 711.778 902.825>
LayerCount: 2
Fore
SplineSet
75 0 m 1
 196.825195312 825 l 1
 650.06640625 400 l 1
 714.825195312 825 l 1
 902.825195312 825 l 1
 781 0 l 1
 325.611328125 424 l 1
 263 0 l 1
 75 0 l 1
EndSplineSet
EndChar

StartChar: O
Encoding: 79 79 48
Width: 951
Flags: W
HStem: -15 192<410.514 600.562> 648 192<473.15 663.227>
LayerCount: 2
Fore
SplineSet
307.986328125 413 m 0
 289.084960938 285 374.13671875 177 502.13671875 177 c 0
 630.13671875 177 746.084960938 285 764.986328125 413 c 0
 783.887695312 541 699.688476562 648 571.688476562 648 c 0
 443.688476562 648 326.887695312 541 307.986328125 413 c 0
120.986328125 413 m 0
 155.245117188 645 368.040039062 840 600.040039062 840 c 0
 832.040039062 840 986.245117188 645 951.986328125 413 c 0
 917.727539062 181 705.78515625 -15 473.78515625 -15 c 0
 241.78515625 -15 86.7275390625 181 120.986328125 413 c 0
EndSplineSet
EndChar

StartChar: P
Encoding: 80 80 49
Width: 711
Flags: W
HStem: 0 21G<64.5 255.453> 306 150<319.836 457.245> 675 150<352.176 488.085>
LayerCount: 2
Fore
SplineSet
319.8359375 456 m 1
 411.631835938 458 517.301757812 468.166992188 531.931640625 565 c 0
 545.681640625 656 461.17578125 675 352.17578125 675 c 1
 319.8359375 456 l 1
186.325195312 825 m 1
 487.325195312 825 l 1
 685.515625 820.372070312 749.768554688 697.943359375 730.818359375 571 c 0
 693.009765625 317.740234375 410.264648438 306.8046875 297.686523438 306 c 1
 252.5 0 l 1
 64.5 0 l 1
 186.325195312 825 l 1
EndSplineSet
EndChar

StartChar: Q
Encoding: 81 81 50
Width: 1002
Flags: W
HStem: -15 192<400.514 562.349> 0 21G<708.953 952> 648 192<463.15 653.326>
LayerCount: 2
Fore
SplineSet
110.986328125 413 m 0xa0
 145.245117188 645 358.040039062 840 590.040039062 840 c 0
 822.040039062 840 977.245117188 645 942.986328125 413 c 0
 928.958007812 318 884.815429688 229 822.18359375 157 c 1
 952 0 l 1
 726 0 l 1x60
 686.79296875 46 l 1
 619.033203125 7 542.78515625 -15 463.78515625 -15 c 0
 231.78515625 -15 76.7275390625 181 110.986328125 413 c 0xa0
297.986328125 413 m 0
 279.084960938 285 364.13671875 177 492.13671875 177 c 0xa0
 517.13671875 177 540.875 182 563.909179688 189 c 1
 483.642578125 282 l 1
 626.180664062 394 l 1
 707.561523438 295 l 1
 732.73046875 330 749.784179688 371 755.986328125 413 c 0
 774.887695312 541 689.688476562 648 561.688476562 648 c 0
 433.688476562 648 316.887695312 541 297.986328125 413 c 0
EndSplineSet
EndChar

StartChar: R
Encoding: 82 82 51
Width: 711
Flags: W
HStem: 0 21G<64.5 255.453 504.353 721.5> 675 150<352.176 488.085>
LayerCount: 2
Fore
SplineSet
186.325195312 825 m 1
 487.325195312 825 l 1
 685.515625 820.372070312 749.768554688 697.943359375 730.818359375 571 c 0
 712.137695312 445.868164062 633.663085938 379.892578125 545.462890625 345.067382812 c 1
 721.5 0 l 1
 514.5 0 l 1
 358.326171875 307.823242188 l 1
 335.225585938 306.467773438 314.547851562 306.120117188 297.686523438 306 c 1
 252.5 0 l 1
 64.5 0 l 1
 186.325195312 825 l 1
319.8359375 456 m 1
 411.631835938 458 517.301757812 468.166992188 531.931640625 565 c 0
 545.681640625 656 461.17578125 675 352.17578125 675 c 1
 319.8359375 456 l 1
EndSplineSet
EndChar

StartChar: S
Encoding: 83 83 52
Width: 726
Flags: W
LayerCount: 2
Fore
SplineSet
183.711914062 252 m 1
 281.841796875 175 484.77734375 117 502.940429688 240 c 0
 522.254882812 370.80078125 183.418945312 399 211.328125 588 c 0
 237.465820312 765 458.284179688 950 762.022460938 762 c 1
 663.872070312 612 l 1
 556.672851562 719 406.55078125 664 396.362304688 595 c 0
 383.015625 504.6171875 744.528320312 481 710.564453125 251 c 0
 681.473632812 54 371.587890625 -145 66.380859375 94 c 1
 183.711914062 252 l 1
EndSplineSet
EndChar

StartChar: T
Encoding: 84 84 53
Width: 682
Flags: W
HStem: 0 21G<247 437.953> 660 165<172.825 344.46 532.46 728.46>
LayerCount: 2
Fore
SplineSet
148.459960938 660 m 1
 172.825195312 825 l 1
 752.825195312 825 l 1
 728.459960938 660 l 1
 532.459960938 660 l 1
 435 0 l 1
 247 0 l 1
 344.459960938 660 l 1
 148.459960938 660 l 1
EndSplineSet
EndChar

StartChar: U
Encoding: 85 85 54
Width: 785
Flags: W
HStem: -15 185<339.283 502.908> 805 20G<189.372 380.325 645.372 836.325>
LayerCount: 2
Fore
SplineSet
836.325195312 825 m 1
 757.766601562 293 l 2
 727.642578125 89 600.28515625 -15 390.28515625 -15 c 0
 180.28515625 -15 83.642578125 89 113.766601562 293 c 2
 192.325195312 825 l 1
 380.325195312 825 l 1
 309.887695312 348 l 2
 289.509765625 210 325.603515625 170 417.603515625 170 c 0
 509.603515625 170 557.509765625 210 577.887695312 348 c 2
 648.325195312 825 l 1
 836.325195312 825 l 1
EndSplineSet
EndChar

StartChar: V
Encoding: 86 86 55
Width: 927
Flags: W
HStem: 0 21G<384.065 548.841> 805 20G<165.325 382.047 782.697 1005.33>
LayerCount: 2
Fore
SplineSet
389.5 0 m 1
 165.325195312 825 l 1
 377.325195312 825 l 1
 505.290039062 283 l 1
 793.325195312 825 l 1
 1005.32519531 825 l 1
 537.5 0 l 1
 389.5 0 l 1
EndSplineSet
EndChar

StartChar: W
Encoding: 87 87 56
Width: 1239
Flags: W
HStem: 0 21G<276.732 496.155 748.751 968.175> 805 20G<165.325 377.319 663.072 815.672 1101.35 1317.33>
LayerCount: 2
Fore
SplineSet
751.5 0 m 1
 687.870117188 463 l 1
 487.5 0 l 1
 279.5 0 l 1
 165.325195312 825 l 1
 375.325195312 825 l 1
 431.74609375 259 l 1
 437.74609375 259 l 1
 671.325195312 825 l 1
 813.325195312 825 l 1
 879.74609375 259 l 1
 883.74609375 259 l 1
 1109.32519531 825 l 1
 1317.32519531 825 l 1
 959.5 0 l 1
 751.5 0 l 1
EndSplineSet
EndChar

StartChar: X
Encoding: 88 88 57
Width: 958
Flags: W
HStem: 0 21G<46 296.839 657.068 912> 805 20G<167.825 413.856 771.888 1033.83>
LayerCount: 2
Fore
SplineSet
1033.82519531 825 m 1
 651.724609375 418 l 1
 912 0 l 1
 669 0 l 1
 512.688476562 262 l 1
 279 0 l 1
 46 0 l 1
 419.724609375 418 l 1
 167.825195312 825 l 1
 400.825195312 825 l 1
 559.794921875 581 l 1
 790.825195312 825 l 1
 1033.82519531 825 l 1
EndSplineSet
EndChar

StartChar: Y
Encoding: 89 89 58
Width: 889
Flags: W
HStem: 0 21G<336.5 554.453> 805 20G<164.325 393.606 733.261 968.325>
LayerCount: 2
Fore
SplineSet
747.325195312 825 m 1
 968.325195312 825 l 1
 598.60546875 319 l 1
 551.5 0 l 1
 336.5 0 l 1
 383.60546875 319 l 1
 164.325195312 825 l 1
 385.325195312 825 l 1
 519.481445312 501 l 1
 747.325195312 825 l 1
EndSplineSet
EndChar

StartChar: Z
Encoding: 90 90 59
Width: 825
Flags: W
HStem: 0 165<396.365 729.365> 660 165<248.46 549.46>
LayerCount: 2
Fore
SplineSet
902.825195312 825 m 1
 396.365234375 165 l 1
 729.365234375 165 l 1
 754 0 l 1
 44 0 l 1
 549.459960938 660 l 1
 248.459960938 660 l 1
 223.825195312 825 l 1
 902.825195312 825 l 1
EndSplineSet
EndChar

StartChar: bracketleft
Encoding: 91 91 60
Width: 448
Flags: W
HStem: -260 117<194.884 346.606> 743 117<325.717 494.717>
LayerCount: 2
Fore
SplineSet
189.994140625 860 m 1
 511.994140625 860 l 1
 494.716796875 743 l 1
 325.716796875 743 l 1
 194.883789062 -143 l 1
 363.883789062 -143 l 1
 346.606445312 -260 l 1
 24.6064453125 -260 l 1
 189.994140625 860 l 1
EndSplineSet
EndChar

StartChar: backslash
Encoding: 92 92 61
Width: 653
Flags: W
LayerCount: 2
Fore
SplineSet
170.994140625 860 m 1
 323.994140625 860 l 1
 591.280273438 -120 l 1
 438.280273438 -120 l 1
 170.994140625 860 l 1
EndSplineSet
EndChar

StartChar: bracketright
Encoding: 93 93 62
Width: 449
Flags: W
HStem: -260 117<42.3838 211.384> 743 117<190.494 342.217>
LayerCount: 2
Fore
SplineSet
42.3837890625 -143 m 1
 211.383789062 -143 l 1
 342.216796875 743 l 1
 173.216796875 743 l 1
 190.494140625 860 l 1
 512.494140625 860 l 1
 347.106445312 -260 l 1
 25.1064453125 -260 l 1
 42.3837890625 -143 l 1
EndSplineSet
EndChar

StartChar: asciicircum
Encoding: 94 94 63
Width: 617
Flags: W
HStem: 605 235
LayerCount: 2
Fore
SplineSet
489.838867188 605 m 1
 413.934570312 714 l 1
 305.838867188 605 l 1
 144.838867188 605 l 1
 386.540039062 840 l 1
 478.540039062 840 l 1
 650.838867188 605 l 1
 489.838867188 605 l 1
EndSplineSet
EndChar

StartChar: underscore
Encoding: 95 95 64
Width: 663
Flags: W
HStem: -100 85<72.7852 573.233>
LayerCount: 2
Fore
SplineSet
72.78515625 -15 m 1
 585.78515625 -15 l 1
 573.233398438 -100 l 1
 60.2333984375 -100 l 1
 72.78515625 -15 l 1
EndSplineSet
EndChar

StartChar: grave
Encoding: 96 96 65
Width: 406
Flags: W
HStem: 587 253
VStem: 163.059 284.992
LayerCount: 2
Fore
SplineSet
271.040039062 840 m 1
 448.05078125 664 l 1
 380.680664062 587 l 1
 163.05859375 725 l 1
 271.040039062 840 l 1
EndSplineSet
EndChar

StartChar: a
Encoding: 97 97 66
Width: 735
Flags: W
HStem: -15 151<245.285 422.041> 0 21G<492.5 670.453> 377 151<358.658 497.059>
LayerCount: 2
Fore
SplineSet
293.302734375 256 m 0xa0
 282.965820312 186 323.583007812 136 395.583007812 136 c 0
 464.583007812 136 521.965820312 186 532.302734375 256 c 0
 542.787109375 327 497.170898438 377 431.170898438 377 c 0
 364.170898438 377 303.787109375 327 293.302734375 256 c 0xa0
734.541015625 454 m 2
 667.5 0 l 1
 492.5 0 l 1x60
 501.064453125 58 l 1
 456.862304688 16 390.28515625 -15 320.28515625 -15 c 0
 170.28515625 -15 83.15234375 106 105.302734375 256 c 0
 127.453125 406 250.467773438 528 400.467773438 528 c 0
 469.467773438 528 746.887695312 541 734.541015625 454 c 2
EndSplineSet
EndChar

StartChar: b
Encoding: 98 98 67
Width: 742
Flags: W
HStem: -15 151<316.041 454.677> 0 21G<69 246.953> 377 148.995<343.568 483.329>
LayerCount: 2
Fore
SplineSet
518.802734375 256 m 0xa0
 529.287109375 327 483.670898438 377 416.670898438 377 c 0
 358.9140625 377 305.458007812 338.708984375 285.979492188 281.5625 c 1
 278.352539062 230.860351562 l 1
 280.478515625 174.333007812 320.666992188 136 381.083007812 136 c 0
 453.083007812 136 508.465820312 186 518.802734375 256 c 0xa0
69 0 m 1x60
 195.994140625 860 l 1
 372.994140625 860 l 1
 322.749023438 525.995117188 l 1
 392.365234375 530.491210938 461.764648438 528 491.967773438 528 c 0
 641.967773438 528 728.953125 406 706.802734375 256 c 0
 684.65234375 106 561.78515625 -15 411.78515625 -15 c 0xa0
 341.78515625 -15 284.362304688 16 252.564453125 58 c 1
 244 0 l 1
 69 0 l 1x60
EndSplineSet
EndChar

StartChar: c
Encoding: 99 99 68
Width: 572
Flags: W
HStem: -15 145<324.161 468.776> 383 145<355.297 519.166>
LayerCount: 2
Fore
SplineSet
518.578125 31 m 1
 518.578125 31 453.78515625 -15 339.78515625 -15 c 0
 191.78515625 -15 73.5048828125 105 95.6552734375 255 c 0
 117.953125 406 270.967773438 528 419.967773438 528 c 0
 533.967773438 528 584.879882812 480 584.879882812 480 c 1
 507.012695312 359 l 1
 507.012695312 359 477.556640625 383 424.556640625 383 c 0
 357.556640625 383 294.287109375 327 283.950195312 257 c 0
 273.465820312 186 320.196289062 130 387.196289062 130 c 0
 440.196289062 130 476.741210938 154 476.741210938 154 c 1
 518.578125 31 l 1
EndSplineSet
EndChar

StartChar: d
Encoding: 100 100 69
Width: 742
Flags: W
HStem: -15 151<246.785 424.699> 0 21G<494 671.953> 377 151<360.158 533.367>
LayerCount: 2
Fore
SplineSet
294.802734375 256 m 0xa0
 284.465820312 186 325.083007812 136 397.083007812 136 c 0
 457.499023438 136 509.0078125 174.333007812 527.829101562 230.860351562 c 1
 535.174804688 281.5625 l 1
 532.575195312 338.708984375 490.427734375 377 432.670898438 377 c 0
 365.670898438 377 305.287109375 327 294.802734375 256 c 0xa0
669 0 m 1x60
 494 0 l 1x60
 502.564453125 58 l 1
 458.362304688 16 391.78515625 -15 321.78515625 -15 c 0xa0
 171.78515625 -15 84.65234375 106 106.802734375 256 c 0
 128.953125 406 251.967773438 528 401.967773438 528 c 0
 432.170898438 528 502.306640625 530.491210938 570.594726562 525.995117188 c 1
 618.994140625 860 l 1
 795.994140625 860 l 1
 669 0 l 1x60
EndSplineSet
EndChar

StartChar: e
Encoding: 101 101 70
Width: 679
Flags: W
HStem: -15 21G<263.285 397.785> 227 90<296.811 491.811> 413 115<347.337 463.818>
LayerCount: 2
Fore
SplineSet
296.810546875 317 m 1
 491.810546875 317 l 1
 491.784179688 371 460.986328125 413 408.986328125 413 c 0
 347.986328125 413 306.750976562 364 296.810546875 317 c 1
506.546875 173 m 1
 626.572265625 119 l 1
 554.249023438 22 454.78515625 -15 340.78515625 -15 c 0
 185.78515625 -15 76.80078125 107 98.802734375 256 c 0
 120.953125 406 265.967773438 528 420.967773438 528 c 0
 576.967773438 528 679.724609375 418 651.520507812 227 c 1
 278.520507812 227 l 1
 265.821289062 141 376.860351562 60 506.546875 173 c 1
EndSplineSet
EndChar

StartChar: f
Encoding: 102 102 71
Width: 516
Flags: W
HStem: 0 21G<121.5 301.453> 450 135<133.886 187.95 384.886 482.95> 718 157<418.559 521.493>
LayerCount: 2
Fore
SplineSet
207.885742188 585 m 1
 236.737304688 777 311.708984375 875 451.708984375 875 c 0
 541.708984375 875 590.916015625 829 590.916015625 829 c 1
 510.458007812 704 l 1
 510.458007812 704 488.525390625 718 459.525390625 718 c 0
 404.525390625 718 394.926757812 653 384.885742188 585 c 1
 502.885742188 585 l 1
 482.950195312 450 l 1
 364.950195312 450 l 1
 298.5 0 l 1
 121.5 0 l 1
 187.950195312 450 l 1
 113.950195312 450 l 1
 133.885742188 585 l 1
 207.885742188 585 l 1
EndSplineSet
EndChar

StartChar: g
Encoding: 103 103 72
Width: 683
Flags: W
HStem: -275 154<214.746 377.254> -15 151<200.785 405.494> 377 151<314.158 489.502>
LayerCount: 2
Fore
SplineSet
660.802734375 256 m 2
 620.932617188 -14 l 2
 595.534179688 -186 455.391601562 -275 280.391601562 -275 c 0
 173.391601562 -275 53.935546875 -251 18.3935546875 -126 c 1
 173.877929688 -55 l 1
 188.30078125 -86 226.131835938 -121 303.131835938 -121 c 0
 352.131835938 -121 432.415039062 -92 445.852539062 -1 c 2
 451.463867188 37 l 1
 407.26171875 -5 345.78515625 -15 275.78515625 -15 c 0
 125.78515625 -15 38.65234375 106 60.802734375 256 c 0
 82.953125 406 205.967773438 528 355.967773438 528 c 0
 647.618164062 528 700.967773438 528 660.802734375 256 c 2
248.802734375 256 m 0
 238.465820312 186 279.083007812 136 351.083007812 136 c 0
 420.083007812 136 477.465820312 186 487.802734375 256 c 0
 488.975585938 263.943359375 495.869140625 310.623046875 496.791015625 318 c 0
 502.344726562 364.561523438 492.358398438 377 386.670898438 377 c 0
 319.670898438 377 259.287109375 327 248.802734375 256 c 0
EndSplineSet
EndChar

StartChar: h
Encoding: 104 104 73
Width: 695
Flags: W
HStem: 0 21G<72 251.953 446 625.953> 390 138<388.276 522.968>
LayerCount: 2
Fore
SplineSet
375.994140625 860 m 1
 316.779296875 459 l 1
 362.685546875 499 419.967773438 528 475.967773438 528 c 0
 569.967773438 528 694.028320312 481 672.911132812 338 c 2
 623 0 l 1
 446 0 l 1
 488.823242188 290 l 2
 496.354492188 341 468.58984375 390 411.58984375 390 c 0
 358.58984375 390 299.354492188 341 291.823242188 290 c 2
 249 0 l 1
 72 0 l 1
 198.994140625 860 l 1
 375.994140625 860 l 1
EndSplineSet
EndChar

StartChar: i
Encoding: 105 105 74
Width: 321
Flags: W
HStem: 0 21G<70.5 253.453> 506 20G<145.22 328.173> 603 176<218.389 307.686>
VStem: 70.5 277.538
LayerCount: 2
Fore
SplineSet
178.038085938 691 m 0
 185.125976562 739 230.032226562 779 276.032226562 779 c 0
 322.032226562 779 355.125976562 739 348.038085938 691 c 0
 340.950195312 643 296.04296875 603 250.04296875 603 c 0
 204.04296875 603 170.950195312 643 178.038085938 691 c 0
70.5 0 m 1
 148.172851562 526 l 1
 328.172851562 526 l 1
 250.5 0 l 1
 70.5 0 l 1
EndSplineSet
EndChar

StartChar: j
Encoding: 106 106 75
Width: 394
Flags: W
HStem: 603 176<255.389 344.686>
LayerCount: 2
Fore
SplineSet
185.431640625 511 m 1
 362.431640625 511 l 1
 300.263671875 90 l 2
 279.73828125 -49 188.823242188 -150 58.8232421875 -150 c 0
 28.2265625 -150 -8.7265625 -25.4609375 21.2919921875 -14 c 0
 60.224609375 0.8642578125 109.734375 -1.6044921875 122.404296875 84 c 2
 185.431640625 511 l 1
215.038085938 691 m 0
 222.125976562 739 267.032226562 779 313.032226562 779 c 0
 359.032226562 779 392.125976562 739 385.038085938 691 c 0
 377.950195312 643 333.04296875 603 287.04296875 603 c 0
 241.04296875 603 207.950195312 643 215.038085938 691 c 0
EndSplineSet
EndChar

StartChar: k
Encoding: 107 107 76
Width: 728
Flags: W
HStem: 0 21G<59 238.953 423.953 669> 493 20G<467.8 720.753>
LayerCount: 2
Fore
SplineSet
720.752929688 513 m 1
 440.575195312 268 l 1
 669 0 l 1
 441 0 l 1
 266.271484375 205 l 1
 236 0 l 1
 59 0 l 1
 185.994140625 860 l 1
 362.994140625 860 l 1
 285.321289062 334 l 1
 490.752929688 513 l 1
 720.752929688 513 l 1
EndSplineSet
EndChar

StartChar: l
Encoding: 108 108 77
Width: 406
Flags: W
HStem: 0 21G<246 326.298> 805 20G<224.553 403.439>
LayerCount: 2
Fore
SplineSet
311 0 m 0
 181 0 120.313476562 86 140.83984375 225 c 2
 227.439453125 825 l 1
 403.439453125 825 l 1
 320.16796875 234 l 2
 310.65625 169.395507812 382.07421875 163.864257812 392.68359375 163 c 0
 422.780273438 160.548828125 341.596679688 0 311 0 c 0
EndSplineSet
EndChar

StartChar: m
Encoding: 109 109 78
Width: 1082
Flags: W
HStem: 0 21G<71.5 258.453 454.5 637.453 833.5 1013.45> 384 144<341.931 478.265 717.835 853.865> 500 20G<145.334 288.287>
LayerCount: 2
Fore
SplineSet
255.5 0 m 1xc0
 71.5 0 l 1
 148.287109375 520 l 1
 288.287109375 520 l 1xa0
 284.004882812 491 l 1
 321.401367188 514 369.467773438 528 434.467773438 528 c 0
 515.467773438 528 573.172851562 526 612.57421875 461 c 1
 681.172851562 526 729.467773438 528 810.467773438 528 c 0
 1002.46777344 528 1078.27929688 459 1052.88085938 287 c 2
 1010.5 0 l 1
 833.5 0 l 1
 869.53125 244 l 2
 884.4453125 345 863.204101562 384 789.204101562 384 c 0
 728.204101562 384 695.365234375 358 677.470703125 291 c 1
 634.5 0 l 1
 454.5 0 l 1
 497.470703125 291 l 1
 499.365234375 358 474.204101562 384 413.204101562 384 c 0
 339.204101562 384 306.4453125 345 291.53125 244 c 2
 255.5 0 l 1xc0
EndSplineSet
EndChar

StartChar: n
Encoding: 110 110 79
Width: 706
Flags: W
HStem: 0 21G<71.5 258.453 457.5 637.453> 384 144<342.466 478.676> 500 20G<145.334 288.287>
LayerCount: 2
Fore
SplineSet
255.5 0 m 1xc0
 71.5 0 l 1
 148.287109375 520 l 1
 288.287109375 520 l 1xa0
 284.004882812 491 l 1
 321.401367188 514 370.467773438 528 435.467773438 528 c 0
 627.467773438 528 702.279296875 459 676.880859375 287 c 2
 634.5 0 l 1
 457.5 0 l 1
 493.53125 244 l 2
 508.4453125 345 488.204101562 384 414.204101562 384 c 0
 340.204101562 384 306.4453125 345 291.53125 244 c 2
 255.5 0 l 1xc0
EndSplineSet
EndChar

StartChar: o
Encoding: 111 111 80
Width: 675
Flags: W
HStem: -15 155.125<295.498 427.271> 372.875 155.125<325.116 453.662>
LayerCount: 2
Fore
SplineSet
257.03125 256.025390625 m 0
 247.913085938 194.275390625 294.06640625 140.125 358.666015625 140.125 c 0
 423.266601562 140.125 484.463867188 194.275390625 493.58203125 256.025390625 c 0
 502.700195312 317.775390625 457.63671875 372.875 393.036132812 372.875 c 0
 328.436523438 372.875 266.149414062 317.775390625 257.03125 256.025390625 c 0
98.802734375 256 m 0
 120.21484375 401 264.967773438 528 416.967773438 528 c 0
 568.967773438 528 673.21484375 401 651.802734375 256 c 0
 630.390625 111 488.78515625 -15 336.78515625 -15 c 0
 184.78515625 -15 77.390625 111 98.802734375 256 c 0
EndSplineSet
EndChar

StartChar: p
Encoding: 112 112 81
Width: 736
Flags: W
HStem: -260 21G<29.6064 209.485> -15 151<279.386 452.595> 377 151<342.642 565.968>
LayerCount: 2
Fore
SplineSet
29.6064453125 -260 m 1
 135.041015625 454 l 2
 147.948242188 541 421.967773438 528 490.967773438 528 c 0
 640.967773438 528 728.100585938 407 705.950195312 257 c 0
 683.80078125 107 560.78515625 -15 410.78515625 -15 c 0
 380.58203125 -15 310.446289062 -17.4912109375 242.158203125 -12.9951171875 c 1
 206.606445312 -260 l 1
 29.6064453125 -260 l 1
517.950195312 257 m 0
 528.287109375 327 487.670898438 377 415.670898438 377 c 0
 355.254882812 377 303.745117188 338.666992188 284.924804688 282.139648438 c 1
 277.578125 231.4375 l 1
 280.178710938 174.291015625 322.326171875 136 380.083007812 136 c 0
 447.083007812 136 507.465820312 186 517.950195312 257 c 0
EndSplineSet
EndChar

StartChar: q
Encoding: 113 113 82
Width: 736
Flags: W
HStem: -260 21G<452.606 632.56> -15 151<329.425 469.186> 377 151<358.077 498.658>
LayerCount: 2
Fore
SplineSet
629.606445312 -260 m 1
 452.606445312 -260 l 1
 490.00390625 -12.9951171875 l 1
 420.387695312 -17.4912109375 350.98828125 -15 320.78515625 -15 c 0
 170.78515625 -15 83.80078125 107 105.950195312 257 c 0
 128.100585938 407 250.967773438 528 400.967773438 528 c 0
 469.967773438 528 747.827148438 541 735.041015625 454 c 2
 629.606445312 -260 l 1
293.950195312 257 m 0
 283.465820312 186 329.083007812 136 396.083007812 136 c 0
 453.83984375 136 507.295898438 174.291015625 526.7734375 231.4375 c 1
 534.401367188 282.139648438 l 1
 532.274414062 338.666992188 492.086914062 377 431.670898438 377 c 0
 359.670898438 377 304.287109375 327 293.950195312 257 c 0
EndSplineSet
EndChar

StartChar: r
Encoding: 114 114 83
Width: 573
Flags: W
HStem: 0 21G<62.5 242.453> 374 154<391.541 498.842> 493 20G<135.3 315.253>
LayerCount: 2
Fore
SplineSet
315.252929688 513 m 1xa0
 304.326171875 439 l 1
 304.326171875 439 375.467773438 528 476.467773438 528 c 0
 542.467773438 528 583.743164062 496 583.743164062 496 c 1
 487.592773438 346 l 1
 487.592773438 346 458.727539062 374 399.727539062 374 c 0xc0
 307.727539062 374 281.290039062 283 279.370117188 270 c 2
 239.5 0 l 1
 62.5 0 l 1
 138.252929688 513 l 1
 315.252929688 513 l 1xa0
EndSplineSet
EndChar

StartChar: s
Encoding: 115 115 84
Width: 546
Flags: W
LayerCount: 2
Fore
SplineSet
150.341796875 175 m 1
 256.551757812 85 324.072265625 119 329.092773438 153 c 0
 340.611328125 231 127.107421875 261.447265625 142.103515625 363 c 0
 156.426757812 460 318.395507812 602 556.561523438 488 c 1
 481.432617188 372 l 1
 354.587890625 434 316.124023438 397 312.580078125 373 c 0
 303.421875 310.982421875 535.290039062 283 517.126953125 160 c 0
 494.829101562 9 226.653320312 -87 60.4736328125 54 c 1
 150.341796875 175 l 1
EndSplineSet
EndChar

StartChar: t
Encoding: 116 116 85
Width: 487
Flags: W
HStem: -15 159<230.285 412.245> 378 135<129.753 183.818 380.753 468.818>
LayerCount: 2
Fore
SplineSet
203.752929688 513 m 1
 231.958007812 704 l 1
 408.958007812 704 l 1
 380.752929688 513 l 1
 488.752929688 513 l 1
 468.818359375 378 l 1
 360.818359375 378 l 1
 336.748046875 215 l 2
 329.66015625 167 338.263671875 144 366.263671875 144 c 0
 389.263671875 144 412.626953125 160 412.626953125 160 c 1
 435.510742188 17 l 1
 435.510742188 17 373.78515625 -15 300.78515625 -15 c 0
 159.78515625 -15 141.290039062 90 154.727539062 181 c 2
 183.818359375 378 l 1
 109.818359375 378 l 1
 129.752929688 513 l 1
 203.752929688 513 l 1
EndSplineSet
EndChar

StartChar: u
Encoding: 117 117 86
Width: 694
Flags: W
HStem: -15 144<301.388 436.403> 493 20G<141.8 321.753 520.8 700.753>
LayerCount: 2
Fore
SplineSet
321.752929688 513 m 1
 285.72265625 269 l 2
 270.807617188 168 292.048828125 129 366.048828125 129 c 0
 440.048828125 129 472.807617188 168 487.72265625 269 c 2
 523.752929688 513 l 1
 700.752929688 513 l 1
 658.373046875 226 l 2
 632.973632812 54 536.78515625 -15 344.78515625 -15 c 0
 152.78515625 -15 76.9736328125 54 102.373046875 226 c 2
 144.752929688 513 l 1
 321.752929688 513 l 1
EndSplineSet
EndChar

StartChar: v
Encoding: 118 118 87
Width: 767
Flags: W
HStem: 0 21G<315.732 457.175> 493 20G<124.253 340.26 572.339 794.253>
LayerCount: 2
Fore
SplineSet
334.252929688 513 m 1
 418.053710938 234 l 1
 584.252929688 513 l 1
 794.252929688 513 l 1
 443.5 0 l 1
 323.5 0 l 1
 124.252929688 513 l 1
 334.252929688 513 l 1
EndSplineSet
EndChar

StartChar: w
Encoding: 119 119 88
Width: 1123
Flags: W
HStem: 0 21G<315.732 455.359 673.548 813.175> 493 20G<124.253 334.325 564.419 704.18 934.274 1150.25>
LayerCount: 2
Fore
SplineSet
443.5 0 m 1
 323.5 0 l 1
 124.252929688 513 l 1
 328.252929688 513 l 1
 412.349609375 236 l 1
 576.252929688 513 l 1
 698.252929688 513 l 1
 780.349609375 236 l 1
 946.252929688 513 l 1
 1150.25292969 513 l 1
 799.5 0 l 1
 679.5 0 l 1
 600.631835938 265 l 1
 443.5 0 l 1
EndSplineSet
EndChar

StartChar: x
Encoding: 120 120 89
Width: 744
Flags: W
HStem: 0 21G<45 277.54 472.367 699> 493 20G<151.753 370.758 518.842 743.753>
LayerCount: 2
Fore
SplineSet
699 0 m 1
 485 0 l 1
 393.412109375 145 l 1
 259 0 l 1
 45 0 l 1
 303.575195312 268 l 1
 151.752929688 513 l 1
 358.752929688 513 l 1
 430.180664062 394 l 1
 536.752929688 513 l 1
 743.752929688 513 l 1
 519.575195312 268 l 1
 699 0 l 1
EndSplineSet
EndChar

StartChar: y
Encoding: 121 121 90
Width: 765
Flags: W
HStem: -260 21G<73.6064 290.987> 493 20G<121.753 333.674 578.522 794.753>
LayerCount: 2
Fore
SplineSet
590.752929688 513 m 1
 794.752929688 513 l 1
 277.606445312 -260 l 1
 73.6064453125 -260 l 1
 300.813476562 80 l 1
 121.752929688 513 l 1
 325.752929688 513 l 1
 429.916992188 250 l 1
 590.752929688 513 l 1
EndSplineSet
EndChar

StartChar: z
Encoding: 122 122 91
Width: 648
Flags: W
HStem: 0 135<365.436 579.5> 378 135<166.253 358.318>
LayerCount: 2
Fore
SplineSet
675.252929688 513 m 1
 365.435546875 135 l 1
 599.435546875 135 l 1
 579.5 0 l 1
 48.5 0 l 1
 358.318359375 378 l 1
 146.318359375 378 l 1
 166.252929688 513 l 1
 675.252929688 513 l 1
EndSplineSet
EndChar

StartChar: braceleft
Encoding: 123 123 92
Width: 432
Flags: W
HStem: -260 21G<204.106 343.56> 253 94<104.24 143.508> 732 128<406.642 487.093>
LayerCount: 2
Fore
SplineSet
150.76171875 188 m 0
 157.553710938 234 133.359375 253 90.359375 253 c 1
 104.240234375 347 l 1
 147.240234375 347 177.045898438 366 183.838867188 412 c 0
 237.293945312 774 232.994140625 860 505.994140625 860 c 1
 487.092773438 732 l 1
 371.092773438 732 378.481445312 694 336.100585938 407 c 0
 327.68359375 350 295.958007812 318 259.299804688 300 c 1
 290.642578125 282 312.76953125 249 304.5 193 c 0
 262.119140625 -94 243.5078125 -132 359.5078125 -132 c 1
 340.606445312 -260 l 1
 67.6064453125 -260 97.3056640625 -174 150.76171875 188 c 0
EndSplineSet
EndChar

StartChar: bar
Encoding: 124 124 93
Width: 302
Flags: W
HStem: 0 21G<74.5 230.453>
VStem: 74.5 279.994
LayerCount: 2
Fore
SplineSet
74.5 0 m 1
 201.494140625 860 l 1
 354.494140625 860 l 1
 227.5 0 l 1
 74.5 0 l 1
EndSplineSet
EndChar

StartChar: braceright
Encoding: 125 125 94
Width: 432
Flags: W
HStem: -260 128<33.5078 113.958> 253 94<377.092 416.359>
LayerCount: 2
Fore
SplineSet
336.76171875 188 m 0
 283.305664062 -174 287.606445312 -260 14.6064453125 -260 c 1
 33.5078125 -132 l 1
 149.5078125 -132 142.119140625 -94 184.5 193 c 0
 192.76953125 249 224.642578125 282 261.299804688 300 c 1
 229.958007812 318 207.68359375 350 216.100585938 407 c 0
 258.481445312 694 277.092773438 732 161.092773438 732 c 1
 179.994140625 860 l 1
 452.994140625 860 423.293945312 774 369.838867188 412 c 0
 363.045898438 366 387.240234375 347 430.240234375 347 c 1
 416.359375 253 l 1
 373.359375 253 343.553710938 234 336.76171875 188 c 0
EndSplineSet
EndChar

StartChar: asciitilde
Encoding: 126 126 95
Width: 691
Flags: W
HStem: 303 140<463.72 571.033> 388 140<242.679 350.219> 501 20G<616.435 636.444>
LayerCount: 2
Fore
SplineSet
500.243164062 303 m 0xa0
 396.99609375 303 354.794921875 388 292.794921875 388 c 0
 234.794921875 388 197.276367188 310 197.276367188 310 c 1
 116.23828125 391 l 1
 116.23828125 391 201.467773438 528 313.467773438 528 c 0x40
 380.467773438 528 476.139648438 443 520.916992188 443 c 0
 578.916992188 443 616.434570312 521 616.434570312 521 c 1
 697.473632812 440 l 1
 697.473632812 440 612.243164062 303 500.243164062 303 c 0xa0
EndSplineSet
EndChar

StartChar: exclamdown
Encoding: 161 161 97
Width: 303
Flags: W
HStem: -260 21G<24.6064 203.746> 380 176<178.46 267.756>
VStem: 138.108 170<419.062 516.938>
LayerCount: 2
Fore
SplineSet
24.6064453125 -260 m 1
 135.73046875 330 l 1
 264.73046875 330 l 1
 201.606445312 -260 l 1
 24.6064453125 -260 l 1
138.108398438 468 m 0
 145.196289062 516 190.102539062 556 236.102539062 556 c 0
 282.102539062 556 315.196289062 516 308.108398438 468 c 0
 301.020507812 420 256.11328125 380 210.11328125 380 c 0
 164.11328125 380 131.020507812 420 138.108398438 468 c 0
EndSplineSet
EndChar

StartChar: cent
Encoding: 162 162 98
Width: 568
Flags: W
HStem: 383 144<436.82 501.945>
LayerCount: 2
Fore
SplineSet
261.951171875 -129 m 1
 279.818359375 -8 l 1
 160.658203125 18 74.4580078125 125 93.6552734375 255 c 0
 111.375 375 211.4375 477 326.752929688 513 c 1
 344.916015625 636 l 1
 452.916015625 636 l 1
 436.8203125 527 l 1
 537.08203125 522 582.879882812 480 582.879882812 480 c 1
 505.012695312 359 l 1
 505.012695312 359 475.556640625 383 422.556640625 383 c 0
 355.556640625 383 292.287109375 327 281.950195312 257 c 0
 271.465820312 186 318.196289062 130 385.196289062 130 c 0
 438.196289062 130 474.741210938 154 474.741210938 154 c 1
 516.578125 31 l 1
 516.578125 31 468.852539062 -1 387.227539062 -12 c 1
 369.951171875 -129 l 1
 261.951171875 -129 l 1
EndSplineSet
EndChar

StartChar: sterling
Encoding: 163 163 99
Width: 763
Flags: W
HStem: -15 144<403.538 572.693> 0 21G<53.5 168.5> 43 135<181.026 243.729> 289 98<110.647 212.647 388.392 553.176> 689 152<426.486 542.665>
LayerCount: 2
Fore
SplineSet
383.717773438 164 m 0x78
 395.6015625 148.25 450.548828125 129 524.548828125 129 c 0
 581.548828125 129 602.180664062 201 602.180664062 201 c 1
 729.139648438 133 l 1
 729.139648438 133 684.28515625 -15 524.28515625 -15 c 0x98
 400.28515625 -15 315.849609375 43 221.849609375 43 c 0
 180.849609375 43 168.5 0 168.5 0 c 1
 53.5 0 l 1
 61.4736328125 54 135.78515625 178 225.78515625 178 c 0
 263.618164062 178 245.74609375 259 234.17578125 289 c 1
 96.17578125 289 l 1
 110.647460938 387 l 1
 212.647460938 387 l 1
 191.14453125 431 174.823242188 483 185.8984375 558 c 0
 208.934570312 714 323.688476562 841 508.688476562 841 c 0
 742.688476562 841 754.630859375 651 754.630859375 651 c 1
 585.260742188 574 l 1
 585.260742188 574 583.2421875 689 486.2421875 689 c 0
 424.2421875 689 383.12109375 634 371.8984375 558 c 0
 359.790039062 476 379.8828125 436 394.647460938 387 c 1
 567.647460938 387 l 1
 553.17578125 289 l 1
 399.17578125 289 l 1
 369.932617188 239.446289062 367.2109375 185.875976562 383.717773438 164 c 0x78
EndSplineSet
EndChar

StartChar: currency
Encoding: 164 164 100
Width: 888
Flags: W
HStem: 48.3516 154.7<396.911 569.951> 621.251 153.851<453.327 623.434>
LayerCount: 2
Fore
SplineSet
329.8359375 412.151367188 m 0
 314.7734375 310.151367188 353.359375 203.051757812 480.009765625 203.051757812 c 0
 607.509765625 203.051757812 675.647460938 307.6015625 691.0859375 412.151367188 c 0
 706.524414062 516.701171875 665.86328125 621.250976562 541.763671875 621.250976562 c 0
 418.513671875 621.250976562 345.274414062 516.701171875 329.8359375 412.151367188 c 0
855.427734375 121.140625 m 1
 756.431640625 24.138671875 l 1
 673.061523438 113.756835938 l 1
 609.741210938 72.3662109375 535.467773438 48.3515625 457.166992188 48.3515625 c 0
 382.368164062 48.3515625 318.583007812 69.025390625 269.015625 105.0703125 c 1
 170.614257812 13.564453125 l 1
 86.115234375 98.236328125 l 1
 190.303710938 195.124023438 l 1
 157.62890625 255.221679688 145.155273438 329.995117188 157.287109375 412.150390625 c 0
 167.69140625 482.611328125 196.287109375 547.541015625 237.178710938 602.409179688 c 1
 152.3984375 693.543945312 l 1
 251.39453125 790.546875 l 1
 336.284179688 699.295898438 l 1
 403.552734375 747.060546875 483.22265625 775.1015625 564.482421875 775.1015625 c 0
 640.9765625 775.1015625 708.21875 750.685546875 759.833984375 708.611328125 c 1
 859.3125 801.119140625 l 1
 943.811523438 716.446289062 l 1
 834.649414062 614.934570312 l 1
 863.399414062 557.534179688 874.844726562 488.051757812 863.63671875 412.151367188 c 0
 852.319335938 335.508789062 820.770507812 265.291015625 775.1640625 207.418945312 c 1
 855.427734375 121.140625 l 1
EndSplineSet
EndChar

StartChar: yen
Encoding: 165 165 101
Width: 895
Flags: W
HStem: 0 21G<340 557.953> 107 130<235.997 355.801 589.997 715.801> 298 130<264.201 340.201 681.201 744.005> 805 20G<167.825 396.106 736.699 970.825>
LayerCount: 2
Fore
SplineSet
750.825195312 825 m 1
 970.825195312 825 l 1
 681.201171875 428 l 1
 763.201171875 428 l 1
 744.004882812 298 l 1
 599.004882812 298 l 1
 589.997070312 237 l 1
 734.997070312 237 l 1
 715.80078125 107 l 1
 570.80078125 107 l 1
 555 0 l 1
 340 0 l 1
 355.80078125 107 l 1
 216.80078125 107 l 1
 235.997070312 237 l 1
 374.997070312 237 l 1
 384.004882812 298 l 1
 245.004882812 298 l 1
 264.201171875 428 l 1
 340.201171875 428 l 1
 167.825195312 825 l 1
 387.825195312 825 l 1
 521.981445312 501 l 1
 750.825195312 825 l 1
EndSplineSet
EndChar

StartChar: brokenbar
Encoding: 166 166 102
Width: 297
Flags: W
HStem: 0 21G<72 227.953> 528 21G<149.968 305.921>
VStem: 72 279.994
LayerCount: 2
Fore
SplineSet
72 0 m 1
 121.025390625 332 l 1
 274.025390625 332 l 1
 225 0 l 1
 72 0 l 1
149.967773438 528 m 1
 198.994140625 860 l 1
 351.994140625 860 l 1
 302.967773438 528 l 1
 149.967773438 528 l 1
EndSplineSet
EndChar

StartChar: section
Encoding: 167 167 103
Width: 699
Flags: W
HStem: -275 148<238.789 373.077> 692 148<407.801 513.398>
LayerCount: 2
Fore
SplineSet
416.989257812 176 m 0
 456.02734375 153.986328125 513.338867188 219 518.393554688 260 c 1
 517.072265625 312 414.421875 364.130859375 364.442382812 389 c 0
 319.58984375 411.318359375 261.978515625 352 264.038085938 305 c 1
 259.802734375 256 349.600585938 214 416.989257812 176 c 0
279.391601562 -275 m 0
 46.3916015625 -275 42.595703125 -84 42.595703125 -84 c 1
 207.616210938 -50 l 1
 207.616210938 -50 219.24609375 -127 301.24609375 -127 c 0
 362.24609375 -127 387.0859375 -101 391.368164062 -72 c 0
 397.421875 -31 338.705078125 -2 257.611328125 38 c 0
 145.028320312 95 78.921875 162 95.755859375 276 c 1
 110.831054688 351 167.872070312 419 256.3359375 456 c 1
 202.685546875 499 181.069335938 549 193.177734375 631 c 0
 209.125976562 739 302.040039062 840 482.040039062 840 c 0
 695.040039062 840 696.608398438 661 696.608398438 661 c 1
 531.586914062 627 l 1
 531.586914062 627 536.185546875 692 460.185546875 692 c 0
 418.185546875 692 393.641601562 668 389.064453125 637 c 0
 383.157226562 597 443.727539062 567 524.8203125 527 c 0
 637.403320312 470 703.509765625 403 686.67578125 289 c 1
 671.600585938 214 614.559570312 146 526.095703125 109 c 1
 578.598632812 65 601.21484375 15 589.25390625 -66 c 0
 576.5546875 -152 499.391601562 -275 279.391601562 -275 c 0
EndSplineSet
EndChar

StartChar: diaeresis
Encoding: 168 168 104
Width: 544
Flags: W
HStem: 607 184<208.612 304.826 445.612 541.826>
VStem: 164.72 184<649.329 748.671> 401.72 184<649.329 748.671>
LayerCount: 2
Fore
SplineSet
507.3046875 791 m 0
 558.3046875 791 593.25 750 585.719726562 699 c 0
 578.188476562 648 531.133789062 607 480.133789062 607 c 0
 429.133789062 607 394.188476562 648 401.719726562 699 c 0
 409.25 750 456.3046875 791 507.3046875 791 c 0
270.3046875 791 m 0
 321.3046875 791 356.25 750 348.719726562 699 c 0
 341.188476562 648 294.133789062 607 243.133789062 607 c 0
 192.133789062 607 157.188476562 648 164.719726562 699 c 0
 172.25 750 219.3046875 791 270.3046875 791 c 0
EndSplineSet
EndChar

StartChar: copyright
Encoding: 169 169 105
Width: 973
Flags: W
HStem: -15 114<389.33 616.285> 206 107<514.705 643.542> 516 108<538.739 677.917> 726 114<478.047 704.953>
LayerCount: 2
Fore
SplineSet
602.196289062 516 m 0
 548.196289062 516 497.55078125 471 489.282226562 415 c 0
 480.716796875 357 518.219726562 313 572.219726562 313 c 0
 610.219726562 313 635.139648438 326 640.58203125 329 c 1
 650.857421875 297 661.017578125 271 671.291992188 239 c 1
 671.291992188 239 612.418945312 206 535.418945312 206 c 0
 422.418945312 206 331.004882812 298 347.986328125 413 c 0
 365.263671875 530 484.14453125 624 597.14453125 624 c 0
 682.14453125 624 720.418945312 592 722.975585938 589 c 1
 666.833984375 500 l 1
 666.833984375 500 635.196289062 516 602.196289062 516 c 0
233.838867188 412 m 0
 208.440429688 240 328.619140625 99 500.619140625 99 c 0
 673.619140625 99 835.440429688 240 860.838867188 412 c 0
 886.385742188 585 766.206054688 726 593.206054688 726 c 0
 421.206054688 726 259.385742188 585 233.838867188 412 c 0
119.838867188 412 m 0
 154.688476562 648 375.040039062 840 610.040039062 840 c 0
 846.040039062 840 1009.68847656 648 974.838867188 412 c 0
 940.13671875 177 719.78515625 -15 483.78515625 -15 c 0
 248.78515625 -15 85.13671875 177 119.838867188 412 c 0
EndSplineSet
EndChar

StartChar: ordfeminine
Encoding: 170 170 106
Width: 500
Flags: W
HStem: 504 93<292.417 376.676> 513 21G<403.753 514.706> 746 94<310.862 414.654> 810 20G<446.61 558.563>
LayerCount: 2
Fore
SplineSet
280.084960938 671 m 0xa0
 273.735351562 628 299.157226562 597 343.157226562 597 c 0
 386.157226562 597 421.735351562 628 428.084960938 671 c 0
 434.58203125 715 406.16015625 746 365.16015625 746 c 0
 324.16015625 746 286.58203125 715 280.084960938 671 c 0xa0
403.752929688 513 m 1x50
 409.069335938 549 l 1
 381.229492188 523 340.423828125 504 296.423828125 504 c 0
 203.423828125 504 149.499023438 579 163.084960938 671 c 0
 176.817382812 764 253.040039062 840 346.040039062 840 c 0xa0
 389.040039062 840 421.825195312 825 445.133789062 800 c 1
 449.563476562 830 l 1
 558.563476562 830 l 1
 511.752929688 513 l 1
 403.752929688 513 l 1x50
EndSplineSet
EndChar

StartChar: guillemotleft
Encoding: 171 171 107
Width: 649
Flags: W
HStem: 508 20G<309.914 350.994 559.914 600.994>
LayerCount: 2
Fore
SplineSet
504.634765625 28 m 1
 346.551757812 278 l 1
 578.467773438 528 l 1
 660.688476562 455 l 1
 496.551757812 278 l 1
 608.4140625 101 l 1
 504.634765625 28 l 1
254.634765625 28 m 1
 96.5517578125 278 l 1
 328.467773438 528 l 1
 410.688476562 455 l 1
 246.551757812 278 l 1
 358.4140625 101 l 1
 254.634765625 28 l 1
EndSplineSet
EndChar

StartChar: logicalnot
Encoding: 172 172 108
Width: 645
Flags: W
HStem: 288 85<121.08 545.528>
LayerCount: 2
Fore
SplineSet
608.090820312 197 m 1
 532.090820312 197 l 1
 545.528320312 288 l 1
 108.528320312 288 l 1
 121.080078125 373 l 1
 634.080078125 373 l 1
 608.090820312 197 l 1
EndSplineSet
EndChar

StartChar: uni00AD
Encoding: 173 173 109
Width: 392
Flags: W
HStem: 232 153<124.052 359.059>
VStem: 101.459 280.192
LayerCount: 2
Fore
SplineSet
124.051757812 385 m 1
 381.651367188 385 l 1
 359.05859375 232 l 1
 101.458984375 232 l 1
 124.051757812 385 l 1
EndSplineSet
EndChar

StartChar: registered
Encoding: 174 174 110
Width: 567
Flags: W
HStem: 392 60<273.87 432.91> 513 21G<290.253 340.206 387.841 462.253> 683 37<362.356 400.975> 780 60<315.69 474.595>
LayerCount: 2
Fore
SplineSet
354.235351562 628 m 1
 360.235351562 628 l 2
 377.235351562 628 397.530273438 630 401.221679688 655 c 0
 405.061523438 681 385.356445312 683 368.356445312 683 c 2
 362.356445312 683 l 1
 354.235351562 628 l 1
320.8203125 720 m 1
 393.8203125 720 l 2
 432.8203125 720 458.719726562 699 452.8125 659 c 0
 448.086914062 627 428.28125 608 401.952148438 599 c 1
 462.252929688 513 l 1
 400.252929688 513 l 1
 349.362304688 595 l 1
 337.252929688 513 l 1
 290.252929688 513 l 1
 320.8203125 720 l 1
210.315429688 615 m 0
 197.025390625 525 260.245117188 452 349.245117188 452 c 0
 441.245117188 452 525.025390625 525 538.315429688 615 c 0
 551.752929688 706 489.680664062 780 397.680664062 780 c 0
 308.680664062 780 223.752929688 706 210.315429688 615 c 0
150.315429688 615 m 0
 168.625976562 739 284.540039062 840 406.540039062 840 c 0
 531.540039062 840 616.625976562 739 598.315429688 615 c 0
 580.15234375 492 465.385742188 392 340.385742188 392 c 0
 218.385742188 392 132.15234375 492 150.315429688 615 c 0
EndSplineSet
EndChar

StartChar: macron
Encoding: 175 175 111
Width: 539
Flags: W
HStem: 634 120<176.841 567.121>
LayerCount: 2
Fore
SplineSet
176.840820312 754 m 1
 584.840820312 754 l 1
 567.12109375 634 l 1
 159.12109375 634 l 1
 176.840820312 754 l 1
EndSplineSet
EndChar

StartChar: degree
Encoding: 176 176 112
Width: 352
Flags: W
HStem: 669 57<249.932 323.169> 817 58<257.62 331.326>
VStem: 173.999 232
LayerCount: 2
Fore
SplineSet
246.999023438 772 m 0
 243.307617188 747 257.206054688 726 283.206054688 726 c 0
 308.206054688 726 330.307617188 747 333.999023438 772 c 0
 337.838867188 798 321.64453125 817 296.64453125 817 c 0
 272.64453125 817 250.838867188 798 246.999023438 772 c 0
173.999023438 772 m 0
 183.006835938 833 240.208984375 875 305.208984375 875 c 0
 370.208984375 875 415.006835938 833 405.999023438 772 c 0
 397.138671875 712 342.7890625 669 274.7890625 669 c 0
 205.7890625 669 165.138671875 712 173.999023438 772 c 0
EndSplineSet
EndChar

StartChar: plusminus
Encoding: 177 177 113
Width: 645
Flags: W
HStem: 0 153<88.5928 579> 363 153<142.196 299.604 475.196 632.604>
LayerCount: 2
Fore
SplineSet
88.5927734375 153 m 1
 601.592773438 153 l 1
 579 0 l 1
 66 0 l 1
 88.5927734375 153 l 1
429.71484375 208 m 1
 276.71484375 208 l 1
 299.603515625 363 l 1
 119.603515625 363 l 1
 142.196289062 516 l 1
 322.196289062 516 l 1
 345.084960938 671 l 1
 498.084960938 671 l 1
 475.196289062 516 l 1
 655.196289062 516 l 1
 632.603515625 363 l 1
 452.603515625 363 l 1
 429.71484375 208 l 1
EndSplineSet
EndChar

StartChar: uni00B2
Encoding: 178 178 114
Width: 373
Flags: W
HStem: 513 64<278.204 387.753> 778 62<257.792 330.52>
VStem: 136.753 276.602
LayerCount: 2
Fore
SplineSet
295.884765625 778 m 0
 260.884765625 778 229.876953125 717 229.876953125 717 c 1
 173.307617188 747 l 1
 173.307617188 747 218.040039062 840 305.040039062 840 c 0
 416.040039062 840 419.408203125 768 413.354492188 727 c 0
 402.279296875 652 278.204101562 577 278.204101562 577 c 1
 397.204101562 577 l 1
 387.752929688 513 l 1
 136.752929688 513 l 1
 139.411132812 531 l 1
 139.411132812 531 325.641601562 668 334.354492188 727 c 0
 336.125976562 739 338.884765625 778 295.884765625 778 c 0
EndSplineSet
EndChar

StartChar: uni00B3
Encoding: 179 179 115
Width: 350
Flags: W
HStem: 513 61.5605<223.591 309.854> 659.681 46.7393<266.756 318.178> 780.521 57.3799<249.482 323.685>
VStem: 145.845 245.038
LayerCount: 2
Fore
SplineSet
187.474609375 769.120117188 m 1
 187.474609375 769.120117188 213.590820312 837.900390625 301.37109375 837.900390625 c 0
 361.030273438 837.900390625 398.739257812 799.900390625 390.8828125 746.700195312 c 0
 387.067382812 720.860351562 373.509765625 701.100585938 354.4453125 687.799804688 c 1
 376.577148438 672.98046875 388.622070312 649.040039062 383.740234375 615.98046875 c 0
 374.874023438 555.940429688 319.512695312 513 252.252929688 513 c 0
 155.733398438 513 145.844726562 590.140625 145.844726562 590.140625 c 1
 216.734375 622.440429688 l 1
 216.734375 622.440429688 213.84375 574.560546875 260.963867188 574.560546875 c 0
 327.283203125 574.560546875 357.962890625 662.719726562 259.853515625 659.680664062 c 1
 266.755859375 706.419921875 l 1
 345.416015625 706.419921875 338.509765625 780.520507812 292.13671875 780.520507812 c 0
 252.6171875 780.520507812 239.673828125 741.759765625 239.673828125 741.759765625 c 1
 187.474609375 769.120117188 l 1
EndSplineSet
EndChar

StartChar: acute
Encoding: 180 180 116
Width: 405
Flags: W
HStem: 587 253
VStem: 153.551 303.008
LayerCount: 2
Fore
SplineSet
153.55078125 664 m 1
 382.540039062 840 l 1
 456.55859375 725 l 1
 198.180664062 587 l 1
 153.55078125 664 l 1
EndSplineSet
EndChar

StartChar: mu
Encoding: 181 181 117
Width: 696
Flags: W
HStem: -15 144<301.957 437.403> 493 20G<142.8 322.753 521.8 701.753>
LayerCount: 2
Fore
SplineSet
286.72265625 269 m 2
 271.807617188 168 293.048828125 129 367.048828125 129 c 0
 441.048828125 129 473.807617188 168 488.72265625 269 c 2
 524.752929688 513 l 1
 701.752929688 513 l 1
 659.373046875 226 l 2
 633.973632812 54 537.78515625 -15 345.78515625 -15 c 0
 308.081054688 -15 274.857421875 -12.3388671875 246.001953125 -6.759765625 c 1
 227.360351562 -133 l 1
 50.3603515625 -133 l 1
 145.752929688 513 l 1
 322.752929688 513 l 1
 286.72265625 269 l 2
EndSplineSet
EndChar

StartChar: paragraph
Encoding: 182 182 118
Width: 757
Flags: W
HStem: 0 21G<424 529.953 588 693.953> 721 104<633.468 694.468>
LayerCount: 2
Fore
SplineSet
588 0 m 1
 694.467773438 721 l 1
 633.467773438 721 l 1
 527 0 l 1
 424 0 l 1
 469.186523438 306 l 1
 373.186523438 306 l 2
 212.186523438 306 129.64453125 431 150.318359375 571 c 0
 171.138671875 712 288.825195312 825 449.825195312 825 c 2
 812.825195312 825 l 1
 691 0 l 1
 588 0 l 1
EndSplineSet
EndChar

StartChar: periodcentered
Encoding: 183 183 119
Width: 299
Flags: W
HStem: 251 176<154.911 244.208>
VStem: 114.56 170<290.062 387.938>
LayerCount: 2
Fore
SplineSet
114.559570312 339 m 0
 121.647460938 387 166.553710938 427 212.553710938 427 c 0
 258.553710938 427 291.647460938 387 284.559570312 339 c 0
 277.470703125 291 232.564453125 251 186.564453125 251 c 0
 140.564453125 251 107.470703125 291 114.559570312 339 c 0
EndSplineSet
EndChar

StartChar: cedilla
Encoding: 184 184 120
Width: 570
Flags: W
HStem: -294 90<124.928 240.489> -120 57<221.197 239.629>
VStem: 22.3418 312.793
LayerCount: 2
Fore
SplineSet
102.31640625 -157 m 1
 102.31640625 -157 131.375976562 -204 177.375976562 -204 c 0
 273.08203125 -204 273.780273438 -120 177.780273438 -120 c 0
 141.780273438 -120 125.451171875 -129 125.451171875 -129 c 1
 186.338867188 26 l 1
 253.090820312 4 l 1
 221.197265625 -63 l 1
 276.197265625 -63 345.32421875 -96 335.134765625 -165 c 0
 325.83203125 -228 275.0859375 -294 164.0859375 -294 c 0
 74.0859375 -294 22.341796875 -211 22.341796875 -211 c 1
 102.31640625 -157 l 1
EndSplineSet
EndChar

StartChar: uni00B9
Encoding: 185 185 121
Width: 247
Flags: W
HStem: 513 312
VStem: 165.424 140.901
LayerCount: 2
Fore
SplineSet
165.423828125 697 m 1
 175.908203125 768 l 1
 272.325195312 825 l 1
 306.325195312 825 l 1
 260.252929688 513 l 1
 189.252929688 513 l 1
 221.296875 730 l 1
 165.423828125 697 l 1
EndSplineSet
EndChar

StartChar: ordmasculine
Encoding: 186 186 122
Width: 500
Flags: W
HStem: 504 93<288.916 394.52> 746 94<306.451 409.364>
LayerCount: 2
Fore
SplineSet
275.584960938 671 m 0
 269.235351562 628 293.657226562 597 338.657226562 597 c 0
 381.657226562 597 417.235351562 628 423.584960938 671 c 0
 430.08203125 715 401.66015625 746 360.66015625 746 c 0
 319.66015625 746 282.08203125 715 275.584960938 671 c 0
158.584960938 671 m 0
 173.204101562 770 268.540039062 840 375.540039062 840 c 0
 480.540039062 840 554.204101562 770 539.584960938 671 c 0
 525.260742188 574 434.923828125 504 325.923828125 504 c 0
 210.923828125 504 144.260742188 574 158.584960938 671 c 0
EndSplineSet
EndChar

StartChar: guillemotright
Encoding: 187 187 123
Width: 649
Flags: W
HStem: 508 20G<198.035 239.114 448.035 489.114>
LayerCount: 2
Fore
SplineSet
320.4140625 101 m 1
 484.551757812 278 l 1
 372.688476562 455 l 1
 476.467773438 528 l 1
 634.551757812 278 l 1
 402.634765625 28 l 1
 320.4140625 101 l 1
226.467773438 528 m 1
 384.551757812 278 l 1
 152.634765625 28 l 1
 70.4140625 101 l 1
 234.551757812 278 l 1
 122.688476562 455 l 1
 226.467773438 528 l 1
EndSplineSet
EndChar

StartChar: onequarter
Encoding: 188 188 124
Width: 819
Flags: W
HStem: 0 21G<92 224.59 611 716.953> 101 96<554.091 625.914 743.091 783.914> 805 20G<274.963 360.825 679.235 811.825>
LayerCount: 2
Fore
SplineSet
660.321289062 334 m 1
 659.321289062 334 l 1
 554.090820312 197 l 1
 640.090820312 197 l 1
 660.321289062 334 l 1
743.090820312 197 m 1
 798.090820312 197 l 1
 783.9140625 101 l 1
 728.9140625 101 l 1
 714 0 l 1
 611 0 l 1
 625.9140625 101 l 1
 389.9140625 101 l 1
 394.787109375 134 l 1
 676.879882812 480 l 1
 784.879882812 480 l 1
 743.090820312 197 l 1
811.825195312 825 m 1
 210 0 l 1
 92 0 l 1
 693.825195312 825 l 1
 811.825195312 825 l 1
143.735351562 628 m 1
 159.831054688 737 l 1
 308.825195312 825 l 1
 360.825195312 825 l 1
 289.9453125 345 l 1
 180.9453125 345 l 1
 230.4140625 680 l 1
 143.735351562 628 l 1
EndSplineSet
EndChar

StartChar: onehalf
Encoding: 189 189 125
Width: 888
Flags: W
HStem: 0 95<675.028 837> 391 91<658.141 746.743> 805 20G<274.963 360.825 679.235 811.825>
LayerCount: 2
Fore
SplineSet
701.73828125 391 m 0
 650.73828125 391 604.448242188 301 604.448242188 301 c 1
 520.797851562 344 l 1
 520.797851562 344 587.17578125 482 715.17578125 482 c 0
 878.17578125 482 883.375 375 874.663085938 316 c 0
 858.271484375 205 675.028320312 95 675.028320312 95 c 1
 851.028320312 95 l 1
 837 0 l 1
 468 0 l 1
 471.987304688 27 l 1
 471.987304688 27 745.66796875 228 758.663085938 316 c 0
 761.172851562 333 765.73828125 391 701.73828125 391 c 0
811.825195312 825 m 1
 210 0 l 1
 92 0 l 1
 693.825195312 825 l 1
 811.825195312 825 l 1
143.735351562 628 m 1
 159.831054688 737 l 1
 308.825195312 825 l 1
 360.825195312 825 l 1
 289.9453125 345 l 1
 180.9453125 345 l 1
 230.4140625 680 l 1
 143.735351562 628 l 1
EndSplineSet
EndChar

StartChar: threequarters
Encoding: 190 190 126
Width: 920
Flags: W
HStem: 0 21G<197.148 329.738 709.148 815.102> 101 96<652.239 724.062 841.239 882.062> 342 91.5293<236.591 348.456> 560.09 69.4951<295.213 363.256> 739.76 85.3145<281.065 375.124>
LayerCount: 2
Fore
SplineSet
177.334960938 722.809570312 m 1
 177.334960938 722.809570312 216.1640625 825.07421875 346.6796875 825.07421875 c 0
 435.384765625 825.07421875 491.452148438 768.57421875 479.771484375 689.474609375 c 0
 474.098632812 651.0546875 453.939453125 621.674804688 425.595703125 601.899414062 c 1
 458.501953125 579.864257812 476.41015625 544.26953125 469.151367188 495.114257812 c 0
 455.96875 405.844726562 373.65625 342 273.650390625 342 c 0
 130.140625 342 115.438476562 456.694335938 115.438476562 456.694335938 c 1
 220.838867188 504.719726562 l 1
 220.838867188 504.719726562 216.541015625 433.529296875 286.6015625 433.529296875 c 0
 385.20703125 433.529296875 430.823242188 564.609375 284.951171875 560.08984375 c 1
 295.212890625 629.584960938 l 1
 412.16796875 629.584960938 401.90234375 739.759765625 332.953125 739.759765625 c 0
 274.19140625 739.759765625 254.947265625 682.129882812 254.947265625 682.129882812 c 1
 177.334960938 722.809570312 l 1
758.469726562 334 m 1
 757.469726562 334 l 1
 652.239257812 197 l 1
 738.239257812 197 l 1
 758.469726562 334 l 1
841.239257812 197 m 1
 896.239257812 197 l 1
 882.0625 101 l 1
 827.0625 101 l 1
 812.1484375 0 l 1
 709.1484375 0 l 1
 724.0625 101 l 1
 488.0625 101 l 1
 492.935546875 134 l 1
 775.028320312 480 l 1
 883.028320312 480 l 1
 841.239257812 197 l 1
916.973632812 825 m 1
 315.1484375 0 l 1
 197.1484375 0 l 1
 798.973632812 825 l 1
 916.973632812 825 l 1
EndSplineSet
EndChar

StartChar: questiondown
Encoding: 191 191 127
Width: 672
Flags: W
HStem: -15 157<316.612 438.312> 609 176<405.276 494.573>
LayerCount: 2
Fore
SplineSet
294.462890625 423 m 1
 335.450195312 450 334.67578125 462.352539062 348.955078125 555 c 1
 513.955078125 555 l 1
 491.509765625 403 482.8984375 365 434.763671875 337 c 0
 368.004882812 298 310.561523438 295 300.077148438 224 c 0
 292.989257812 176 323.96875 142 368.96875 142 c 0
 440.96875 142 484.829101562 202 502.178710938 245 c 1
 638.694335938 174 l 1
 637.956054688 169 567.78515625 -15 344.78515625 -15 c 0
 194.78515625 -15 75.2568359375 83 96.0771484375 224 c 0
 110.548828125 322 192.409179688 382 294.462890625 423 c 1
534.923828125 697 m 0
 527.8359375 649 482.9296875 609 436.9296875 609 c 0
 390.9296875 609 357.8359375 649 364.923828125 697 c 0
 372.01171875 745 416.918945312 785 462.918945312 785 c 0
 508.918945312 785 542.01171875 745 534.923828125 697 c 0
EndSplineSet
EndChar

StartChar: Agrave
Encoding: 192 192 128
Width: 930
Flags: W
HStem: 0 21G<45 257.226 678.438 885> 165 165<419.73 605.73> 805 20G<487.823 677.969>
LayerCount: 2
Fore
SplineSet
490.112304688 1152 m 1
 667.123046875 976 l 1
 599.752929688 899 l 1
 382.130859375 1037 l 1
 490.112304688 1152 l 1
672.825195312 825 m 1
 885 0 l 1
 683 0 l 1
 645.365234375 165 l 1
 331.365234375 165 l 1
 247 0 l 1
 45 0 l 1
 498.825195312 825 l 1
 672.825195312 825 l 1
605.73046875 330 m 1
 547.169921875 570 l 1
 419.73046875 330 l 1
 605.73046875 330 l 1
EndSplineSet
EndChar

StartChar: Aacute
Encoding: 193 193 129
Width: 930
Flags: W
HStem: 0 21G<45 257.226 678.438 885> 165 165<419.73 605.73> 805 20G<487.823 677.969>
LayerCount: 2
Fore
SplineSet
550.123046875 976 m 1
 779.112304688 1152 l 1
 853.130859375 1037 l 1
 594.752929688 899 l 1
 550.123046875 976 l 1
672.825195312 825 m 1
 885 0 l 1
 683 0 l 1
 645.365234375 165 l 1
 331.365234375 165 l 1
 247 0 l 1
 45 0 l 1
 498.825195312 825 l 1
 672.825195312 825 l 1
605.73046875 330 m 1
 547.169921875 570 l 1
 419.73046875 330 l 1
 605.73046875 330 l 1
EndSplineSet
EndChar

StartChar: Acircumflex
Encoding: 194 194 130
Width: 930
Flags: W
HStem: 0 21G<45 257.226 678.438 885> 165 165<419.73 605.73> 805 20G<487.823 677.969>
LayerCount: 2
Fore
SplineSet
390.190429688 990 m 1
 635.112304688 1152 l 1
 832.190429688 990 l 1
 750.752929688 899 l 1
 614.291015625 1011 l 1
 444.752929688 899 l 1
 390.190429688 990 l 1
672.825195312 825 m 1
 885 0 l 1
 683 0 l 1
 645.365234375 165 l 1
 331.365234375 165 l 1
 247 0 l 1
 45 0 l 1
 498.825195312 825 l 1
 672.825195312 825 l 1
605.73046875 330 m 1
 547.169921875 570 l 1
 419.73046875 330 l 1
 605.73046875 330 l 1
EndSplineSet
EndChar

StartChar: Atilde
Encoding: 195 195 131
Width: 930
Flags: W
HStem: 0 21G<45 257.226 678.438 885> 165 165<419.73 605.73> 805 20G<487.823 677.969> 927 126<623.48 741.188> 973 126<487.985 614.509>
LayerCount: 2
Fore
SplineSet
523.6796875 973 m 0xe8
 491.6796875 973 471.887695312 927 471.887695312 927 c 1
 370.887695312 927 l 1xf0
 370.887695312 927 422.286132812 1099 532.286132812 1099 c 0xe8
 571.286132812 1099 664.493164062 1053 705.493164062 1053 c 0xf0
 737.493164062 1053 757.286132812 1099 757.286132812 1099 c 1
 858.286132812 1099 l 1xe8
 858.286132812 1099 806.887695312 927 696.887695312 927 c 0xf0
 657.887695312 927 587.8828125 973 523.6796875 973 c 0xe8
672.825195312 825 m 1
 885 0 l 1
 683 0 l 1
 645.365234375 165 l 1
 331.365234375 165 l 1
 247 0 l 1
 45 0 l 1
 498.825195312 825 l 1
 672.825195312 825 l 1
605.73046875 330 m 1
 547.169921875 570 l 1
 419.73046875 330 l 1
 605.73046875 330 l 1
EndSplineSet
EndChar

StartChar: Adieresis
Encoding: 196 196 132
Width: 930
Flags: W
HStem: 0 21G<45 257.226 678.438 885> 165 165<419.73 605.73> 805 20G<487.823 677.969> 919 184<447.184 543.399 684.184 780.399>
VStem: 403.291 184<961.329 1060.67> 640.291 184<961.329 1060.67>
LayerCount: 2
Fore
SplineSet
745.876953125 1103 m 0
 796.876953125 1103 831.822265625 1062 824.291015625 1011 c 0
 816.760742188 960 769.706054688 919 718.706054688 919 c 0
 667.706054688 919 632.760742188 960 640.291015625 1011 c 0
 647.822265625 1062 694.876953125 1103 745.876953125 1103 c 0
508.876953125 1103 m 0
 559.876953125 1103 594.822265625 1062 587.291015625 1011 c 0
 579.760742188 960 532.706054688 919 481.706054688 919 c 0
 430.706054688 919 395.760742188 960 403.291015625 1011 c 0
 410.822265625 1062 457.876953125 1103 508.876953125 1103 c 0
672.825195312 825 m 1
 885 0 l 1
 683 0 l 1
 645.365234375 165 l 1
 331.365234375 165 l 1
 247 0 l 1
 45 0 l 1
 498.825195312 825 l 1
 672.825195312 825 l 1
605.73046875 330 m 1
 547.169921875 570 l 1
 419.73046875 330 l 1
 605.73046875 330 l 1
EndSplineSet
EndChar

StartChar: Aring
Encoding: 197 197 133
Width: 930
Flags: W
HStem: 0 21G<45 257.226 678.438 885> 165 165<419.73 605.73> 805 20G<487.823 677.969> 902 79<567.587 657.688> 1107 80<579.414 670.268>
LayerCount: 2
Fore
SplineSet
558.3125 1045 m 0
 553.143554688 1010 573.861328125 981 609.861328125 981 c 0
 644.861328125 981 675.143554688 1010 680.3125 1045 c 0
 685.333007812 1079 662.467773438 1107 628.467773438 1107 c 0
 595.467773438 1107 563.333007812 1079 558.3125 1045 c 0
458.3125 1045 m 0
 470.568359375 1128 550.28125 1187 640.28125 1187 c 0
 731.28125 1187 792.568359375 1128 780.3125 1045 c 0
 767.908203125 961 692.1953125 902 598.1953125 902 c 0
 502.1953125 902 445.908203125 961 458.3125 1045 c 0
672.825195312 825 m 1
 885 0 l 1
 683 0 l 1
 645.365234375 165 l 1
 331.365234375 165 l 1
 247 0 l 1
 45 0 l 1
 498.825195312 825 l 1
 672.825195312 825 l 1
605.73046875 330 m 1
 547.169921875 570 l 1
 419.73046875 330 l 1
 605.73046875 330 l 1
EndSplineSet
EndChar

StartChar: AE
Encoding: 198 198 134
Width: 1282
Flags: W
HStem: 0 165<895.99 1226.62> 165 165<526.605 660.99> 331 165<944.868 1260.5> 660 165<969.085 1324.08>
LayerCount: 2
Fore
SplineSet
730.393554688 635 m 1x70
 526.60546875 330 l 1
 685.35546875 330 l 1
 730.393554688 635 l 1x70
419.740234375 165 m 1
 307.875 0 l 1
 55.375 0 l 1
 648.450195312 825 l 1
 1348.45019531 825 l 1
 1324.08496094 660 l 1
 969.084960938 660 l 1
 944.868164062 496 l 1
 1284.86816406 496 l 1
 1260.50292969 331 l 1
 920.502929688 331 l 1
 895.990234375 165 l 1xb0
 1250.99023438 165 l 1x70
 1226.625 0 l 1
 636.625 0 l 1xb0
 660.990234375 165 l 1
 419.740234375 165 l 1
EndSplineSet
EndChar

StartChar: Ccedilla
Encoding: 199 199 135
Width: 798
Flags: W
HStem: -294 90<318.428 433.989> -120 57<414.697 433.129> -15 185<441.3 684.271> 655 185<506.451 780.505>
LayerCount: 2
Fore
SplineSet
498.78515625 -15 m 0
 478.78515625 -15 458.932617188 -14 439.375976562 -11 c 1
 414.697265625 -63 l 1
 469.697265625 -63 538.82421875 -96 528.634765625 -165 c 0
 519.33203125 -228 468.5859375 -294 357.5859375 -294 c 0
 267.5859375 -294 215.841796875 -211 215.841796875 -211 c 1
 295.81640625 -157 l 1
 295.81640625 -157 324.875976562 -204 370.875976562 -204 c 0
 466.58203125 -204 467.280273438 -120 371.280273438 -120 c 0
 335.280273438 -120 318.951171875 -129 318.951171875 -129 c 1
 369.73828125 5 l 1
 201.860351562 60 86.486328125 220 114.69140625 411 c 0
 149.688476562 648 391.040039062 840 625.040039062 840 c 0
 804.040039062 840 857.133789062 800 857.133789062 800 c 1
 789.815429688 615 l 1
 789.815429688 615 722.721679688 655 626.721679688 655 c 0
 437.721679688 655 335.229492188 523 318.986328125 413 c 0
 302.595703125 302 366.103515625 170 555.103515625 170 c 0
 651.103515625 170 730.009765625 210 730.009765625 210 c 1
 742.69140625 25 l 1
 742.69140625 25 677.78515625 -15 498.78515625 -15 c 0
EndSplineSet
EndChar

StartChar: Egrave
Encoding: 200 200 136
Width: 613
Flags: W
HStem: 0 165<285.865 545.5> 331 165<334.743 582.378> 660 165<358.96 642.96>
LayerCount: 2
Fore
SplineSet
667.325195312 825 m 1
 642.959960938 660 l 1
 358.959960938 660 l 1
 334.743164062 496 l 1
 606.743164062 496 l 1
 582.377929688 331 l 1
 310.377929688 331 l 1
 285.865234375 165 l 1
 569.865234375 165 l 1
 545.5 0 l 1
 73.5 0 l 1
 195.325195312 825 l 1
 667.325195312 825 l 1
328.612304688 1152 m 1
 505.623046875 976 l 1
 438.252929688 899 l 1
 220.630859375 1037 l 1
 328.612304688 1152 l 1
EndSplineSet
EndChar

StartChar: Eacute
Encoding: 201 201 137
Width: 612
Flags: W
HStem: 0 165<282.365 542> 331 165<331.243 578.878> 660 165<355.46 639.46>
LayerCount: 2
Fore
SplineSet
663.825195312 825 m 1
 639.459960938 660 l 1
 355.459960938 660 l 1
 331.243164062 496 l 1
 603.243164062 496 l 1
 578.877929688 331 l 1
 306.877929688 331 l 1
 282.365234375 165 l 1
 566.365234375 165 l 1
 542 0 l 1
 70 0 l 1
 191.825195312 825 l 1
 663.825195312 825 l 1
326.123046875 976 m 1
 555.112304688 1152 l 1
 629.130859375 1037 l 1
 370.752929688 899 l 1
 326.123046875 976 l 1
EndSplineSet
EndChar

StartChar: Ecircumflex
Encoding: 202 202 138
Width: 612
Flags: W
HStem: 0 165<282.365 542> 331 165<331.243 578.878> 660 165<355.46 639.46>
LayerCount: 2
Fore
SplineSet
663.825195312 825 m 1
 639.459960938 660 l 1
 355.459960938 660 l 1
 331.243164062 496 l 1
 603.243164062 496 l 1
 578.877929688 331 l 1
 306.877929688 331 l 1
 282.365234375 165 l 1
 566.365234375 165 l 1
 542 0 l 1
 70 0 l 1
 191.825195312 825 l 1
 663.825195312 825 l 1
225.190429688 990 m 1
 470.112304688 1152 l 1
 667.190429688 990 l 1
 585.752929688 899 l 1
 449.291015625 1011 l 1
 279.752929688 899 l 1
 225.190429688 990 l 1
EndSplineSet
EndChar

StartChar: Edieresis
Encoding: 203 203 139
Width: 612
Flags: W
HStem: 0 165<282.365 542> 331 165<331.243 578.878> 660 165<355.46 639.46> 919 184<282.184 378.399 519.184 615.399>
VStem: 238.291 184<961.329 1060.67> 475.291 184<961.329 1060.67>
LayerCount: 2
Fore
SplineSet
663.825195312 825 m 1
 639.459960938 660 l 1
 355.459960938 660 l 1
 331.243164062 496 l 1
 603.243164062 496 l 1
 578.877929688 331 l 1
 306.877929688 331 l 1
 282.365234375 165 l 1
 566.365234375 165 l 1
 542 0 l 1
 70 0 l 1
 191.825195312 825 l 1
 663.825195312 825 l 1
580.876953125 1103 m 0
 631.876953125 1103 666.822265625 1062 659.291015625 1011 c 0
 651.760742188 960 604.706054688 919 553.706054688 919 c 0
 502.706054688 919 467.760742188 960 475.291015625 1011 c 0
 482.822265625 1062 529.876953125 1103 580.876953125 1103 c 0
343.876953125 1103 m 0
 394.876953125 1103 429.822265625 1062 422.291015625 1011 c 0
 414.760742188 960 367.706054688 919 316.706054688 919 c 0
 265.706054688 919 230.760742188 960 238.291015625 1011 c 0
 245.822265625 1062 292.876953125 1103 343.876953125 1103 c 0
EndSplineSet
EndChar

StartChar: Igrave
Encoding: 204 204 140
Width: 444
Flags: W
HStem: 0 21G<199 389.953> 805 20G<317.872 508.825>
VStem: 199 309.825
LayerCount: 2
Fore
SplineSet
508.825195312 825 m 1
 387 0 l 1
 199 0 l 1
 320.825195312 825 l 1
 508.825195312 825 l 1
318.112304688 1152 m 1
 495.123046875 976 l 1
 427.752929688 899 l 1
 210.130859375 1037 l 1
 318.112304688 1152 l 1
EndSplineSet
EndChar

StartChar: Iacute
Encoding: 205 205 141
Width: 402
Flags: W
HStem: 0 21G<58 248.953> 805 20G<176.872 367.825>
LayerCount: 2
Fore
SplineSet
367.825195312 825 m 1
 246 0 l 1
 58 0 l 1
 179.825195312 825 l 1
 367.825195312 825 l 1
198.123046875 976 m 1
 427.112304688 1152 l 1
 501.130859375 1037 l 1
 242.752929688 899 l 1
 198.123046875 976 l 1
EndSplineSet
EndChar

StartChar: Icircumflex
Encoding: 206 206 142
Width: 518
Flags: W
HStem: 0 21G<165 355.953> 805 20G<283.872 474.825>
LayerCount: 2
Fore
SplineSet
474.825195312 825 m 1
 353 0 l 1
 165 0 l 1
 286.825195312 825 l 1
 474.825195312 825 l 1
184.190429688 990 m 1
 429.112304688 1152 l 1
 626.190429688 990 l 1
 544.752929688 899 l 1
 408.291015625 1011 l 1
 238.752929688 899 l 1
 184.190429688 990 l 1
EndSplineSet
EndChar

StartChar: Idieresis
Encoding: 207 207 143
Width: 498
Flags: W
HStem: 0 21G<154.5 345.453> 805 20G<273.372 464.325> 919 184<231.684 327.899 468.684 564.899>
VStem: 187.791 184<961.329 1060.67> 424.791 184<961.329 1060.67>
LayerCount: 2
Fore
SplineSet
464.325195312 825 m 1
 342.5 0 l 1
 154.5 0 l 1
 276.325195312 825 l 1
 464.325195312 825 l 1
530.376953125 1103 m 0
 581.376953125 1103 616.322265625 1062 608.791015625 1011 c 0
 601.260742188 960 554.206054688 919 503.206054688 919 c 0
 452.206054688 919 417.260742188 960 424.791015625 1011 c 0
 432.322265625 1062 479.376953125 1103 530.376953125 1103 c 0
293.376953125 1103 m 0
 344.376953125 1103 379.322265625 1062 371.791015625 1011 c 0
 364.260742188 960 317.206054688 919 266.206054688 919 c 0
 215.206054688 919 180.260742188 960 187.791015625 1011 c 0
 195.322265625 1062 242.376953125 1103 293.376953125 1103 c 0
EndSplineSet
EndChar

StartChar: Eth
Encoding: 208 208 144
Width: 851
Flags: W
HStem: 0 168<351.808 488.353> 657 168<424.018 551.604>
LayerCount: 2
Fore
SplineSet
653.838867188 412 m 0
 675.102539062 556 627.017578125 657 424.017578125 657 c 1
 399.208984375 489 l 1
 509.810546875 461.194335938 l 1
 496.576171875 371.572265625 l 1
 376.616210938 336 l 1
 351.807617188 168 l 1
 554.807617188 168 632.575195312 268 653.838867188 412 c 0
211.208984375 489 m 1
 260.825195312 825 l 1
 499.825195312 825 l 2
 725.825195312 825 890.426757812 653 854.986328125 413 c 0
 819.3984375 172 605 0 378 0 c 2
 139 0 l 1
 188.616210938 336 l 1
 111.869140625 371.572265625 l 1
 125.103515625 461.194335938 l 1
 211.208984375 489 l 1
EndSplineSet
EndChar

StartChar: Ntilde
Encoding: 209 209 145
Width: 856
Flags: W
HStem: 0 21G<75 265.953 759.519 783.953> 805 20G<193.872 218.154 711.778 902.825> 927 126<586.48 704.188> 973 126<450.985 577.509>
LayerCount: 2
Fore
SplineSet
486.6796875 973 m 0xd0
 454.6796875 973 434.887695312 927 434.887695312 927 c 1
 333.887695312 927 l 1xe0
 333.887695312 927 385.286132812 1099 495.286132812 1099 c 0xd0
 534.286132812 1099 627.493164062 1053 668.493164062 1053 c 0xe0
 700.493164062 1053 720.286132812 1099 720.286132812 1099 c 1
 821.286132812 1099 l 1xd0
 821.286132812 1099 769.887695312 927 659.887695312 927 c 0xe0
 620.887695312 927 550.8828125 973 486.6796875 973 c 0xd0
75 0 m 1
 196.825195312 825 l 1
 650.06640625 400 l 1
 714.825195312 825 l 1
 902.825195312 825 l 1
 781 0 l 1
 325.611328125 424 l 1
 263 0 l 1
 75 0 l 1
EndSplineSet
EndChar

StartChar: Ograve
Encoding: 210 210 146
Width: 952
Flags: W
HStem: -15 182<407.192 596.845> 659 181<475.662 664.198>
LayerCount: 2
Fore
SplineSet
324.486328125 413 m 0
 306.323242188 290 347.16015625 167 501.16015625 167 c 0
 651.16015625 167 731.323242188 290 749.486328125 413 c 0
 767.649414062 536 719.8125 659 573.8125 659 c 0
 428.8125 659 342.649414062 536 324.486328125 413 c 0
121.486328125 413 m 0
 157.07421875 654 373.540039062 840 600.540039062 840 c 0
 829.540039062 840 988.07421875 654 952.486328125 413 c 0
 916.8984375 172 711.28515625 -15 474.28515625 -15 c 0
 230.28515625 -15 85.8984375 172 121.486328125 413 c 0
500.612304688 1152 m 1
 677.623046875 976 l 1
 610.252929688 899 l 1
 392.630859375 1037 l 1
 500.612304688 1152 l 1
EndSplineSet
EndChar

StartChar: Oacute
Encoding: 211 211 147
Width: 952
Flags: W
HStem: -15 182<407.192 596.845> 659 181<475.662 664.198>
LayerCount: 2
Fore
SplineSet
324.486328125 413 m 0
 306.323242188 290 347.16015625 167 501.16015625 167 c 0
 651.16015625 167 731.323242188 290 749.486328125 413 c 0
 767.649414062 536 719.8125 659 573.8125 659 c 0
 428.8125 659 342.649414062 536 324.486328125 413 c 0
121.486328125 413 m 0
 157.07421875 654 373.540039062 840 600.540039062 840 c 0
 829.540039062 840 988.07421875 654 952.486328125 413 c 0
 916.8984375 172 711.28515625 -15 474.28515625 -15 c 0
 230.28515625 -15 85.8984375 172 121.486328125 413 c 0
521.623046875 976 m 1
 750.612304688 1152 l 1
 824.630859375 1037 l 1
 566.252929688 899 l 1
 521.623046875 976 l 1
EndSplineSet
EndChar

StartChar: Ocircumflex
Encoding: 212 212 148
Width: 952
Flags: W
HStem: -15 182<407.192 596.845> 659 181<475.662 664.198>
LayerCount: 2
Fore
SplineSet
324.486328125 413 m 0
 306.323242188 290 347.16015625 167 501.16015625 167 c 0
 651.16015625 167 731.323242188 290 749.486328125 413 c 0
 767.649414062 536 719.8125 659 573.8125 659 c 0
 428.8125 659 342.649414062 536 324.486328125 413 c 0
121.486328125 413 m 0
 157.07421875 654 373.540039062 840 600.540039062 840 c 0
 829.540039062 840 988.07421875 654 952.486328125 413 c 0
 916.8984375 172 711.28515625 -15 474.28515625 -15 c 0
 230.28515625 -15 85.8984375 172 121.486328125 413 c 0
400.690429688 990 m 1
 645.612304688 1152 l 1
 842.690429688 990 l 1
 761.252929688 899 l 1
 624.791015625 1011 l 1
 455.252929688 899 l 1
 400.690429688 990 l 1
EndSplineSet
EndChar

StartChar: Otilde
Encoding: 213 213 149
Width: 952
Flags: W
HStem: -15 182<407.192 596.845> 659 181<475.662 664.198> 927 126<633.98 751.688> 973 126<498.485 625.009>
LayerCount: 2
Fore
SplineSet
534.1796875 973 m 0xd0
 502.1796875 973 482.387695312 927 482.387695312 927 c 1
 381.387695312 927 l 1xe0
 381.387695312 927 432.786132812 1099 542.786132812 1099 c 0xd0
 581.786132812 1099 674.993164062 1053 715.993164062 1053 c 0xe0
 747.993164062 1053 767.786132812 1099 767.786132812 1099 c 1
 868.786132812 1099 l 1xd0
 868.786132812 1099 817.387695312 927 707.387695312 927 c 0xe0
 668.387695312 927 598.3828125 973 534.1796875 973 c 0xd0
324.486328125 413 m 0
 306.323242188 290 347.16015625 167 501.16015625 167 c 0
 651.16015625 167 731.323242188 290 749.486328125 413 c 0
 767.649414062 536 719.8125 659 573.8125 659 c 0
 428.8125 659 342.649414062 536 324.486328125 413 c 0
121.486328125 413 m 0
 157.07421875 654 373.540039062 840 600.540039062 840 c 0
 829.540039062 840 988.07421875 654 952.486328125 413 c 0
 916.8984375 172 711.28515625 -15 474.28515625 -15 c 0
 230.28515625 -15 85.8984375 172 121.486328125 413 c 0
EndSplineSet
EndChar

StartChar: Odieresis
Encoding: 214 214 150
Width: 952
Flags: W
HStem: -15 182<407.192 596.845> 659 181<475.662 664.198> 919 184<458.684 554.899 695.684 791.899>
VStem: 414.791 184<961.329 1060.67> 651.791 184<961.329 1060.67>
LayerCount: 2
Fore
SplineSet
324.486328125 413 m 0
 306.323242188 290 347.16015625 167 501.16015625 167 c 0
 651.16015625 167 731.323242188 290 749.486328125 413 c 0
 767.649414062 536 719.8125 659 573.8125 659 c 0
 428.8125 659 342.649414062 536 324.486328125 413 c 0
121.486328125 413 m 0
 157.07421875 654 373.540039062 840 600.540039062 840 c 0
 829.540039062 840 988.07421875 654 952.486328125 413 c 0
 916.8984375 172 711.28515625 -15 474.28515625 -15 c 0
 230.28515625 -15 85.8984375 172 121.486328125 413 c 0
757.376953125 1103 m 0
 808.376953125 1103 843.322265625 1062 835.791015625 1011 c 0
 828.260742188 960 781.206054688 919 730.206054688 919 c 0
 679.206054688 919 644.260742188 960 651.791015625 1011 c 0
 659.322265625 1062 706.376953125 1103 757.376953125 1103 c 0
520.376953125 1103 m 0
 571.376953125 1103 606.322265625 1062 598.791015625 1011 c 0
 591.260742188 960 544.206054688 919 493.206054688 919 c 0
 442.206054688 919 407.260742188 960 414.791015625 1011 c 0
 422.322265625 1062 469.376953125 1103 520.376953125 1103 c 0
EndSplineSet
EndChar

StartChar: multiply
Encoding: 215 215 151
Width: 629
Flags: W
LayerCount: 2
Fore
SplineSet
613.688476562 262 m 1
 490.741210938 154 l 1
 360.333984375 307 l 1
 184.741210938 154 l 1
 92.8369140625 263 l 1
 267.282226562 415 l 1
 137.875 568 l 1
 261.67578125 675 l 1
 391.229492188 523 l 1
 566.67578125 675 l 1
 658.727539062 567 l 1
 483.133789062 414 l 1
 613.688476562 262 l 1
EndSplineSet
EndChar

StartChar: Oslash
Encoding: 216 216 152
Width: 952
Flags: W
HStem: -15 182<413.613 596.845> 659 181<475.662 658.435>
LayerCount: 2
Fore
SplineSet
749.486328125 413 m 0
 755.688476562 455 754.038085938 498 742.649414062 536 c 1
 411.818359375 185 l 1
 436.046875 173 465.16015625 167 501.16015625 167 c 0
 651.16015625 167 731.323242188 290 749.486328125 413 c 0
324.486328125 413 m 0
 318.13671875 370 318.639648438 326 329.028320312 288 c 1
 660.006835938 640 l 1
 636.779296875 652 607.8125 659 573.8125 659 c 0
 428.8125 659 342.649414062 536 324.486328125 413 c 0
113.211914062 59 m 1
 178.401367188 128 l 1
 126.4765625 203 105.095703125 302 121.486328125 413 c 0
 157.07421875 654 373.540039062 840 600.540039062 840 c 0
 674.540039062 840 741.586914062 820 797.418945312 785 c 1
 861.459960938 853 l 1
 960.760742188 767 l 1
 891.981445312 694 l 1
 944.053710938 620 968.58203125 522 952.486328125 413 c 0
 916.8984375 172 711.28515625 -15 474.28515625 -15 c 0
 396.28515625 -15 328.090820312 4 273.111328125 38 c 1
 212.512695312 -27 l 1
 113.211914062 59 l 1
EndSplineSet
EndChar

StartChar: Ugrave
Encoding: 217 217 153
Width: 785
Flags: W
HStem: -15 185<339.283 502.908> 805 20G<189.372 380.325 645.372 836.325>
LayerCount: 2
Fore
SplineSet
648.325195312 825 m 1
 836.325195312 825 l 1
 757.766601562 293 l 2
 727.642578125 89 600.28515625 -15 390.28515625 -15 c 0
 180.28515625 -15 83.642578125 89 113.766601562 293 c 2
 192.325195312 825 l 1
 380.325195312 825 l 1
 309.887695312 348 l 2
 289.509765625 210 325.603515625 170 417.603515625 170 c 0
 509.603515625 170 557.509765625 210 577.887695312 348 c 2
 648.325195312 825 l 1
417.612304688 1152 m 1
 594.623046875 976 l 1
 527.252929688 899 l 1
 309.630859375 1037 l 1
 417.612304688 1152 l 1
EndSplineSet
EndChar

StartChar: Uacute
Encoding: 218 218 154
Width: 785
Flags: W
HStem: -15 185<339.283 502.908> 805 20G<189.372 380.325 645.372 836.325>
LayerCount: 2
Fore
SplineSet
648.325195312 825 m 1
 836.325195312 825 l 1
 757.766601562 293 l 2
 727.642578125 89 600.28515625 -15 390.28515625 -15 c 0
 180.28515625 -15 83.642578125 89 113.766601562 293 c 2
 192.325195312 825 l 1
 380.325195312 825 l 1
 309.887695312 348 l 2
 289.509765625 210 325.603515625 170 417.603515625 170 c 0
 509.603515625 170 557.509765625 210 577.887695312 348 c 2
 648.325195312 825 l 1
418.623046875 976 m 1
 647.612304688 1152 l 1
 721.630859375 1037 l 1
 463.252929688 899 l 1
 418.623046875 976 l 1
EndSplineSet
EndChar

StartChar: Ucircumflex
Encoding: 219 219 155
Width: 785
Flags: W
HStem: -15 185<339.283 502.908> 805 20G<189.372 380.325 645.372 836.325>
LayerCount: 2
Fore
SplineSet
648.325195312 825 m 1
 836.325195312 825 l 1
 757.766601562 293 l 2
 727.642578125 89 600.28515625 -15 390.28515625 -15 c 0
 180.28515625 -15 83.642578125 89 113.766601562 293 c 2
 192.325195312 825 l 1
 380.325195312 825 l 1
 309.887695312 348 l 2
 289.509765625 210 325.603515625 170 417.603515625 170 c 0
 509.603515625 170 557.509765625 210 577.887695312 348 c 2
 648.325195312 825 l 1
317.690429688 990 m 1
 562.612304688 1152 l 1
 759.690429688 990 l 1
 678.252929688 899 l 1
 541.791015625 1011 l 1
 372.252929688 899 l 1
 317.690429688 990 l 1
EndSplineSet
EndChar

StartChar: Udieresis
Encoding: 220 220 156
Width: 785
Flags: W
HStem: -15 185<339.283 502.908> 805 20G<189.372 380.325 645.372 836.325> 919 184<374.684 470.899 611.684 707.899>
VStem: 330.791 184<961.329 1060.67> 567.791 184<961.329 1060.67>
LayerCount: 2
Fore
SplineSet
648.325195312 825 m 1
 836.325195312 825 l 1
 757.766601562 293 l 2
 727.642578125 89 600.28515625 -15 390.28515625 -15 c 0
 180.28515625 -15 83.642578125 89 113.766601562 293 c 2
 192.325195312 825 l 1
 380.325195312 825 l 1
 309.887695312 348 l 2
 289.509765625 210 325.603515625 170 417.603515625 170 c 0
 509.603515625 170 557.509765625 210 577.887695312 348 c 2
 648.325195312 825 l 1
673.376953125 1103 m 0
 724.376953125 1103 759.322265625 1062 751.791015625 1011 c 0
 744.260742188 960 697.206054688 919 646.206054688 919 c 0
 595.206054688 919 560.260742188 960 567.791015625 1011 c 0
 575.322265625 1062 622.376953125 1103 673.376953125 1103 c 0
436.376953125 1103 m 0
 487.376953125 1103 522.322265625 1062 514.791015625 1011 c 0
 507.260742188 960 460.206054688 919 409.206054688 919 c 0
 358.206054688 919 323.260742188 960 330.791015625 1011 c 0
 338.322265625 1062 385.376953125 1103 436.376953125 1103 c 0
EndSplineSet
EndChar

StartChar: Yacute
Encoding: 221 221 157
Width: 879
Flags: W
HStem: 0 21G<345.5 536.453> 805 20G<163.325 399.402 717.342 959.325>
LayerCount: 2
Fore
SplineSet
163.325195312 825 m 1
 389.325195312 825 l 1
 522.340820312 561 l 1
 733.325195312 825 l 1
 959.325195312 825 l 1
 588.13671875 370 l 1
 533.5 0 l 1
 345.5 0 l 1
 400.13671875 370 l 1
 163.325195312 825 l 1
466.623046875 976 m 1
 695.612304688 1152 l 1
 769.630859375 1037 l 1
 511.252929688 899 l 1
 466.623046875 976 l 1
EndSplineSet
EndChar

StartChar: Thorn
Encoding: 222 222 158
Width: 718
Flags: W
HStem: 0 21G<67.5 258.453> 153 150<300.243 450.086> 522 150<354.732 475.241> 805 20G<186.372 377.325>
LayerCount: 2
Fore
SplineSet
300.243164062 303 m 1
 353.243164062 303 l 2
 427.243164062 303 496.08203125 329 508.338867188 412 c 0
 520.743164062 496 459.58203125 522 385.58203125 522 c 2
 332.58203125 522 l 1
 300.243164062 303 l 1
377.325195312 825 m 1
 354.732421875 672 l 1
 467.732421875 672 l 2
 628.732421875 672 737.475585938 589 712.224609375 418 c 0
 687.12109375 248 552.092773438 153 391.092773438 153 c 2
 278.092773438 153 l 1
 255.5 0 l 1
 67.5 0 l 1
 189.325195312 825 l 1
 377.325195312 825 l 1
EndSplineSet
EndChar

StartChar: germandbls
Encoding: 223 223 159
Width: 678
Flags: W
HStem: 0 21G<67 237.953 278 280.953>
LayerCount: 2
Fore
SplineSet
681.211914062 638 m 1
 666.001953125 535 612.470703125 484 544.564453125 444 c 1
 630.771484375 398 658.515625 315 646.258789062 232 c 0
 610.966796875 -7 278 0 278 0 c 1
 298.96875 142 l 1
 291.66015625 167 453.344726562 131 470.03125 244 c 0
 484.354492188 341 389.603515625 363 354.885742188 392 c 1
 372.162109375 509 l 2
 380.875 568 489.18359375 543 501.439453125 626 c 0
 514.025390625 718 452.240234375 733 384.911132812 724 c 0
 347.458007812 718.993164062 331.426757812 653 321.237304688 584 c 2
 235 0 l 1
 67 0 l 1
 161.983398438 650 l 2
 210.484375 981.903320312 749.000976562 929.125976562 681.211914062 638 c 1
EndSplineSet
EndChar

StartChar: agrave
Encoding: 224 224 160
Width: 733
Flags: W
HStem: -15 151<245.285 422.041> 0 21G<492.5 670.453> 377 151<358.658 497.059> 820 20G<344.761 383.655>
LayerCount: 2
Fore
SplineSet
293.302734375 256 m 0xb0
 282.965820312 186 323.583007812 136 395.583007812 136 c 0
 464.583007812 136 521.965820312 186 532.302734375 256 c 0
 542.787109375 327 497.170898438 377 431.170898438 377 c 0
 364.170898438 377 303.787109375 327 293.302734375 256 c 0xb0
734.541015625 454 m 2
 667.5 0 l 1
 492.5 0 l 1x70
 501.064453125 58 l 1
 456.862304688 16 390.28515625 -15 320.28515625 -15 c 0
 170.28515625 -15 83.15234375 106 105.302734375 256 c 0
 127.453125 406 250.467773438 528 400.467773438 528 c 0
 469.467773438 528 746.887695312 541 734.541015625 454 c 2
363.540039062 840 m 1
 540.55078125 664 l 1
 473.180664062 587 l 1
 255.55859375 725 l 1
 363.540039062 840 l 1
EndSplineSet
EndChar

StartChar: aacute
Encoding: 225 225 161
Width: 733
Flags: W
HStem: -15 151<245.285 422.041> 0 21G<492.5 670.453> 377 151<358.658 497.059> 820 20G<627.519 666.413>
LayerCount: 2
Fore
SplineSet
293.302734375 256 m 0xb0
 282.965820312 186 323.583007812 136 395.583007812 136 c 0
 464.583007812 136 521.965820312 186 532.302734375 256 c 0
 542.787109375 327 497.170898438 377 431.170898438 377 c 0
 364.170898438 377 303.787109375 327 293.302734375 256 c 0xb0
734.541015625 454 m 2
 667.5 0 l 1
 492.5 0 l 1x70
 501.064453125 58 l 1
 456.862304688 16 390.28515625 -15 320.28515625 -15 c 0
 170.28515625 -15 83.15234375 106 105.302734375 256 c 0
 127.453125 406 250.467773438 528 400.467773438 528 c 0
 469.467773438 528 746.887695312 541 734.541015625 454 c 2
424.55078125 664 m 1
 653.540039062 840 l 1
 727.55859375 725 l 1
 469.180664062 587 l 1
 424.55078125 664 l 1
EndSplineSet
EndChar

StartChar: acircumflex
Encoding: 226 226 162
Width: 733
Flags: W
HStem: -15 151<245.285 422.041> 0 21G<492.5 670.453> 377 151<358.658 497.059> 820 20G<478.303 532.871>
LayerCount: 2
Fore
SplineSet
293.302734375 256 m 0xb0
 282.965820312 186 323.583007812 136 395.583007812 136 c 0
 464.583007812 136 521.965820312 186 532.302734375 256 c 0
 542.787109375 327 497.170898438 377 431.170898438 377 c 0
 364.170898438 377 303.787109375 327 293.302734375 256 c 0xb0
734.541015625 454 m 2
 667.5 0 l 1
 492.5 0 l 1x70
 501.064453125 58 l 1
 456.862304688 16 390.28515625 -15 320.28515625 -15 c 0
 170.28515625 -15 83.15234375 106 105.302734375 256 c 0
 127.453125 406 250.467773438 528 400.467773438 528 c 0
 469.467773438 528 746.887695312 541 734.541015625 454 c 2
263.618164062 678 m 1
 508.540039062 840 l 1
 705.618164062 678 l 1
 624.180664062 587 l 1
 487.719726562 699 l 1
 318.180664062 587 l 1
 263.618164062 678 l 1
EndSplineSet
EndChar

StartChar: atilde
Encoding: 227 227 163
Width: 733
Flags: W
HStem: -15 151<245.285 422.041> 0 21G<492.5 670.453> 377 151<358.658 497.059> 615 126<496.907 614.616> 661 126<361.413 487.937>
LayerCount: 2
Fore
SplineSet
293.302734375 256 m 0xa0
 282.965820312 186 323.583007812 136 395.583007812 136 c 0
 464.583007812 136 521.965820312 186 532.302734375 256 c 0
 542.787109375 327 497.170898438 377 431.170898438 377 c 0
 364.170898438 377 303.787109375 327 293.302734375 256 c 0xa0
734.541015625 454 m 2
 667.5 0 l 1
 492.5 0 l 1x60
 501.064453125 58 l 1
 456.862304688 16 390.28515625 -15 320.28515625 -15 c 0
 170.28515625 -15 83.15234375 106 105.302734375 256 c 0
 127.453125 406 250.467773438 528 400.467773438 528 c 0
 469.467773438 528 746.887695312 541 734.541015625 454 c 2
397.108398438 661 m 0x28
 365.108398438 661 345.315429688 615 345.315429688 615 c 1
 244.315429688 615 l 1x30
 244.315429688 615 295.713867188 787 405.713867188 787 c 0x28
 444.713867188 787 537.920898438 741 578.920898438 741 c 0x30
 610.920898438 741 630.713867188 787 630.713867188 787 c 1
 731.713867188 787 l 1x28
 731.713867188 787 680.315429688 615 570.315429688 615 c 0x30
 531.315429688 615 461.311523438 661 397.108398438 661 c 0x28
EndSplineSet
EndChar

StartChar: adieresis
Encoding: 228 228 164
Width: 733
Flags: W
HStem: -15 151<245.285 422.041> 0 21G<492.5 670.453> 377 151<358.658 497.059> 607 184<321.612 417.826 558.612 654.826>
VStem: 277.72 184<649.329 748.671> 514.72 184<649.329 748.671>
LayerCount: 2
Fore
SplineSet
293.302734375 256 m 0xbc
 282.965820312 186 323.583007812 136 395.583007812 136 c 0
 464.583007812 136 521.965820312 186 532.302734375 256 c 0
 542.787109375 327 497.170898438 377 431.170898438 377 c 0
 364.170898438 377 303.787109375 327 293.302734375 256 c 0xbc
734.541015625 454 m 2
 667.5 0 l 1
 492.5 0 l 1x7c
 501.064453125 58 l 1
 456.862304688 16 390.28515625 -15 320.28515625 -15 c 0
 170.28515625 -15 83.15234375 106 105.302734375 256 c 0
 127.453125 406 250.467773438 528 400.467773438 528 c 0
 469.467773438 528 746.887695312 541 734.541015625 454 c 2
620.3046875 791 m 0
 671.3046875 791 706.25 750 698.719726562 699 c 0
 691.188476562 648 644.133789062 607 593.133789062 607 c 0
 542.133789062 607 507.188476562 648 514.719726562 699 c 0
 522.25 750 569.3046875 791 620.3046875 791 c 0
383.3046875 791 m 0
 434.3046875 791 469.25 750 461.719726562 699 c 0
 454.188476562 648 407.133789062 607 356.133789062 607 c 0
 305.133789062 607 270.188476562 648 277.719726562 699 c 0
 285.25 750 332.3046875 791 383.3046875 791 c 0
EndSplineSet
EndChar

StartChar: aring
Encoding: 229 229 165
Width: 733
Flags: W
HStem: -15 151<245.285 422.041> 0 21G<492.5 670.453> 377 151<358.658 497.059> 590 79<441.015 531.116> 795 80<452.842 543.696>
LayerCount: 2
Fore
SplineSet
293.302734375 256 m 0xb8
 282.965820312 186 323.583007812 136 395.583007812 136 c 0
 464.583007812 136 521.965820312 186 532.302734375 256 c 0
 542.787109375 327 497.170898438 377 431.170898438 377 c 0
 364.170898438 377 303.787109375 327 293.302734375 256 c 0xb8
734.541015625 454 m 2
 667.5 0 l 1
 492.5 0 l 1x78
 501.064453125 58 l 1
 456.862304688 16 390.28515625 -15 320.28515625 -15 c 0
 170.28515625 -15 83.15234375 106 105.302734375 256 c 0
 127.453125 406 250.467773438 528 400.467773438 528 c 0
 469.467773438 528 746.887695312 541 734.541015625 454 c 2
431.740234375 733 m 0
 426.571289062 698 447.2890625 669 483.2890625 669 c 0
 518.2890625 669 548.571289062 698 553.740234375 733 c 0
 558.760742188 767 535.895507812 795 501.895507812 795 c 0
 468.895507812 795 436.760742188 767 431.740234375 733 c 0
331.740234375 733 m 0
 343.99609375 816 423.708984375 875 513.708984375 875 c 0
 604.708984375 875 665.99609375 816 653.740234375 733 c 0
 641.3359375 649 565.624023438 590 471.624023438 590 c 0
 375.624023438 590 319.3359375 649 331.740234375 733 c 0
EndSplineSet
EndChar

StartChar: ae
Encoding: 230 230 166
Width: 1015
Flags: W
HStem: -15 141<646.577 800.475> -15 106<193.285 369.754> 207 94<275.866 407.602> 232 98<636.73 831.73> 387 141<224.159 412.905> 413 115<676.318 808.541>
LayerCount: 2
Fore
SplineSet
257.297851562 151 m 0x60
 251.981445312 115 280.4375 91 327.4375 91 c 0
 374.4375 91 416.868164062 121 421.297851562 151 c 0
 425.727539062 181 391.567382812 207 344.567382812 207 c 0
 297.567382812 207 262.61328125 187 257.297851562 151 c 0x60
636.73046875 330 m 1x14
 831.73046875 330 l 1
 831.704101562 384 798.986328125 413 746.986328125 413 c 0
 685.986328125 413 646.670898438 377 636.73046875 330 c 1x14
200.716796875 357 m 1
 162.584960938 478 l 1
 162.584960938 478 233.967773438 528 364.967773438 528 c 0x68
 426.967773438 528 512.752929688 513 567.517578125 464 c 1
 622.423828125 504 689.967773438 528 758.967773438 528 c 0
 914.967773438 528 1020.3828125 436 993.802734375 256 c 0
 992.76953125 249 991.14453125 238 989.258789062 232 c 1
 617.258789062 232 l 1
 605.592773438 153 667.606445312 126 712.606445312 126 c 0
 769.606445312 126 796.23046875 137 846.0234375 183 c 1
 964.572265625 119 l 1
 892.249023438 22 792.78515625 -15 678.78515625 -15 c 0x94
 593.78515625 -15 523.100585938 21 479.666015625 79 c 1
 479.666015625 79 403.78515625 -15 246.78515625 -15 c 0
 139.78515625 -15 65.349609375 43 79.0830078125 136 c 0
 92.66796875 228 170.448242188 301 286.448242188 301 c 0
 371.448242188 301 417.051757812 278 437.688476562 262 c 1
 443.15234375 299 l 2
 451.421875 355 395.147460938 387 344.147460938 387 c 0x68
 252.147460938 387 200.716796875 357 200.716796875 357 c 1
EndSplineSet
EndChar

StartChar: ccedilla
Encoding: 231 231 167
Width: 570
Flags: W
HStem: -294 90<201.428 316.989> -120 57<297.697 316.129> -15 145<321.264 467.776> 383 145<354.297 518.166>
LayerCount: 2
Fore
SplineSet
517.578125 31 m 1
 517.578125 31 452.78515625 -15 338.78515625 -15 c 0
 332.78515625 -15 326.78515625 -15 320.932617188 -14 c 1
 297.697265625 -63 l 1
 352.697265625 -63 421.82421875 -96 411.634765625 -165 c 0
 402.33203125 -228 351.5859375 -294 240.5859375 -294 c 0
 150.5859375 -294 98.841796875 -211 98.841796875 -211 c 1
 178.81640625 -157 l 1
 178.81640625 -157 207.875976562 -204 253.875976562 -204 c 0
 349.583007812 -204 350.280273438 -120 254.280273438 -120 c 0
 218.280273438 -120 201.951171875 -129 201.951171875 -129 c 1
 250 0 l 1
 147.31640625 36 77.0830078125 136 94.6552734375 255 c 0
 116.953125 406 269.967773438 528 418.967773438 528 c 0
 532.967773438 528 583.879882812 480 583.879882812 480 c 1
 506.012695312 359 l 1
 506.012695312 359 476.556640625 383 423.556640625 383 c 0
 356.556640625 383 293.287109375 327 282.950195312 257 c 0
 272.465820312 186 319.196289062 130 386.196289062 130 c 0
 439.196289062 130 475.741210938 154 475.741210938 154 c 1
 517.578125 31 l 1
EndSplineSet
EndChar

StartChar: egrave
Encoding: 232 232 168
Width: 676
Flags: W
HStem: -15 21G<261.785 396.285> 227 90<295.311 490.311> 413 115<345.837 462.318> 820 20G<297.761 336.655>
LayerCount: 2
Fore
SplineSet
295.310546875 317 m 1
 490.310546875 317 l 1
 490.284179688 371 459.486328125 413 407.486328125 413 c 0
 346.486328125 413 305.250976562 364 295.310546875 317 c 1
505.046875 173 m 1
 625.072265625 119 l 1
 552.749023438 22 453.28515625 -15 339.28515625 -15 c 0
 184.28515625 -15 75.30078125 107 97.302734375 256 c 0
 119.453125 406 264.467773438 528 419.467773438 528 c 0
 575.467773438 528 678.224609375 418 650.020507812 227 c 1
 277.020507812 227 l 1
 264.321289062 141 375.360351562 60 505.046875 173 c 1
316.540039062 840 m 1
 493.55078125 664 l 1
 426.180664062 587 l 1
 208.55859375 725 l 1
 316.540039062 840 l 1
EndSplineSet
EndChar

StartChar: eacute
Encoding: 233 233 169
Width: 675
Flags: W
HStem: -15 21G<261.785 396.285> 227 90<295.311 490.311> 413 115<345.837 462.318> 820 20G<580.019 618.913>
LayerCount: 2
Fore
SplineSet
295.310546875 317 m 1
 490.310546875 317 l 1
 490.284179688 371 459.486328125 413 407.486328125 413 c 0
 346.486328125 413 305.250976562 364 295.310546875 317 c 1
505.046875 173 m 1
 625.072265625 119 l 1
 552.749023438 22 453.28515625 -15 339.28515625 -15 c 0
 184.28515625 -15 75.30078125 107 97.302734375 256 c 0
 119.453125 406 264.467773438 528 419.467773438 528 c 0
 575.467773438 528 678.224609375 418 650.020507812 227 c 1
 277.020507812 227 l 1
 264.321289062 141 375.360351562 60 505.046875 173 c 1
377.05078125 664 m 1
 606.040039062 840 l 1
 680.05859375 725 l 1
 421.680664062 587 l 1
 377.05078125 664 l 1
EndSplineSet
EndChar

StartChar: ecircumflex
Encoding: 234 234 170
Width: 675
Flags: W
HStem: -15 21G<261.785 396.285> 227 90<295.311 490.311> 413 115<345.837 462.318> 820 20G<430.803 485.371>
LayerCount: 2
Fore
SplineSet
295.310546875 317 m 1
 490.310546875 317 l 1
 490.284179688 371 459.486328125 413 407.486328125 413 c 0
 346.486328125 413 305.250976562 364 295.310546875 317 c 1
505.046875 173 m 1
 625.072265625 119 l 1
 552.749023438 22 453.28515625 -15 339.28515625 -15 c 0
 184.28515625 -15 75.30078125 107 97.302734375 256 c 0
 119.453125 406 264.467773438 528 419.467773438 528 c 0
 575.467773438 528 678.224609375 418 650.020507812 227 c 1
 277.020507812 227 l 1
 264.321289062 141 375.360351562 60 505.046875 173 c 1
216.118164062 678 m 1
 461.040039062 840 l 1
 658.118164062 678 l 1
 576.680664062 587 l 1
 440.219726562 699 l 1
 270.680664062 587 l 1
 216.118164062 678 l 1
EndSplineSet
EndChar

StartChar: edieresis
Encoding: 235 235 171
Width: 676
Flags: W
HStem: -15 21G<261.785 396.285> 227 90<295.311 490.311> 413 115<345.837 462.318> 607 184<274.612 370.826 511.612 607.826>
VStem: 230.72 184<649.329 748.671> 467.72 184<649.329 748.671>
LayerCount: 2
Fore
SplineSet
295.310546875 317 m 1
 490.310546875 317 l 1
 490.284179688 371 459.486328125 413 407.486328125 413 c 0
 346.486328125 413 305.250976562 364 295.310546875 317 c 1
505.046875 173 m 1
 625.072265625 119 l 1
 552.749023438 22 453.28515625 -15 339.28515625 -15 c 0
 184.28515625 -15 75.30078125 107 97.302734375 256 c 0
 119.453125 406 264.467773438 528 419.467773438 528 c 0
 575.467773438 528 678.224609375 418 650.020507812 227 c 1
 277.020507812 227 l 1
 264.321289062 141 375.360351562 60 505.046875 173 c 1
573.3046875 791 m 0
 624.3046875 791 659.25 750 651.719726562 699 c 0
 644.188476562 648 597.133789062 607 546.133789062 607 c 0
 495.133789062 607 460.188476562 648 467.719726562 699 c 0
 475.25 750 522.3046875 791 573.3046875 791 c 0
336.3046875 791 m 0
 387.3046875 791 422.25 750 414.719726562 699 c 0
 407.188476562 648 360.133789062 607 309.133789062 607 c 0
 258.133789062 607 223.188476562 648 230.719726562 699 c 0
 238.25 750 285.3046875 791 336.3046875 791 c 0
EndSplineSet
EndChar

StartChar: igrave
Encoding: 236 236 172
Width: 440
Flags: W
HStem: 0 21G<205 384.953> 493 20G<277.8 457.753> 820 20G<254.261 293.155>
VStem: 165.059 292.694
LayerCount: 2
Fore
SplineSet
280.752929688 513 m 1
 457.752929688 513 l 1
 382 0 l 1
 205 0 l 1
 280.752929688 513 l 1
273.040039062 840 m 1
 450.05078125 664 l 1
 382.680664062 587 l 1
 165.05859375 725 l 1
 273.040039062 840 l 1
EndSplineSet
EndChar

StartChar: iacute
Encoding: 237 237 173
Width: 438
Flags: W
HStem: 0 21G<57 236.953> 493 20G<129.8 309.753> 820 20G<388.019 426.913>
LayerCount: 2
Fore
SplineSet
132.752929688 513 m 1
 309.752929688 513 l 1
 234 0 l 1
 57 0 l 1
 132.752929688 513 l 1
185.05078125 664 m 1
 414.040039062 840 l 1
 488.05859375 725 l 1
 229.680664062 587 l 1
 185.05078125 664 l 1
EndSplineSet
EndChar

StartChar: icircumflex
Encoding: 238 238 174
Width: 529
Flags: W
HStem: 0 21G<175.5 355.453> 493 20G<248.3 428.253> 820 20G<358.303 412.871>
LayerCount: 2
Fore
SplineSet
251.252929688 513 m 1
 428.252929688 513 l 1
 352.5 0 l 1
 175.5 0 l 1
 251.252929688 513 l 1
143.618164062 678 m 1
 388.540039062 840 l 1
 585.618164062 678 l 1
 504.180664062 587 l 1
 367.719726562 699 l 1
 198.180664062 587 l 1
 143.618164062 678 l 1
EndSplineSet
EndChar

StartChar: idieresis
Encoding: 239 239 175
Width: 516
Flags: W
HStem: 0 21G<169.5 349.453> 493 20G<242.3 422.253> 607 184<194.612 290.826 431.612 527.826>
VStem: 150.72 184<649.329 748.671> 387.72 184<649.329 748.671>
LayerCount: 2
Fore
SplineSet
245.252929688 513 m 1
 422.252929688 513 l 1
 346.5 0 l 1
 169.5 0 l 1
 245.252929688 513 l 1
493.3046875 791 m 0
 544.3046875 791 579.25 750 571.719726562 699 c 0
 564.188476562 648 517.133789062 607 466.133789062 607 c 0
 415.133789062 607 380.188476562 648 387.719726562 699 c 0
 395.25 750 442.3046875 791 493.3046875 791 c 0
256.3046875 791 m 0
 307.3046875 791 342.25 750 334.719726562 699 c 0
 327.188476562 648 280.133789062 607 229.133789062 607 c 0
 178.133789062 607 143.188476562 648 150.719726562 699 c 0
 158.25 750 205.3046875 791 256.3046875 791 c 0
EndSplineSet
EndChar

StartChar: eth
Encoding: 240 240 176
Width: 736
Flags: W
HStem: -15 151<322.557 462.479> 377 151<352.178 482.456>
LayerCount: 2
Fore
SplineSet
286.302734375 256 m 0
 275.965820312 186 316.583007812 136 388.583007812 136 c 0
 457.583007812 136 514.965820312 186 525.302734375 256 c 2
 526.041015625 261 l 1
 533.08203125 329 488.170898438 377 424.170898438 377 c 0
 357.170898438 377 296.787109375 327 286.302734375 256 c 0
98.302734375 256 m 0
 123.111328125 424 286.467773438 528 396.467773438 528 c 0
 410.467773438 528 457.467773438 528 484.10546875 512 c 1
 458.045898438 559 421.657226562 597 384.086914062 627 c 1
 288.978515625 545 l 1
 223.348632812 622 l 1
 294.50390625 684 l 1
 235.934570312 714 189.55859375 725 189.55859375 725 c 1
 253.708984375 875 l 1
 253.708984375 875 335.903320312 856 431.077148438 803 c 1
 514.708984375 875 l 1
 579.190429688 797 l 1
 519.51171875 745 l 1
 639.630859375 651 749.038085938 498 713.302734375 256 c 0
 689.971679688 98 544.28515625 -15 367.28515625 -15 c 0
 182.28515625 -15 74.9716796875 98 98.302734375 256 c 0
EndSplineSet
EndChar

StartChar: ntilde
Encoding: 241 241 177
Width: 692
Flags: W
HStem: 0 21G<70.5 257.453 456.5 636.453> 384 144<341.466 477.676> 500 20G<144.334 287.287> 615 126<452.907 570.616> 661 126<317.413 443.937>
LayerCount: 2
Fore
SplineSet
353.108398438 661 m 0x88
 321.108398438 661 301.315429688 615 301.315429688 615 c 1
 200.315429688 615 l 1x90
 200.315429688 615 251.713867188 787 361.713867188 787 c 0x88
 400.713867188 787 493.920898438 741 534.920898438 741 c 0x90
 566.920898438 741 586.713867188 787 586.713867188 787 c 1
 687.713867188 787 l 1x88
 687.713867188 787 636.315429688 615 526.315429688 615 c 0x90
 487.315429688 615 417.311523438 661 353.108398438 661 c 0x88
254.5 0 m 1
 70.5 0 l 1
 147.287109375 520 l 1
 287.287109375 520 l 1xa0
 283.004882812 491 l 1
 320.401367188 514 369.467773438 528 434.467773438 528 c 0
 626.467773438 528 701.279296875 459 675.880859375 287 c 2
 633.5 0 l 1
 456.5 0 l 1
 492.53125 244 l 2
 507.4453125 345 487.204101562 384 413.204101562 384 c 0xc0
 339.204101562 384 305.4453125 345 290.53125 244 c 2
 254.5 0 l 1
EndSplineSet
EndChar

StartChar: ograve
Encoding: 242 242 178
Width: 735
Flags: W
HStem: -15 151<322.057 461.979> 377 151<351.646 487.698> 820 20G<327.261 366.155>
LayerCount: 2
Fore
SplineSet
285.802734375 256 m 0
 275.465820312 186 316.083007812 136 388.083007812 136 c 0
 457.083007812 136 514.465820312 186 524.802734375 256 c 0
 535.287109375 327 489.670898438 377 423.670898438 377 c 0
 356.670898438 377 296.287109375 327 285.802734375 256 c 0
97.802734375 256 m 0
 121.4296875 416 273.967773438 528 446.967773438 528 c 0
 616.967773438 528 736.4296875 416 712.802734375 256 c 0
 689.471679688 98 543.78515625 -15 366.78515625 -15 c 0
 181.78515625 -15 74.4716796875 98 97.802734375 256 c 0
346.040039062 840 m 1
 523.05078125 664 l 1
 455.680664062 587 l 1
 238.05859375 725 l 1
 346.040039062 840 l 1
EndSplineSet
EndChar

StartChar: oacute
Encoding: 243 243 179
Width: 735
Flags: W
HStem: -15 151<322.057 461.979> 377 151<351.646 487.698> 820 20G<570.019 608.913>
LayerCount: 2
Fore
SplineSet
285.802734375 256 m 0
 275.465820312 186 316.083007812 136 388.083007812 136 c 0
 457.083007812 136 514.465820312 186 524.802734375 256 c 0
 535.287109375 327 489.670898438 377 423.670898438 377 c 0
 356.670898438 377 296.287109375 327 285.802734375 256 c 0
97.802734375 256 m 0
 121.4296875 416 273.967773438 528 446.967773438 528 c 0
 616.967773438 528 736.4296875 416 712.802734375 256 c 0
 689.471679688 98 543.78515625 -15 366.78515625 -15 c 0
 181.78515625 -15 74.4716796875 98 97.802734375 256 c 0
367.05078125 664 m 1
 596.040039062 840 l 1
 670.05859375 725 l 1
 411.680664062 587 l 1
 367.05078125 664 l 1
EndSplineSet
EndChar

StartChar: ocircumflex
Encoding: 244 244 180
Width: 734
Flags: W
HStem: -15 151<321.557 461.479> 377 151<351.146 487.198> 820 20G<460.303 514.871>
LayerCount: 2
Fore
SplineSet
285.302734375 256 m 0
 274.965820312 186 315.583007812 136 387.583007812 136 c 0
 456.583007812 136 513.965820312 186 524.302734375 256 c 0
 534.787109375 327 489.170898438 377 423.170898438 377 c 0
 356.170898438 377 295.787109375 327 285.302734375 256 c 0
97.302734375 256 m 0
 120.9296875 416 273.467773438 528 446.467773438 528 c 0
 616.467773438 528 735.9296875 416 712.302734375 256 c 0
 688.971679688 98 543.28515625 -15 366.28515625 -15 c 0
 181.28515625 -15 73.9716796875 98 97.302734375 256 c 0
245.618164062 678 m 1
 490.540039062 840 l 1
 687.618164062 678 l 1
 606.180664062 587 l 1
 469.719726562 699 l 1
 300.180664062 587 l 1
 245.618164062 678 l 1
EndSplineSet
EndChar

StartChar: otilde
Encoding: 245 245 181
Width: 735
Flags: W
HStem: -15 151<322.057 461.979> 377 151<351.646 487.698> 615 126<479.407 597.116> 661 126<343.913 470.437>
LayerCount: 2
Fore
SplineSet
379.608398438 661 m 0xd0
 347.608398438 661 327.815429688 615 327.815429688 615 c 1
 226.815429688 615 l 1xe0
 226.815429688 615 278.213867188 787 388.213867188 787 c 0xd0
 427.213867188 787 520.420898438 741 561.420898438 741 c 0xe0
 593.420898438 741 613.213867188 787 613.213867188 787 c 1
 714.213867188 787 l 1xd0
 714.213867188 787 662.815429688 615 552.815429688 615 c 0xe0
 513.815429688 615 443.811523438 661 379.608398438 661 c 0xd0
285.802734375 256 m 0
 275.465820312 186 316.083007812 136 388.083007812 136 c 0
 457.083007812 136 514.465820312 186 524.802734375 256 c 0
 535.287109375 327 489.670898438 377 423.670898438 377 c 0
 356.670898438 377 296.287109375 327 285.802734375 256 c 0
97.802734375 256 m 0
 121.4296875 416 273.967773438 528 446.967773438 528 c 0
 616.967773438 528 736.4296875 416 712.802734375 256 c 0
 689.471679688 98 543.78515625 -15 366.78515625 -15 c 0
 181.78515625 -15 74.4716796875 98 97.802734375 256 c 0
EndSplineSet
EndChar

StartChar: odieresis
Encoding: 246 246 182
Width: 734
Flags: W
HStem: -15 151<321.557 461.479> 377 151<351.146 487.198> 607 184<303.612 399.826 540.612 636.826>
VStem: 259.72 184<649.329 748.671> 496.72 184<649.329 748.671>
LayerCount: 2
Fore
SplineSet
285.302734375 256 m 0
 274.965820312 186 315.583007812 136 387.583007812 136 c 0
 456.583007812 136 513.965820312 186 524.302734375 256 c 0
 534.787109375 327 489.170898438 377 423.170898438 377 c 0
 356.170898438 377 295.787109375 327 285.302734375 256 c 0
97.302734375 256 m 0
 120.9296875 416 273.467773438 528 446.467773438 528 c 0
 616.467773438 528 735.9296875 416 712.302734375 256 c 0
 688.971679688 98 543.28515625 -15 366.28515625 -15 c 0
 181.28515625 -15 73.9716796875 98 97.302734375 256 c 0
602.3046875 791 m 0
 653.3046875 791 688.25 750 680.719726562 699 c 0
 673.188476562 648 626.133789062 607 575.133789062 607 c 0
 524.133789062 607 489.188476562 648 496.719726562 699 c 0
 504.25 750 551.3046875 791 602.3046875 791 c 0
365.3046875 791 m 0
 416.3046875 791 451.25 750 443.719726562 699 c 0
 436.188476562 648 389.133789062 607 338.133789062 607 c 0
 287.133789062 607 252.188476562 648 259.719726562 699 c 0
 267.25 750 314.3046875 791 365.3046875 791 c 0
EndSplineSet
EndChar

StartChar: divide
Encoding: 247 247 183
Width: 639
Flags: W
HStem: 109 162<301.191 392.592> 338 153<135.505 625.911> 558 162<367.494 458.894>
CounterMasks: 1 e0
LayerCount: 2
Fore
SplineSet
358.017578125 271 m 0
 404.017578125 271 434.702148438 235 427.909179688 189 c 0
 421.412109375 145 380.095703125 109 334.095703125 109 c 0
 290.095703125 109 259.412109375 145 265.909179688 189 c 0
 272.702148438 235 314.017578125 271 358.017578125 271 c 0
135.504882812 491 m 1
 648.504882812 491 l 1
 625.911132812 338 l 1
 112.911132812 338 l 1
 135.504882812 491 l 1
424.3203125 720 m 0
 470.3203125 720 501.00390625 684 494.211914062 638 c 0
 487.713867188 594 446.3984375 558 400.3984375 558 c 0
 356.3984375 558 325.713867188 594 332.211914062 638 c 0
 339.00390625 684 380.3203125 720 424.3203125 720 c 0
EndSplineSet
EndChar

StartChar: oslash
Encoding: 248 248 184
Width: 775
Flags: W
HStem: -15 151<342.455 481.979> 377 151<371.646 506.736>
LayerCount: 2
Fore
SplineSet
408.083007812 136 m 0
 477.083007812 136 534.465820312 186 544.802734375 256 c 0
 547.165039062 272 546.380859375 287 543.448242188 301 c 1
 341.888671875 155 l 1
 359.116210938 143 381.083007812 136 408.083007812 136 c 0
305.802734375 256 m 0
 303.291992188 239 303.077148438 224 306.009765625 210 c 1
 508.569335938 356 l 1
 491.489257812 369 468.670898438 377 443.670898438 377 c 0
 376.670898438 377 316.287109375 327 305.802734375 256 c 0
796.470703125 484 m 1
 701.282226562 415 l 1
 729.932617188 372 741.810546875 317 732.802734375 256 c 0
 709.471679688 98 563.78515625 -15 386.78515625 -15 c 0
 304.78515625 -15 237.033203125 7 190.79296875 46 c 1
 91.1611328125 -26 l 1
 54.134765625 28 l 1
 147.028320312 95 l 1
 119.525390625 139 108.647460938 194 117.802734375 256 c 0
 141.4296875 416 293.967773438 528 466.967773438 528 c 0
 543.967773438 528 610.572265625 505 658.665039062 465 c 1
 759.4453125 538 l 1
 796.470703125 484 l 1
EndSplineSet
EndChar

StartChar: ugrave
Encoding: 249 249 185
Width: 693
Flags: W
HStem: -15 144<300.888 435.903> 493 20G<141.3 321.253 520.3 700.253> 820 20G<306.761 345.655>
LayerCount: 2
Fore
SplineSet
144.252929688 513 m 1
 321.252929688 513 l 1
 285.22265625 269 l 2
 270.307617188 168 291.548828125 129 365.548828125 129 c 0
 439.548828125 129 472.307617188 168 487.22265625 269 c 2
 523.252929688 513 l 1
 700.252929688 513 l 1
 657.873046875 226 l 2
 632.473632812 54 536.28515625 -15 344.28515625 -15 c 0
 152.28515625 -15 76.4736328125 54 101.873046875 226 c 2
 144.252929688 513 l 1
325.540039062 840 m 1
 502.55078125 664 l 1
 435.180664062 587 l 1
 217.55859375 725 l 1
 325.540039062 840 l 1
EndSplineSet
EndChar

StartChar: uacute
Encoding: 250 250 186
Width: 693
Flags: W
HStem: -15 144<300.888 435.903> 493 20G<141.3 321.253 520.3 700.253> 820 20G<588.519 627.413>
LayerCount: 2
Fore
SplineSet
144.252929688 513 m 1
 321.252929688 513 l 1
 285.22265625 269 l 2
 270.307617188 168 291.548828125 129 365.548828125 129 c 0
 439.548828125 129 472.307617188 168 487.22265625 269 c 2
 523.252929688 513 l 1
 700.252929688 513 l 1
 657.873046875 226 l 2
 632.473632812 54 536.28515625 -15 344.28515625 -15 c 0
 152.28515625 -15 76.4736328125 54 101.873046875 226 c 2
 144.252929688 513 l 1
385.55078125 664 m 1
 614.540039062 840 l 1
 688.55859375 725 l 1
 430.180664062 587 l 1
 385.55078125 664 l 1
EndSplineSet
EndChar

StartChar: ucircumflex
Encoding: 251 251 187
Width: 692
Flags: W
HStem: -15 144<300.388 435.403> 493 20G<140.8 320.753 519.8 699.753> 820 20G<439.803 494.371>
LayerCount: 2
Fore
SplineSet
143.752929688 513 m 1
 320.752929688 513 l 1
 284.72265625 269 l 2
 269.807617188 168 291.048828125 129 365.048828125 129 c 0
 439.048828125 129 471.807617188 168 486.72265625 269 c 2
 522.752929688 513 l 1
 699.752929688 513 l 1
 657.373046875 226 l 2
 631.973632812 54 535.78515625 -15 343.78515625 -15 c 0
 151.78515625 -15 75.9736328125 54 101.373046875 226 c 2
 143.752929688 513 l 1
225.118164062 678 m 1
 470.040039062 840 l 1
 667.118164062 678 l 1
 585.680664062 587 l 1
 449.219726562 699 l 1
 279.680664062 587 l 1
 225.118164062 678 l 1
EndSplineSet
EndChar

StartChar: udieresis
Encoding: 252 252 188
Width: 693
Flags: W
HStem: -15 144<300.888 435.903> 493 20G<141.3 321.253 520.3 700.253> 607 184<282.612 378.826 519.612 615.826>
VStem: 238.72 184<649.329 748.671> 475.72 184<649.329 748.671>
LayerCount: 2
Fore
SplineSet
144.252929688 513 m 1
 321.252929688 513 l 1
 285.22265625 269 l 2
 270.307617188 168 291.548828125 129 365.548828125 129 c 0
 439.548828125 129 472.307617188 168 487.22265625 269 c 2
 523.252929688 513 l 1
 700.252929688 513 l 1
 657.873046875 226 l 2
 632.473632812 54 536.28515625 -15 344.28515625 -15 c 0
 152.28515625 -15 76.4736328125 54 101.873046875 226 c 2
 144.252929688 513 l 1
581.3046875 791 m 0
 632.3046875 791 667.25 750 659.719726562 699 c 0
 652.188476562 648 605.133789062 607 554.133789062 607 c 0
 503.133789062 607 468.188476562 648 475.719726562 699 c 0
 483.25 750 530.3046875 791 581.3046875 791 c 0
344.3046875 791 m 0
 395.3046875 791 430.25 750 422.719726562 699 c 0
 415.188476562 648 368.133789062 607 317.133789062 607 c 0
 266.133789062 607 231.188476562 648 238.719726562 699 c 0
 246.25 750 293.3046875 791 344.3046875 791 c 0
EndSplineSet
EndChar

StartChar: yacute
Encoding: 253 253 189
Width: 767
Flags: W
HStem: -260 21G<74.6064 291.987> 493 20G<122.753 334.674 579.522 795.753> 820 20G<587.019 625.913>
LayerCount: 2
Fore
SplineSet
591.752929688 513 m 1
 795.752929688 513 l 1
 278.606445312 -260 l 1
 74.6064453125 -260 l 1
 301.813476562 80 l 1
 122.752929688 513 l 1
 326.752929688 513 l 1
 430.916992188 250 l 1
 591.752929688 513 l 1
384.05078125 664 m 1
 613.040039062 840 l 1
 687.05859375 725 l 1
 428.680664062 587 l 1
 384.05078125 664 l 1
EndSplineSet
EndChar

StartChar: thorn
Encoding: 254 254 190
Width: 736
Flags: W
HStem: -260 21G<29.6064 207.56> -15 151<314.657 453.677> 377 151<382.863 565.968>
LayerCount: 2
Fore
SplineSet
517.802734375 256 m 0
 528.287109375 327 482.670898438 377 415.670898438 377 c 0
 349.670898438 377 289.287109375 327 278.802734375 256 c 0
 268.465820312 186 311.083007812 136 380.083007812 136 c 0
 452.083007812 136 507.465820312 186 517.802734375 256 c 0
204.606445312 -260 m 1
 29.6064453125 -260 l 1
 194.994140625 860 l 1
 371.994140625 860 l 1
 313.517578125 464 l 1
 361.572265625 505 421.967773438 528 490.967773438 528 c 0
 640.967773438 528 727.953125 406 705.802734375 256 c 0
 683.65234375 106 560.78515625 -15 410.78515625 -15 c 0
 340.78515625 -15 283.362304688 16 251.564453125 58 c 1
 204.606445312 -260 l 1
EndSplineSet
EndChar

StartChar: ydieresis
Encoding: 255 255 191
Width: 766
Flags: W
HStem: -260 21G<74.1064 291.487> 493 20G<122.253 334.174 579.022 795.253> 607 184<319.612 415.826 556.612 652.826>
VStem: 275.72 184<649.329 748.671> 512.72 184<649.329 748.671>
LayerCount: 2
Fore
SplineSet
591.252929688 513 m 1
 795.252929688 513 l 1
 278.106445312 -260 l 1
 74.1064453125 -260 l 1
 301.313476562 80 l 1
 122.252929688 513 l 1
 326.252929688 513 l 1
 430.416992188 250 l 1
 591.252929688 513 l 1
618.3046875 791 m 0
 669.3046875 791 704.25 750 696.719726562 699 c 0
 689.188476562 648 642.133789062 607 591.133789062 607 c 0
 540.133789062 607 505.188476562 648 512.719726562 699 c 0
 520.25 750 567.3046875 791 618.3046875 791 c 0
381.3046875 791 m 0
 432.3046875 791 467.25 750 459.719726562 699 c 0
 452.188476562 648 405.133789062 607 354.133789062 607 c 0
 303.133789062 607 268.188476562 648 275.719726562 699 c 0
 283.25 750 330.3046875 791 381.3046875 791 c 0
EndSplineSet
EndChar

StartChar: Amacron
Encoding: 256 256 192
Width: 931
Flags: W
HStem: 0 21G<45.5 257.726 678.938 885.5> 165 165<420.23 606.23> 805 20G<488.323 678.469> 946 120<415.913 806.193>
LayerCount: 2
Fore
SplineSet
415.913085938 1066 m 1
 823.913085938 1066 l 1
 806.193359375 946 l 1
 398.193359375 946 l 1
 415.913085938 1066 l 1
673.325195312 825 m 1
 885.5 0 l 1
 683.5 0 l 1
 645.865234375 165 l 1
 331.865234375 165 l 1
 247.5 0 l 1
 45.5 0 l 1
 499.325195312 825 l 1
 673.325195312 825 l 1
606.23046875 330 m 1
 547.669921875 570 l 1
 420.23046875 330 l 1
 606.23046875 330 l 1
EndSplineSet
EndChar

StartChar: amacron
Encoding: 257 257 193
Width: 733
Flags: W
HStem: -15 151<245.285 422.041> 0 21G<492.5 670.453> 377 151<358.658 497.059> 634 120<291.841 682.121>
LayerCount: 2
Fore
SplineSet
293.302734375 256 m 0xb0
 282.965820312 186 323.583007812 136 395.583007812 136 c 0
 464.583007812 136 521.965820312 186 532.302734375 256 c 0
 542.787109375 327 497.170898438 377 431.170898438 377 c 0
 364.170898438 377 303.787109375 327 293.302734375 256 c 0xb0
734.541015625 454 m 2
 667.5 0 l 1
 492.5 0 l 1x70
 501.064453125 58 l 1
 456.862304688 16 390.28515625 -15 320.28515625 -15 c 0
 170.28515625 -15 83.15234375 106 105.302734375 256 c 0
 127.453125 406 250.467773438 528 400.467773438 528 c 0
 469.467773438 528 746.887695312 541 734.541015625 454 c 2
291.840820312 754 m 1
 699.840820312 754 l 1
 682.12109375 634 l 1
 274.12109375 634 l 1
 291.840820312 754 l 1
EndSplineSet
EndChar

StartChar: Abreve
Encoding: 258 258 194
Width: 930
Flags: W
HStem: 0 21G<45 257.226 678.438 885> 165 165<419.73 605.73> 805 20G<487.823 677.969> 940 109<561.393 685.374>
LayerCount: 2
Fore
SplineSet
740.112304688 1152 m 1
 861.53515625 1121 l 1
 833.734375 1014 732.806640625 940 603.806640625 940 c 0
 474.806640625 940 395.734375 1014 399.53515625 1121 c 1
 530.112304688 1152 l 1
 530.112304688 1152 525.903320312 1049 619.903320312 1049 c 0
 713.903320312 1049 740.112304688 1152 740.112304688 1152 c 1
672.825195312 825 m 1
 885 0 l 1
 683 0 l 1
 645.365234375 165 l 1
 331.365234375 165 l 1
 247 0 l 1
 45 0 l 1
 498.825195312 825 l 1
 672.825195312 825 l 1
605.73046875 330 m 1
 547.169921875 570 l 1
 419.73046875 330 l 1
 605.73046875 330 l 1
EndSplineSet
EndChar

StartChar: abreve
Encoding: 259 259 195
Width: 733
Flags: W
HStem: -15 151<245.285 422.041> 0 21G<492.5 670.453> 377 151<358.658 497.059> 628 109<434.821 558.802> 820 20G<613.54 691.877>
LayerCount: 2
Fore
SplineSet
293.302734375 256 m 0xb8
 282.965820312 186 323.583007812 136 395.583007812 136 c 0
 464.583007812 136 521.965820312 186 532.302734375 256 c 0
 542.787109375 327 497.170898438 377 431.170898438 377 c 0
 364.170898438 377 303.787109375 327 293.302734375 256 c 0xb8
734.541015625 454 m 2
 667.5 0 l 1
 492.5 0 l 1x78
 501.064453125 58 l 1
 456.862304688 16 390.28515625 -15 320.28515625 -15 c 0
 170.28515625 -15 83.15234375 106 105.302734375 256 c 0
 127.453125 406 250.467773438 528 400.467773438 528 c 0
 469.467773438 528 746.887695312 541 734.541015625 454 c 2
613.540039062 840 m 1
 734.962890625 809 l 1
 707.162109375 702 606.235351562 628 477.235351562 628 c 0
 348.235351562 628 269.162109375 702 272.962890625 809 c 1
 403.540039062 840 l 1
 403.540039062 840 399.331054688 737 493.331054688 737 c 0
 587.331054688 737 613.540039062 840 613.540039062 840 c 1
EndSplineSet
EndChar

StartChar: Aogonek
Encoding: 260 260 196
Width: 932
Flags: W
HStem: -275 96<662.465 764.731> 0 21G<46 258.226> 165 165<420.73 606.73> 805 20G<488.823 678.969>
LayerCount: 2
Fore
SplineSet
606.73046875 330 m 1
 548.169921875 570 l 1
 420.73046875 330 l 1
 606.73046875 330 l 1
673.825195312 825 m 1
 886 0 l 1
 766 0 l 1
 766 0 696.663085938 -70 686.326171875 -140 c 0
 682.634765625 -165 700.567382812 -179 717.567382812 -179 c 0
 748.567382812 -179 772.998046875 -149 772.998046875 -149 c 1
 837.0234375 -203 l 1
 837.0234375 -203 781.391601562 -275 689.391601562 -275 c 0
 637.391601562 -275 567.821289062 -245 580.668945312 -158 c 0
 589.0859375 -101 648.83203125 -35 684 0 c 1
 646.365234375 165 l 1
 332.365234375 165 l 1
 248 0 l 1
 46 0 l 1
 499.825195312 825 l 1
 673.825195312 825 l 1
EndSplineSet
EndChar

StartChar: aogonek
Encoding: 261 261 197
Width: 735
Flags: W
HStem: -275 96<466.965 569.231> -15 151<245.285 422.041> 377 151<358.658 497.059>
LayerCount: 2
Fore
SplineSet
492.5 0 m 1
 501.064453125 58 l 1
 456.862304688 16 390.28515625 -15 320.28515625 -15 c 0
 170.28515625 -15 83.15234375 106 105.302734375 256 c 0
 127.453125 406 250.467773438 528 400.467773438 528 c 0
 469.467773438 528 746.887695312 541 734.541015625 454 c 2
 667.5 0 l 1
 571.5 0 l 1
 571.5 0 501.163085938 -70 490.826171875 -140 c 0
 487.134765625 -165 505.067382812 -179 522.067382812 -179 c 0
 553.067382812 -179 577.498046875 -149 577.498046875 -149 c 1
 641.5234375 -203 l 1
 641.5234375 -203 585.891601562 -275 493.891601562 -275 c 0
 441.891601562 -275 372.321289062 -245 385.168945312 -158 c 0
 393.5859375 -101 457.33203125 -35 492.5 0 c 1
293.302734375 256 m 0
 282.965820312 186 323.583007812 136 395.583007812 136 c 0
 464.583007812 136 521.965820312 186 532.302734375 256 c 0
 542.787109375 327 497.170898438 377 431.170898438 377 c 0
 364.170898438 377 303.787109375 327 293.302734375 256 c 0
EndSplineSet
EndChar

StartChar: Cacute
Encoding: 262 262 198
Width: 826
Flags: W
HStem: -15 185<443.713 684.271> 655 185<506.451 780.505>
LayerCount: 2
Fore
SplineSet
742.69140625 25 m 1
 742.69140625 25 677.78515625 -15 498.78515625 -15 c 0
 265.78515625 -15 79.841796875 175 114.69140625 411 c 0
 149.688476562 648 391.040039062 840 625.040039062 840 c 0
 804.040039062 840 857.133789062 800 857.133789062 800 c 1
 789.815429688 615 l 1
 789.815429688 615 722.721679688 655 626.721679688 655 c 0
 437.721679688 655 335.229492188 523 318.986328125 413 c 0
 302.595703125 302 366.103515625 170 555.103515625 170 c 0
 651.103515625 170 730.009765625 210 730.009765625 210 c 1
 742.69140625 25 l 1
446.123046875 976 m 1
 675.112304688 1152 l 1
 749.130859375 1037 l 1
 490.752929688 899 l 1
 446.123046875 976 l 1
EndSplineSet
EndChar

StartChar: cacute
Encoding: 263 263 199
Width: 570
Flags: W
HStem: -15 145<320.161 464.776> 383 145<351.297 515.166> 820 20G<523.019 561.913>
LayerCount: 2
Fore
SplineSet
514.578125 31 m 1
 514.578125 31 449.78515625 -15 335.78515625 -15 c 0
 187.78515625 -15 69.5048828125 105 91.6552734375 255 c 0
 113.953125 406 266.967773438 528 415.967773438 528 c 0
 529.967773438 528 580.879882812 480 580.879882812 480 c 1
 503.012695312 359 l 1
 503.012695312 359 473.556640625 383 420.556640625 383 c 0
 353.556640625 383 290.287109375 327 279.950195312 257 c 0
 269.465820312 186 316.196289062 130 383.196289062 130 c 0
 436.196289062 130 472.741210938 154 472.741210938 154 c 1
 514.578125 31 l 1
320.05078125 664 m 1
 549.040039062 840 l 1
 623.05859375 725 l 1
 364.680664062 587 l 1
 320.05078125 664 l 1
EndSplineSet
EndChar

StartChar: Ccircumflex
Encoding: 264 264 200
Width: 826
Flags: W
HStem: -15 185<443.713 684.271> 655 185<506.451 780.505>
LayerCount: 2
Fore
SplineSet
742.69140625 25 m 1
 742.69140625 25 677.78515625 -15 498.78515625 -15 c 0
 265.78515625 -15 79.841796875 175 114.69140625 411 c 0
 149.688476562 648 391.040039062 840 625.040039062 840 c 0
 804.040039062 840 857.133789062 800 857.133789062 800 c 1
 789.815429688 615 l 1
 789.815429688 615 722.721679688 655 626.721679688 655 c 0
 437.721679688 655 335.229492188 523 318.986328125 413 c 0
 302.595703125 302 366.103515625 170 555.103515625 170 c 0
 651.103515625 170 730.009765625 210 730.009765625 210 c 1
 742.69140625 25 l 1
375.123046875 976 m 1
 620.044921875 1138 l 1
 817.123046875 976 l 1
 735.685546875 885 l 1
 599.224609375 997 l 1
 429.685546875 885 l 1
 375.123046875 976 l 1
EndSplineSet
EndChar

StartChar: ccircumflex
Encoding: 265 265 201
Width: 571
Flags: W
HStem: -15 145<320.161 464.776> 383 145<351.297 515.166>
LayerCount: 2
Fore
SplineSet
514.578125 31 m 1
 514.578125 31 449.78515625 -15 335.78515625 -15 c 0
 187.78515625 -15 69.5048828125 105 91.6552734375 255 c 0
 113.953125 406 266.967773438 528 415.967773438 528 c 0
 529.967773438 528 580.879882812 480 580.879882812 480 c 1
 503.012695312 359 l 1
 503.012695312 359 473.556640625 383 420.556640625 383 c 0
 353.556640625 383 290.287109375 327 279.950195312 257 c 0
 269.465820312 186 316.196289062 130 383.196289062 130 c 0
 436.196289062 130 472.741210938 154 472.741210938 154 c 1
 514.578125 31 l 1
172.165039062 658 m 1
 417.086914062 820 l 1
 614.165039062 658 l 1
 532.727539062 567 l 1
 396.265625 679 l 1
 226.727539062 567 l 1
 172.165039062 658 l 1
EndSplineSet
EndChar

StartChar: Cdotaccent
Encoding: 266 266 202
Width: 826
Flags: W
HStem: -15 185<443.713 684.271> 655 185<506.451 780.505> 919 184<550.184 646.399>
VStem: 506.291 184<961.329 1060.67>
LayerCount: 2
Fore
SplineSet
742.69140625 25 m 1
 742.69140625 25 677.78515625 -15 498.78515625 -15 c 0
 265.78515625 -15 79.841796875 175 114.69140625 411 c 0
 149.688476562 648 391.040039062 840 625.040039062 840 c 0
 804.040039062 840 857.133789062 800 857.133789062 800 c 1
 789.815429688 615 l 1
 789.815429688 615 722.721679688 655 626.721679688 655 c 0
 437.721679688 655 335.229492188 523 318.986328125 413 c 0
 302.595703125 302 366.103515625 170 555.103515625 170 c 0
 651.103515625 170 730.009765625 210 730.009765625 210 c 1
 742.69140625 25 l 1
611.876953125 1103 m 0
 662.876953125 1103 697.822265625 1062 690.291015625 1011 c 0
 682.760742188 960 635.706054688 919 584.706054688 919 c 0
 533.706054688 919 498.760742188 960 506.291015625 1011 c 0
 513.822265625 1062 560.876953125 1103 611.876953125 1103 c 0
EndSplineSet
EndChar

StartChar: cdotaccent
Encoding: 267 267 203
Width: 567
Flags: W
HStem: -15 145<320.161 464.776> 383 145<351.297 515.166> 597 184<351.135 447.35>
VStem: 307.242 184<639.329 738.671>
LayerCount: 2
Fore
SplineSet
514.578125 31 m 1
 514.578125 31 449.78515625 -15 335.78515625 -15 c 0
 187.78515625 -15 69.5048828125 105 91.6552734375 255 c 0
 113.953125 406 266.967773438 528 415.967773438 528 c 0
 529.967773438 528 580.879882812 480 580.879882812 480 c 1
 503.012695312 359 l 1
 503.012695312 359 473.556640625 383 420.556640625 383 c 0
 353.556640625 383 290.287109375 327 279.950195312 257 c 0
 269.465820312 186 316.196289062 130 383.196289062 130 c 0
 436.196289062 130 472.741210938 154 472.741210938 154 c 1
 514.578125 31 l 1
412.828125 781 m 0
 463.828125 781 498.7734375 740 491.2421875 689 c 0
 483.711914062 638 436.657226562 597 385.657226562 597 c 0
 334.657226562 597 299.711914062 638 307.2421875 689 c 0
 314.7734375 740 361.828125 781 412.828125 781 c 0
EndSplineSet
EndChar

StartChar: Ccaron
Encoding: 268 268 204
Width: 826
Flags: W
HStem: -15 185<443.713 684.271> 655 185<506.451 780.505>
LayerCount: 2
Fore
SplineSet
742.69140625 25 m 1
 742.69140625 25 677.78515625 -15 498.78515625 -15 c 0
 265.78515625 -15 79.841796875 175 114.69140625 411 c 0
 149.688476562 648 391.040039062 840 625.040039062 840 c 0
 804.040039062 840 857.133789062 800 857.133789062 800 c 1
 789.815429688 615 l 1
 789.815429688 615 722.721679688 655 626.721679688 655 c 0
 437.721679688 655 335.229492188 523 318.986328125 413 c 0
 302.595703125 302 366.103515625 170 555.103515625 170 c 0
 651.103515625 170 730.009765625 210 730.009765625 210 c 1
 742.69140625 25 l 1
489.112304688 1152 m 1
 625.57421875 1040 l 1
 795.112304688 1152 l 1
 849.674804688 1061 l 1
 604.752929688 899 l 1
 407.674804688 1061 l 1
 489.112304688 1152 l 1
EndSplineSet
EndChar

StartChar: ccaron
Encoding: 269 269 205
Width: 568
Flags: W
HStem: -15 145<320.161 464.776> 383 145<351.297 515.166> 820 20G<243.142 285.408 536.765 579.032>
LayerCount: 2
Fore
SplineSet
514.578125 31 m 1
 514.578125 31 449.78515625 -15 335.78515625 -15 c 0
 187.78515625 -15 69.5048828125 105 91.6552734375 255 c 0
 113.953125 406 266.967773438 528 415.967773438 528 c 0
 529.967773438 528 580.879882812 480 580.879882812 480 c 1
 503.012695312 359 l 1
 503.012695312 359 473.556640625 383 420.556640625 383 c 0
 353.556640625 383 290.287109375 327 279.950195312 257 c 0
 269.465820312 186 316.196289062 130 383.196289062 130 c 0
 436.196289062 130 472.741210938 154 472.741210938 154 c 1
 514.578125 31 l 1
261.040039062 840 m 1
 397.501953125 728 l 1
 567.040039062 840 l 1
 621.602539062 749 l 1
 376.680664062 587 l 1
 179.602539062 749 l 1
 261.040039062 840 l 1
EndSplineSet
EndChar

StartChar: Dcaron
Encoding: 270 270 206
Width: 791
Flags: W
HStem: 0 168<280.808 417.353> 657 168<353.018 480.604>
LayerCount: 2
Fore
SplineSet
582.838867188 412 m 0
 604.102539062 556 556.017578125 657 353.017578125 657 c 1
 280.807617188 168 l 1
 483.807617188 168 561.575195312 268 582.838867188 412 c 0
189.825195312 825 m 1
 428.825195312 825 l 2
 654.825195312 825 819.426757812 653 783.986328125 413 c 0
 748.3984375 172 534 0 307 0 c 2
 68 0 l 1
 189.825195312 825 l 1
385.112304688 1152 m 1
 521.57421875 1040 l 1
 691.112304688 1152 l 1
 745.674804688 1061 l 1
 500.752929688 899 l 1
 303.674804688 1061 l 1
 385.112304688 1152 l 1
EndSplineSet
EndChar

StartChar: dcaron
Encoding: 271 271 207
Width: 931
Flags: W
HStem: -15 151<231.785 409.699> 0 21G<479 656.953> 377 151<345.158 518.367> 513 21G<799.9 858.092>
LayerCount: 2
Fore
SplineSet
279.802734375 256 m 0xa0
 269.465820312 186 310.083007812 136 382.083007812 136 c 0
 442.499023438 136 494.0078125 174.333007812 512.829101562 230.860351562 c 1
 520.174804688 281.5625 l 1
 517.575195312 338.708984375 475.427734375 377 417.670898438 377 c 0
 350.670898438 377 290.287109375 327 279.802734375 256 c 0xa0
654 0 m 1x60
 479 0 l 1x60
 487.564453125 58 l 1
 443.362304688 16 376.78515625 -15 306.78515625 -15 c 0x80
 156.78515625 -15 69.65234375 106 91.802734375 256 c 0
 113.953125 406 236.967773438 528 386.967773438 528 c 0
 417.170898438 528 487.306640625 530.491210938 555.594726562 525.995117188 c 1
 603.994140625 860 l 1
 780.994140625 860 l 1
 654 0 l 1x60
908.677734375 824 m 0
 958.677734375 824 992.771484375 784 985.387695312 734 c 0
 971.654296875 641 893.431640625 565 822.752929688 513 c 1x10
 787.331054688 544 l 1
 787.331054688 544 840.975585938 589 862.57421875 654 c 1
 825.903320312 663 801.481445312 694 807.387695312 734 c 0
 814.771484375 784 860.677734375 824 908.677734375 824 c 0
EndSplineSet
EndChar

StartChar: Dcroat
Encoding: 272 272 208
Width: 851
Flags: W
HStem: 0 168<351.808 488.353> 657 168<424.018 551.604>
LayerCount: 2
Fore
SplineSet
653.838867188 412 m 0
 675.102539062 556 627.017578125 657 424.017578125 657 c 1
 399.208984375 489 l 1
 509.810546875 461.194335938 l 1
 496.576171875 371.572265625 l 1
 376.616210938 336 l 1
 351.807617188 168 l 1
 554.807617188 168 632.575195312 268 653.838867188 412 c 0
211.208984375 489 m 1
 260.825195312 825 l 1
 499.825195312 825 l 2
 725.825195312 825 890.426757812 653 854.986328125 413 c 0
 819.3984375 172 605 0 378 0 c 2
 139 0 l 1
 188.616210938 336 l 1
 111.869140625 371.572265625 l 1
 125.103515625 461.194335938 l 1
 211.208984375 489 l 1
EndSplineSet
EndChar

StartChar: dcroat
Encoding: 273 273 209
Width: 774
Flags: W
HStem: -15 151<227.785 405.699> 0 21G<475 652.953> 377 151<341.158 514.367> 628 114<458.069 566.376 759.569 816.235>
LayerCount: 2
Fore
SplineSet
650 0 m 1x70
 475 0 l 1x70
 483.564453125 58 l 1
 439.362304688 16 372.78515625 -15 302.78515625 -15 c 0xb0
 152.78515625 -15 65.65234375 106 87.802734375 256 c 0
 109.953125 406 232.967773438 528 382.967773438 528 c 0
 413.170898438 528 483.306640625 530.491210938 551.594726562 525.995117188 c 1
 566.375976562 628 l 1
 441.235351562 628 l 1
 458.069335938 742 l 1
 582.895507812 742 l 1
 599.994140625 860 l 1
 776.994140625 860 l 1
 759.569335938 742 l 1
 833.069335938 742 l 1
 816.235351562 628 l 1
 742.735351562 628 l 1
 650 0 l 1x70
275.802734375 256 m 0
 265.465820312 186 306.083007812 136 378.083007812 136 c 0xb0
 438.499023438 136 490.0078125 174.333007812 508.829101562 230.860351562 c 1
 516.174804688 281.5625 l 1
 513.575195312 338.708984375 471.427734375 377 413.670898438 377 c 0
 346.670898438 377 286.287109375 327 275.802734375 256 c 0
EndSplineSet
EndChar

StartChar: Emacron
Encoding: 274 274 210
Width: 613
Flags: W
HStem: 0 165<282.865 542.5> 331 165<331.743 579.378> 660 165<355.96 639.96> 946 120<253.913 644.193>
LayerCount: 2
Fore
SplineSet
664.325195312 825 m 1
 639.959960938 660 l 1
 355.959960938 660 l 1
 331.743164062 496 l 1
 603.743164062 496 l 1
 579.377929688 331 l 1
 307.377929688 331 l 1
 282.865234375 165 l 1
 566.865234375 165 l 1
 542.5 0 l 1
 70.5 0 l 1
 192.325195312 825 l 1
 664.325195312 825 l 1
253.913085938 1066 m 1
 661.913085938 1066 l 1
 644.193359375 946 l 1
 236.193359375 946 l 1
 253.913085938 1066 l 1
EndSplineSet
EndChar

StartChar: emacron
Encoding: 275 275 211
Width: 676
Flags: W
HStem: -15 21G<261.785 396.285> 227 90<295.311 490.311> 413 115<345.837 462.318> 634 120<244.841 635.121>
LayerCount: 2
Fore
SplineSet
295.310546875 317 m 1
 490.310546875 317 l 1
 490.284179688 371 459.486328125 413 407.486328125 413 c 0
 346.486328125 413 305.250976562 364 295.310546875 317 c 1
505.046875 173 m 1
 625.072265625 119 l 1
 552.749023438 22 453.28515625 -15 339.28515625 -15 c 0
 184.28515625 -15 75.30078125 107 97.302734375 256 c 0
 119.453125 406 264.467773438 528 419.467773438 528 c 0
 575.467773438 528 678.224609375 418 650.020507812 227 c 1
 277.020507812 227 l 1
 264.321289062 141 375.360351562 60 505.046875 173 c 1
244.840820312 754 m 1
 652.840820312 754 l 1
 635.12109375 634 l 1
 227.12109375 634 l 1
 244.840820312 754 l 1
EndSplineSet
EndChar

StartChar: Ebreve
Encoding: 276 276 212
Width: 612
Flags: W
HStem: 0 165<281.865 541.5> 331 165<330.743 578.378> 660 165<354.96 638.96> 913 109<403.906 527.887>
LayerCount: 2
Fore
SplineSet
663.325195312 825 m 1
 638.959960938 660 l 1
 354.959960938 660 l 1
 330.743164062 496 l 1
 602.743164062 496 l 1
 578.377929688 331 l 1
 306.377929688 331 l 1
 281.865234375 165 l 1
 565.865234375 165 l 1
 541.5 0 l 1
 69.5 0 l 1
 191.325195312 825 l 1
 663.325195312 825 l 1
582.625976562 1125 m 1
 704.047851562 1094 l 1
 676.247070312 987 575.3203125 913 446.3203125 913 c 0
 317.3203125 913 238.247070312 987 242.047851562 1094 c 1
 372.625976562 1125 l 1
 372.625976562 1125 368.416015625 1022 462.416015625 1022 c 0
 556.416015625 1022 582.625976562 1125 582.625976562 1125 c 1
EndSplineSet
EndChar

StartChar: ebreve
Encoding: 277 277 213
Width: 675
Flags: W
HStem: -15 21G<261.785 396.285> 227 90<295.311 490.311> 413 115<345.837 462.318> 595 109<386.948 510.929>
LayerCount: 2
Fore
SplineSet
295.310546875 317 m 1
 490.310546875 317 l 1
 490.284179688 371 459.486328125 413 407.486328125 413 c 0
 346.486328125 413 305.250976562 364 295.310546875 317 c 1
505.046875 173 m 1
 625.072265625 119 l 1
 552.749023438 22 453.28515625 -15 339.28515625 -15 c 0
 184.28515625 -15 75.30078125 107 97.302734375 256 c 0
 119.453125 406 264.467773438 528 419.467773438 528 c 0
 575.467773438 528 678.224609375 418 650.020507812 227 c 1
 277.020507812 227 l 1
 264.321289062 141 375.360351562 60 505.046875 173 c 1
565.666992188 807 m 1
 687.08984375 776 l 1
 659.2890625 669 558.362304688 595 429.362304688 595 c 0
 300.362304688 595 221.2890625 669 225.08984375 776 c 1
 355.666992188 807 l 1
 355.666992188 807 351.458007812 704 445.458007812 704 c 0
 539.458007812 704 565.666992188 807 565.666992188 807 c 1
EndSplineSet
EndChar

StartChar: Edotaccent
Encoding: 278 278 214
Width: 613
Flags: W
HStem: 0 165<282.865 542.5> 331 165<331.743 579.378> 660 165<355.96 639.96> 919 184<401.684 497.899>
VStem: 357.791 184<961.329 1060.67>
LayerCount: 2
Fore
SplineSet
664.325195312 825 m 1
 639.959960938 660 l 1
 355.959960938 660 l 1
 331.743164062 496 l 1
 603.743164062 496 l 1
 579.377929688 331 l 1
 307.377929688 331 l 1
 282.865234375 165 l 1
 566.865234375 165 l 1
 542.5 0 l 1
 70.5 0 l 1
 192.325195312 825 l 1
 664.325195312 825 l 1
463.376953125 1103 m 0
 514.376953125 1103 549.322265625 1062 541.791015625 1011 c 0
 534.260742188 960 487.206054688 919 436.206054688 919 c 0
 385.206054688 919 350.260742188 960 357.791015625 1011 c 0
 365.322265625 1062 412.376953125 1103 463.376953125 1103 c 0
EndSplineSet
EndChar

StartChar: edotaccent
Encoding: 279 279 215
Width: 676
Flags: W
HStem: -15 21G<261.785 396.285> 227 90<295.311 490.311> 413 115<345.837 462.318> 607 184<392.612 488.826>
VStem: 348.72 184<649.329 748.671>
LayerCount: 2
Fore
SplineSet
295.310546875 317 m 1
 490.310546875 317 l 1
 490.284179688 371 459.486328125 413 407.486328125 413 c 0
 346.486328125 413 305.250976562 364 295.310546875 317 c 1
505.046875 173 m 1
 625.072265625 119 l 1
 552.749023438 22 453.28515625 -15 339.28515625 -15 c 0
 184.28515625 -15 75.30078125 107 97.302734375 256 c 0
 119.453125 406 264.467773438 528 419.467773438 528 c 0
 575.467773438 528 678.224609375 418 650.020507812 227 c 1
 277.020507812 227 l 1
 264.321289062 141 375.360351562 60 505.046875 173 c 1
454.3046875 791 m 0
 505.3046875 791 540.25 750 532.719726562 699 c 0
 525.188476562 648 478.133789062 607 427.133789062 607 c 0
 376.133789062 607 341.188476562 648 348.719726562 699 c 0
 356.25 750 403.3046875 791 454.3046875 791 c 0
EndSplineSet
EndChar

StartChar: Eogonek
Encoding: 280 280 216
Width: 612
Flags: W
HStem: -275 96<339.465 441.731> 0 165<280.365 361 443 540> 331 165<329.243 576.878> 660 165<353.46 637.46>
LayerCount: 2
Fore
SplineSet
661.825195312 825 m 1
 637.459960938 660 l 1
 353.459960938 660 l 1
 329.243164062 496 l 1
 601.243164062 496 l 1
 576.877929688 331 l 1
 304.877929688 331 l 1
 280.365234375 165 l 1
 564.365234375 165 l 1
 540 0 l 1
 443 0 l 1
 443 0 373.663085938 -70 363.326171875 -140 c 0
 359.634765625 -165 377.567382812 -179 394.567382812 -179 c 0
 425.567382812 -179 449.998046875 -149 449.998046875 -149 c 1
 514.0234375 -203 l 1
 514.0234375 -203 458.391601562 -275 366.391601562 -275 c 0
 314.391601562 -275 244.821289062 -245 257.668945312 -158 c 0
 265.790039062 -103 325.68359375 -36 361 0 c 1
 68 0 l 1
 189.825195312 825 l 1
 661.825195312 825 l 1
EndSplineSet
EndChar

StartChar: eogonek
Encoding: 281 281 217
Width: 679
Flags: W
HStem: -275 96<352.465 454.731> -15 21G<261.785 342.658> 227 90<295.311 490.311> 413 115<345.837 462.318>
LayerCount: 2
Fore
SplineSet
456 0 m 1
 456 0 386.663085938 -70 376.326171875 -140 c 0
 372.634765625 -165 390.567382812 -179 407.567382812 -179 c 0
 438.567382812 -179 462.998046875 -149 462.998046875 -149 c 1
 527.0234375 -203 l 1
 527.0234375 -203 471.391601562 -275 379.391601562 -275 c 0
 327.391601562 -275 257.821289062 -245 270.668945312 -158 c 0
 277.71875 -110.254882812 323.828125 -52.615234375 359.364257812 -14.6064453125 c 1
 352.723632812 -14.8701171875 346.030273438 -15 339.28515625 -15 c 0
 184.28515625 -15 75.30078125 107 97.302734375 256 c 0
 119.453125 406 264.467773438 528 419.467773438 528 c 0
 575.467773438 528 678.224609375 418 650.020507812 227 c 1
 277.020507812 227 l 1
 264.321289062 141 375.360351562 60 505.046875 173 c 1
 625.072265625 119 l 1
 578.760742188 56.8876953125 521.2578125 18.947265625 456 0 c 1
295.310546875 317 m 1
 490.310546875 317 l 1
 490.284179688 371 459.486328125 413 407.486328125 413 c 0
 346.486328125 413 305.250976562 364 295.310546875 317 c 1
EndSplineSet
EndChar

StartChar: Ecaron
Encoding: 282 282 218
Width: 612
Flags: W
HStem: 0 165<282.365 542> 331 165<331.243 578.878> 660 165<355.46 639.46>
LayerCount: 2
Fore
SplineSet
663.825195312 825 m 1
 639.459960938 660 l 1
 355.459960938 660 l 1
 331.243164062 496 l 1
 603.243164062 496 l 1
 578.877929688 331 l 1
 306.877929688 331 l 1
 282.365234375 165 l 1
 566.365234375 165 l 1
 542 0 l 1
 70 0 l 1
 191.825195312 825 l 1
 663.825195312 825 l 1
317.112304688 1152 m 1
 453.57421875 1040 l 1
 623.112304688 1152 l 1
 677.674804688 1061 l 1
 432.752929688 899 l 1
 235.674804688 1061 l 1
 317.112304688 1152 l 1
EndSplineSet
EndChar

StartChar: ecaron
Encoding: 283 283 219
Width: 675
Flags: W
HStem: -15 21G<261.785 396.285> 227 90<295.311 490.311> 413 115<345.837 462.318> 820 20G<290.142 332.408 583.765 626.032>
LayerCount: 2
Fore
SplineSet
295.310546875 317 m 1
 490.310546875 317 l 1
 490.284179688 371 459.486328125 413 407.486328125 413 c 0
 346.486328125 413 305.250976562 364 295.310546875 317 c 1
505.046875 173 m 1
 625.072265625 119 l 1
 552.749023438 22 453.28515625 -15 339.28515625 -15 c 0
 184.28515625 -15 75.30078125 107 97.302734375 256 c 0
 119.453125 406 264.467773438 528 419.467773438 528 c 0
 575.467773438 528 678.224609375 418 650.020507812 227 c 1
 277.020507812 227 l 1
 264.321289062 141 375.360351562 60 505.046875 173 c 1
308.040039062 840 m 1
 444.501953125 728 l 1
 614.040039062 840 l 1
 668.602539062 749 l 1
 423.680664062 587 l 1
 226.602539062 749 l 1
 308.040039062 840 l 1
EndSplineSet
EndChar

StartChar: Gcircumflex
Encoding: 284 284 220
Width: 908
Flags: W
HStem: -15 173<418.273 589.887> 0 21G<788.894 845.953> 317 145<528.811 698.811> 670 170<488.867 663.307>
LayerCount: 2
Fore
SplineSet
911.22265625 462 m 1xb0
 843 0 l 1x70
 751.020507812 34 l 1
 764.360351562 93.81640625 l 1
 684.674804688 18.2783203125 579.306640625 -15 459.78515625 -15 c 0
 237.78515625 -15 85.9892578125 176 120.838867188 412 c 0
 155.8359375 649 354.040039062 840 586.040039062 840 c 0
 731.040039062 840 824.06640625 786 883.219726562 699 c 1
 740.284179688 564 l 1
 703.654296875 641 644.936523438 670 571.936523438 670 c 0
 455.936523438 670 344.955078125 555 323.838867188 412 c 0
 303.165039062 272 380.331054688 158 496.331054688 158 c 0
 586.331054688 158 683.896484375 216 698.810546875 317 c 1
 528.810546875 317 l 1
 516.22265625 462 l 1
 911.22265625 462 l 1xb0
376.828125 974 m 1
 621.75 1136 l 1
 818.828125 974 l 1
 737.389648438 883 l 1
 600.928710938 995 l 1
 431.389648438 883 l 1
 376.828125 974 l 1
EndSplineSet
EndChar

StartChar: gcircumflex
Encoding: 285 285 221
Width: 732
Flags: W
HStem: -275 154<257.746 420.254> -15 151<243.785 448.494> 377 151<357.158 532.502>
LayerCount: 2
Fore
SplineSet
703.802734375 256 m 2
 663.932617188 -14 l 2
 638.534179688 -186 498.391601562 -275 323.391601562 -275 c 0
 216.391601562 -275 96.935546875 -251 61.3935546875 -126 c 1
 216.877929688 -55 l 1
 231.30078125 -86 269.131835938 -121 346.131835938 -121 c 0
 395.131835938 -121 475.415039062 -92 488.852539062 -1 c 2
 494.463867188 37 l 1
 450.26171875 -5 388.78515625 -15 318.78515625 -15 c 0
 168.78515625 -15 81.65234375 106 103.802734375 256 c 0
 125.953125 406 248.967773438 528 398.967773438 528 c 0
 690.618164062 528 743.967773438 528 703.802734375 256 c 2
291.802734375 256 m 0
 281.465820312 186 322.083007812 136 394.083007812 136 c 0
 463.083007812 136 520.465820312 186 530.802734375 256 c 0
 531.975585938 263.943359375 538.869140625 310.623046875 539.791015625 318 c 0
 545.344726562 364.561523438 535.358398438 377 429.670898438 377 c 0
 362.670898438 377 302.287109375 327 291.802734375 256 c 0
281.094726562 688 m 1
 526.016601562 850 l 1
 723.094726562 688 l 1
 641.657226562 597 l 1
 505.196289062 709 l 1
 335.657226562 597 l 1
 281.094726562 688 l 1
EndSplineSet
EndChar

StartChar: Gbreve
Encoding: 286 286 222
Width: 908
Flags: W
HStem: -15 173<418.273 589.887> 0 21G<788.894 845.953> 317 145<528.811 698.811> 670 170<488.867 663.307> 911 109<556.61 680.591>
LayerCount: 2
Fore
SplineSet
911.22265625 462 m 1xb8
 843 0 l 1x78
 751.020507812 34 l 1
 764.360351562 93.81640625 l 1
 684.674804688 18.2783203125 579.306640625 -15 459.78515625 -15 c 0
 237.78515625 -15 85.9892578125 176 120.838867188 412 c 0
 155.8359375 649 354.040039062 840 586.040039062 840 c 0
 731.040039062 840 824.06640625 786 883.219726562 699 c 1
 740.284179688 564 l 1
 703.654296875 641 644.936523438 670 571.936523438 670 c 0
 455.936523438 670 344.955078125 555 323.838867188 412 c 0
 303.165039062 272 380.331054688 158 496.331054688 158 c 0
 586.331054688 158 683.896484375 216 698.810546875 317 c 1
 528.810546875 317 l 1
 516.22265625 462 l 1
 911.22265625 462 l 1xb8
735.330078125 1123 m 1
 856.752929688 1092 l 1
 828.952148438 985 728.024414062 911 599.024414062 911 c 0
 470.024414062 911 390.952148438 985 394.752929688 1092 c 1
 525.330078125 1123 l 1
 525.330078125 1123 521.120117188 1020 615.120117188 1020 c 0
 709.120117188 1020 735.330078125 1123 735.330078125 1123 c 1
EndSplineSet
EndChar

StartChar: gbreve
Encoding: 287 287 223
Width: 732
Flags: W
HStem: -275 154<258.246 420.754> -15 151<244.285 448.994> 377 151<357.658 533.002> 598 109<415.39 539.371>
LayerCount: 2
Fore
SplineSet
704.302734375 256 m 2
 664.432617188 -14 l 2
 639.034179688 -186 498.891601562 -275 323.891601562 -275 c 0
 216.891601562 -275 97.435546875 -251 61.8935546875 -126 c 1
 217.377929688 -55 l 1
 231.80078125 -86 269.631835938 -121 346.631835938 -121 c 0
 395.631835938 -121 475.915039062 -92 489.352539062 -1 c 2
 494.963867188 37 l 1
 450.76171875 -5 389.28515625 -15 319.28515625 -15 c 0
 169.28515625 -15 82.15234375 106 104.302734375 256 c 0
 126.453125 406 249.467773438 528 399.467773438 528 c 0
 691.118164062 528 744.467773438 528 704.302734375 256 c 2
292.302734375 256 m 0
 281.965820312 186 322.583007812 136 394.583007812 136 c 0
 463.583007812 136 520.965820312 186 531.302734375 256 c 0
 532.475585938 263.943359375 539.369140625 310.623046875 540.291015625 318 c 0
 545.844726562 364.561523438 535.858398438 377 430.170898438 377 c 0
 363.170898438 377 302.787109375 327 292.302734375 256 c 0
594.110351562 810 m 1
 715.532226562 779 l 1
 687.732421875 672 586.8046875 598 457.8046875 598 c 0
 328.8046875 598 249.732421875 672 253.532226562 779 c 1
 384.110351562 810 l 1
 384.110351562 810 379.900390625 707 473.900390625 707 c 0
 567.900390625 707 594.110351562 810 594.110351562 810 c 1
EndSplineSet
EndChar

StartChar: Gdotaccent
Encoding: 288 288 224
Width: 908
Flags: W
HStem: -15 173<418.273 589.887> 0 21G<788.894 845.953> 317 145<528.811 698.811> 670 170<488.867 663.307> 919 184<561.184 657.399>
VStem: 517.291 184<961.329 1060.67>
LayerCount: 2
Fore
SplineSet
911.22265625 462 m 1xbc
 843 0 l 1x7c
 751.020507812 34 l 1
 764.360351562 93.81640625 l 1
 684.674804688 18.2783203125 579.306640625 -15 459.78515625 -15 c 0
 237.78515625 -15 85.9892578125 176 120.838867188 412 c 0
 155.8359375 649 354.040039062 840 586.040039062 840 c 0
 731.040039062 840 824.06640625 786 883.219726562 699 c 1
 740.284179688 564 l 1
 703.654296875 641 644.936523438 670 571.936523438 670 c 0
 455.936523438 670 344.955078125 555 323.838867188 412 c 0
 303.165039062 272 380.331054688 158 496.331054688 158 c 0
 586.331054688 158 683.896484375 216 698.810546875 317 c 1
 528.810546875 317 l 1
 516.22265625 462 l 1
 911.22265625 462 l 1xbc
622.876953125 1103 m 0
 673.876953125 1103 708.822265625 1062 701.291015625 1011 c 0
 693.760742188 960 646.706054688 919 595.706054688 919 c 0
 544.706054688 919 509.760742188 960 517.291015625 1011 c 0
 524.822265625 1062 571.876953125 1103 622.876953125 1103 c 0
EndSplineSet
EndChar

StartChar: gdotaccent
Encoding: 289 289 225
Width: 733
Flags: W
HStem: -275 154<258.246 420.754> -15 151<244.285 448.994> 377 151<357.658 533.002> 600 184<427.079 523.293>
VStem: 383.186 184<642.329 741.671>
LayerCount: 2
Fore
SplineSet
704.302734375 256 m 2
 664.432617188 -14 l 2
 639.034179688 -186 498.891601562 -275 323.891601562 -275 c 0
 216.891601562 -275 97.435546875 -251 61.8935546875 -126 c 1
 217.377929688 -55 l 1
 231.80078125 -86 269.631835938 -121 346.631835938 -121 c 0
 395.631835938 -121 475.915039062 -92 489.352539062 -1 c 2
 494.963867188 37 l 1
 450.76171875 -5 389.28515625 -15 319.28515625 -15 c 0
 169.28515625 -15 82.15234375 106 104.302734375 256 c 0
 126.453125 406 249.467773438 528 399.467773438 528 c 0
 691.118164062 528 744.467773438 528 704.302734375 256 c 2
292.302734375 256 m 0
 281.965820312 186 322.583007812 136 394.583007812 136 c 0
 463.583007812 136 520.965820312 186 531.302734375 256 c 0
 532.475585938 263.943359375 539.369140625 310.623046875 540.291015625 318 c 0
 545.844726562 364.561523438 535.858398438 377 430.170898438 377 c 0
 363.170898438 377 302.787109375 327 292.302734375 256 c 0
488.771484375 784 m 0
 539.771484375 784 574.716796875 743 567.185546875 692 c 0
 559.654296875 641 512.600585938 600 461.600585938 600 c 0
 410.600585938 600 375.654296875 641 383.185546875 692 c 0
 390.716796875 743 437.771484375 784 488.771484375 784 c 0
EndSplineSet
EndChar

StartChar: uni0122
Encoding: 290 290 226
Width: 908
Flags: W
HStem: -15 173<418.273 589.887> 0 21G<788.894 845.953> 317 145<528.811 698.811> 670 170<488.867 663.307>
LayerCount: 2
Fore
SplineSet
911.22265625 462 m 1xb0
 843 0 l 1x70
 751.020507812 34 l 1
 764.360351562 93.81640625 l 1
 684.674804688 18.2783203125 579.306640625 -15 459.78515625 -15 c 0
 237.78515625 -15 85.9892578125 176 120.838867188 412 c 0
 155.8359375 649 354.040039062 840 586.040039062 840 c 0
 731.040039062 840 824.06640625 786 883.219726562 699 c 1
 740.284179688 564 l 1
 703.654296875 641 644.936523438 670 571.936523438 670 c 0
 455.936523438 670 344.955078125 555 323.838867188 412 c 0
 303.165039062 272 380.331054688 158 496.331054688 158 c 0
 586.331054688 158 683.896484375 216 698.810546875 317 c 1
 528.810546875 317 l 1
 516.22265625 462 l 1
 911.22265625 462 l 1xb0
456.09375 -40 m 0
 506.09375 -40 540.186523438 -80 532.803710938 -130 c 0
 519.0703125 -223 440.84765625 -299 370.168945312 -351 c 1
 334.74609375 -320 l 1
 334.74609375 -320 388.391601562 -275 409.990234375 -210 c 1
 373.319335938 -201 348.896484375 -170 354.803710938 -130 c 0
 362.186523438 -80 408.09375 -40 456.09375 -40 c 0
EndSplineSet
EndChar

StartChar: uni0123
Encoding: 291 291 227
Width: 733
Flags: W
HStem: -275 154<258.246 420.754> -15 151<244.285 448.994> 377 151<357.658 533.002>
LayerCount: 2
Fore
SplineSet
704.302734375 256 m 2
 664.432617188 -14 l 2
 639.034179688 -186 498.891601562 -275 323.891601562 -275 c 0
 216.891601562 -275 97.435546875 -251 61.8935546875 -126 c 1
 217.377929688 -55 l 1
 231.80078125 -86 269.631835938 -121 346.631835938 -121 c 0
 395.631835938 -121 475.915039062 -92 489.352539062 -1 c 2
 494.963867188 37 l 1
 450.76171875 -5 389.28515625 -15 319.28515625 -15 c 0
 169.28515625 -15 82.15234375 106 104.302734375 256 c 0
 126.453125 406 249.467773438 528 399.467773438 528 c 0
 691.118164062 528 744.467773438 528 704.302734375 256 c 2
292.302734375 256 m 0
 281.965820312 186 322.583007812 136 394.583007812 136 c 0
 463.583007812 136 520.965820312 186 531.302734375 256 c 0
 532.475585938 263.943359375 539.369140625 310.623046875 540.291015625 318 c 0
 545.844726562 364.561523438 535.858398438 377 430.170898438 377 c 0
 363.170898438 377 302.787109375 327 292.302734375 256 c 0
475.133789062 607 m 0
 425.133789062 607 391.041015625 647 398.423828125 697 c 0
 412.157226562 790 490.379882812 866 561.05859375 918 c 1
 596.48046875 887 l 1
 596.48046875 887 542.8359375 842 521.237304688 777 c 1
 557.908203125 768 582.331054688 737 576.423828125 697 c 0
 569.041015625 647 523.133789062 607 475.133789062 607 c 0
EndSplineSet
EndChar

StartChar: Hcircumflex
Encoding: 292 292 228
Width: 792
Flags: W
HStem: 0 21G<75 265.953 529 719.953> 331 165<336.243 577.878> 805 20G<193.872 384.825 647.872 838.825>
LayerCount: 2
Fore
SplineSet
311.877929688 331 m 1
 263 0 l 1
 75 0 l 1
 196.825195312 825 l 1
 384.825195312 825 l 1
 336.243164062 496 l 1
 602.243164062 496 l 1
 650.825195312 825 l 1
 838.825195312 825 l 1
 717 0 l 1
 529 0 l 1
 577.877929688 331 l 1
 311.877929688 331 l 1
322.623046875 976 m 1
 567.544921875 1138 l 1
 764.623046875 976 l 1
 683.185546875 885 l 1
 546.724609375 997 l 1
 377.185546875 885 l 1
 322.623046875 976 l 1
EndSplineSet
EndChar

StartChar: hcircumflex
Encoding: 293 293 229
Width: 695
Flags: W
HStem: 0 21G<72 251.953 446 625.953> 390 138<388.276 522.968>
LayerCount: 2
Fore
SplineSet
375.994140625 860 m 1
 316.779296875 459 l 1
 362.685546875 499 419.967773438 528 475.967773438 528 c 0
 569.967773438 528 694.028320312 481 672.911132812 338 c 2
 623 0 l 1
 446 0 l 1
 488.823242188 290 l 2
 496.354492188 341 468.58984375 390 411.58984375 390 c 0
 358.58984375 390 299.354492188 341 291.823242188 290 c 2
 249 0 l 1
 72 0 l 1
 198.994140625 860 l 1
 375.994140625 860 l 1
272.825195312 1018 m 1
 517.747070312 1180 l 1
 714.825195312 1018 l 1
 633.387695312 927 l 1
 496.92578125 1039 l 1
 327.387695312 927 l 1
 272.825195312 1018 l 1
EndSplineSet
EndChar

StartChar: Hbar
Encoding: 294 294 230
Width: 960
Flags: W
HStem: 0 21G<167.5 358.453 621.5 812.453> 310 165<425.642 667.276> 541.5 177<156.099 247.462 461.599 701.462 915.599 989.962> 805 20G<286.372 477.325 740.372 931.325>
LayerCount: 2
Fore
SplineSet
401.276367188 310 m 1
 355.5 0 l 1
 167.5 0 l 1
 247.461914062 541.5 l 1
 129.961914062 541.5 l 1
 156.098632812 718.5 l 1
 273.598632812 718.5 l 1
 289.325195312 825 l 1
 477.325195312 825 l 1
 461.598632812 718.5 l 1
 727.598632812 718.5 l 1
 743.325195312 825 l 1
 931.325195312 825 l 1
 915.598632812 718.5 l 1
 1016.09863281 718.5 l 1
 989.961914062 541.5 l 1
 889.461914062 541.5 l 1
 809.5 0 l 1
 621.5 0 l 1
 667.276367188 310 l 1
 401.276367188 310 l 1
435.461914062 541.5 m 1
 425.641601562 475 l 1
 691.641601562 475 l 1
 701.461914062 541.5 l 1
 435.461914062 541.5 l 1
EndSplineSet
EndChar

StartChar: hbar
Encoding: 295 295 231
Width: 785
Flags: W
HStem: 0 21G<174.25 354.203 548.25 728.203> 390 138<490.526 625.218> 608.5 139<170.131 264.105 461.631 750.605>
LayerCount: 2
Fore
SplineSet
441.10546875 608.5 m 1
 419.029296875 459 l 1
 464.935546875 499 522.217773438 528 578.217773438 528 c 0
 672.217773438 528 796.278320312 481 775.161132812 338 c 2
 725.25 0 l 1
 548.25 0 l 1
 591.073242188 290 l 2
 598.604492188 341 570.83984375 390 513.83984375 390 c 0
 460.83984375 390 401.604492188 341 394.073242188 290 c 2
 351.25 0 l 1
 174.25 0 l 1
 264.10546875 608.5 l 1
 149.60546875 608.5 l 1
 170.130859375 747.5 l 1
 284.630859375 747.5 l 1
 301.244140625 860 l 1
 478.244140625 860 l 1
 461.630859375 747.5 l 1
 771.130859375 747.5 l 1
 750.60546875 608.5 l 1
 441.10546875 608.5 l 1
EndSplineSet
EndChar

StartChar: Itilde
Encoding: 296 296 232
Width: 538
Flags: W
HStem: 0 21G<174 364.953> 805 20G<292.872 483.825> 885 126<421.278 538.986> 931 126<285.783 412.307>
LayerCount: 2
Fore
SplineSet
321.478515625 931 m 0xd0
 289.478515625 931 269.685546875 885 269.685546875 885 c 1
 168.685546875 885 l 1xe0
 168.685546875 885 220.083984375 1057 330.083984375 1057 c 0xd0
 369.083984375 1057 462.291015625 1011 503.291015625 1011 c 0xe0
 535.291015625 1011 555.083984375 1057 555.083984375 1057 c 1
 656.083984375 1057 l 1xd0
 656.083984375 1057 604.685546875 885 494.685546875 885 c 0xe0
 455.685546875 885 385.681640625 931 321.478515625 931 c 0xd0
483.825195312 825 m 1
 362 0 l 1
 174 0 l 1
 295.825195312 825 l 1
 483.825195312 825 l 1
EndSplineSet
EndChar

StartChar: itilde
Encoding: 297 297 233
Width: 550
Flags: W
HStem: 0 21G<187 366.953> 493 20G<259.8 439.753> 578 126<381.944 499.652> 624 126<246.449 372.973>
LayerCount: 2
Fore
SplineSet
282.14453125 624 m 0xd0
 250.14453125 624 230.3515625 578 230.3515625 578 c 1
 129.3515625 578 l 1xe0
 129.3515625 578 180.75 750 290.75 750 c 0xd0
 329.75 750 422.958007812 704 463.958007812 704 c 0xe0
 495.958007812 704 515.75 750 515.75 750 c 1
 616.75 750 l 1xd0
 616.75 750 565.3515625 578 455.3515625 578 c 0xe0
 416.3515625 578 346.34765625 624 282.14453125 624 c 0xd0
262.752929688 513 m 1
 439.752929688 513 l 1
 364 0 l 1
 187 0 l 1
 262.752929688 513 l 1
EndSplineSet
EndChar

StartChar: Imacron
Encoding: 298 298 234
Width: 486
Flags: W
HStem: 0 21G<149 339.953> 805 20G<267.872 458.825> 946 120<196.413 586.693>
LayerCount: 2
Fore
SplineSet
458.825195312 825 m 1
 337 0 l 1
 149 0 l 1
 270.825195312 825 l 1
 458.825195312 825 l 1
196.413085938 1066 m 1
 604.413085938 1066 l 1
 586.693359375 946 l 1
 178.693359375 946 l 1
 196.413085938 1066 l 1
EndSplineSet
EndChar

StartChar: imacron
Encoding: 299 299 235
Width: 509
Flags: W
HStem: 0 21G<165.5 345.453> 493 20G<238.3 418.253> 634 120<161.841 552.121>
LayerCount: 2
Fore
SplineSet
241.252929688 513 m 1
 418.252929688 513 l 1
 342.5 0 l 1
 165.5 0 l 1
 241.252929688 513 l 1
161.840820312 754 m 1
 569.840820312 754 l 1
 552.12109375 634 l 1
 144.12109375 634 l 1
 161.840820312 754 l 1
EndSplineSet
EndChar

StartChar: Ibreve
Encoding: 300 300 236
Width: 538
Flags: W
HStem: 0 21G<171 361.953> 805 20G<289.872 480.825> 919 109<362.292 486.273>
LayerCount: 2
Fore
SplineSet
480.825195312 825 m 1
 359 0 l 1
 171 0 l 1
 292.825195312 825 l 1
 480.825195312 825 l 1
541.01171875 1131 m 1
 662.43359375 1100 l 1
 634.633789062 993 533.706054688 919 404.706054688 919 c 0
 275.706054688 919 196.633789062 993 200.43359375 1100 c 1
 331.01171875 1131 l 1
 331.01171875 1131 326.801757812 1028 420.801757812 1028 c 0
 514.801757812 1028 541.01171875 1131 541.01171875 1131 c 1
EndSplineSet
EndChar

StartChar: ibreve
Encoding: 301 301 237
Width: 551
Flags: W
HStem: 0 21G<181.5 361.453> 493 20G<254.3 434.253> 604 109<322.277 446.258>
LayerCount: 2
Fore
SplineSet
257.252929688 513 m 1
 434.252929688 513 l 1
 358.5 0 l 1
 181.5 0 l 1
 257.252929688 513 l 1
500.99609375 816 m 1
 622.418945312 785 l 1
 594.618164062 678 493.69140625 604 364.69140625 604 c 0
 235.69140625 604 156.618164062 678 160.418945312 785 c 1
 290.99609375 816 l 1
 290.99609375 816 286.787109375 713 380.787109375 713 c 0
 474.787109375 713 500.99609375 816 500.99609375 816 c 1
EndSplineSet
EndChar

StartChar: Iogonek
Encoding: 302 302 238
Width: 356
Flags: W
HStem: -275 96<104.965 207.231> 805 20G<192.372 383.325>
LayerCount: 2
Fore
SplineSet
383.325195312 825 m 1
 261.5 0 l 1
 208.5 0 l 1
 208.5 0 139.163085938 -70 128.826171875 -140 c 0
 125.134765625 -165 143.067382812 -179 160.067382812 -179 c 0
 191.067382812 -179 215.498046875 -149 215.498046875 -149 c 1
 279.5234375 -203 l 1
 279.5234375 -203 223.891601562 -275 131.891601562 -275 c 0
 79.8916015625 -275 10.3212890625 -245 23.1689453125 -158 c 0
 31.2900390625 -103 91.18359375 -36 126.5 0 c 1
 73.5 0 l 1
 195.325195312 825 l 1
 383.325195312 825 l 1
EndSplineSet
EndChar

StartChar: iogonek
Encoding: 303 303 239
Width: 353
Flags: W
HStem: -275 96<103.465 205.731> 493 20G<148.8 328.753> 620 210<223.656 324.461>
LayerCount: 2
Fore
SplineSet
21.6689453125 -158 m 0
 30.0859375 -101 89.83203125 -35 125 0 c 1
 76 0 l 1
 151.752929688 513 l 1
 328.752929688 513 l 1
 253 0 l 1
 207 0 l 1
 207 0 137.663085938 -70 127.326171875 -140 c 0
 123.634765625 -165 141.567382812 -179 158.567382812 -179 c 0
 189.567382812 -179 213.998046875 -149 213.998046875 -149 c 1
 278.0234375 -203 l 1
 278.0234375 -203 222.391601562 -275 130.391601562 -275 c 0
 78.3916015625 -275 8.8212890625 -245 21.6689453125 -158 c 0
289.563476562 830 m 0
 347.563476562 830 387.623046875 783 379.05859375 725 c 0
 370.494140625 667 316.553710938 620 258.553710938 620 c 0
 200.553710938 620 160.494140625 667 169.05859375 725 c 0
 177.623046875 783 231.563476562 830 289.563476562 830 c 0
EndSplineSet
EndChar

StartChar: Idotaccent
Encoding: 304 304 240
Width: 337
Flags: W
HStem: 0 21G<74.5 265.453> 805 20G<193.372 384.325> 905 210<267.241 368.046>
LayerCount: 2
Fore
SplineSet
384.325195312 825 m 1
 262.5 0 l 1
 74.5 0 l 1
 196.325195312 825 l 1
 384.325195312 825 l 1
333.1484375 1115 m 0
 391.1484375 1115 431.208984375 1068 422.643554688 1010 c 0
 414.079101562 952 360.138671875 905 302.138671875 905 c 0
 244.138671875 905 204.079101562 952 212.643554688 1010 c 0
 221.208984375 1068 275.1484375 1115 333.1484375 1115 c 0
EndSplineSet
EndChar

StartChar: dotlessi
Encoding: 305 305 241
Width: 324
Flags: W
HStem: 0 21G<73.5 253.453> 493 20G<146.3 326.253>
VStem: 73.5 252.753
LayerCount: 2
Fore
SplineSet
73.5 0 m 1
 149.252929688 513 l 1
 326.252929688 513 l 1
 250.5 0 l 1
 73.5 0 l 1
EndSplineSet
EndChar

StartChar: IJ
Encoding: 306 306 242
Width: 791
Flags: W
HStem: -15 180<402.001 525.077> 805 20G<191.872 382.825 648.872 839.825>
LayerCount: 2
Fore
SplineSet
839.825195312 825 m 1
 752.40625 233 l 2
 728.484375 71 623.78515625 -15 458.78515625 -15 c 0
 340.78515625 -15 277.451171875 64 277.451171875 64 c 1
 360.634765625 221 l 1
 360.634765625 221 411.365234375 165 459.365234375 165 c 0
 513.365234375 165 559.23828125 198 571.494140625 281 c 2
 651.825195312 825 l 1
 839.825195312 825 l 1
382.825195312 825 m 1
 258.78515625 -15 l 1
 70.78515625 -15 l 1
 194.825195312 825 l 1
 382.825195312 825 l 1
EndSplineSet
EndChar

StartChar: ij
Encoding: 307 307 243
Width: 590
Flags: W
HStem: 0 21G<60.5 240.453> 493 20G<133.3 313.253 418.301 598.253> 620 210<208.156 308.961 490.156 590.961>
LayerCount: 2
Fore
SplineSet
421.252929688 513 m 1
 598.252929688 513 l 1
 536.084960938 92 l 2
 515.559570312 -47 424.645507812 -148 294.645507812 -148 c 0
 264.048828125 -148 227.094726562 -23.4609375 257.11328125 -12 c 0
 296.045898438 2.8642578125 345.556640625 0.3955078125 358.225585938 86 c 2
 421.252929688 513 l 1
556.063476562 830 m 0
 614.063476562 830 654.123046875 783 645.55859375 725 c 0
 636.994140625 667 583.053710938 620 525.053710938 620 c 0
 467.053710938 620 426.994140625 667 435.55859375 725 c 0
 444.123046875 783 498.063476562 830 556.063476562 830 c 0
313.252929688 513 m 1
 237.5 0 l 1
 60.5 0 l 1
 136.252929688 513 l 1
 313.252929688 513 l 1
153.55859375 725 m 0
 162.123046875 783 216.063476562 830 274.063476562 830 c 0
 332.063476562 830 372.123046875 783 363.55859375 725 c 0
 354.994140625 667 301.053710938 620 243.053710938 620 c 0
 185.053710938 620 144.994140625 667 153.55859375 725 c 0
EndSplineSet
EndChar

StartChar: Jcircumflex
Encoding: 308 308 244
Width: 661
Flags: W
HStem: -15 180<176.751 299.827> 805 20G<423.622 614.575>
LayerCount: 2
Fore
SplineSet
614.575195312 825 m 1
 527.15625 233 l 2
 503.234375 71 398.53515625 -15 233.53515625 -15 c 0
 115.53515625 -15 52.201171875 64 52.201171875 64 c 1
 135.384765625 221 l 1
 135.384765625 221 186.115234375 165 234.115234375 165 c 0
 288.115234375 165 333.98828125 198 346.244140625 281 c 2
 426.575195312 825 l 1
 614.575195312 825 l 1
320.225585938 975 m 1
 565.147460938 1137 l 1
 762.225585938 975 l 1
 680.788085938 884 l 1
 544.326171875 996 l 1
 374.788085938 884 l 1
 320.225585938 975 l 1
EndSplineSet
EndChar

StartChar: jcircumflex
Encoding: 309 309 245
Width: 542
Flags: W
HStem: 493 20G<263.051 443.003> 815 20G<372.814 427.382>
LayerCount: 2
Fore
SplineSet
266.002929688 513 m 1
 443.002929688 513 l 1
 380.834960938 92 l 2
 360.309570312 -47 269.395507812 -148 139.395507812 -148 c 0
 108.798828125 -148 71.8447265625 -23.4609375 101.86328125 -12 c 0
 140.795898438 2.8642578125 190.306640625 0.3955078125 202.975585938 86 c 2
 266.002929688 513 l 1
158.129882812 673 m 1
 403.051757812 835 l 1
 600.129882812 673 l 1
 518.692382812 582 l 1
 382.231445312 694 l 1
 212.692382812 582 l 1
 158.129882812 673 l 1
EndSplineSet
EndChar

StartChar: uni0136
Encoding: 310 310 246
Width: 869
Flags: W
HStem: 0 21G<59 249.953 536.582 810> 805 20G<177.872 368.825 632.077 879.825>
LayerCount: 2
Fore
SplineSet
385.09375 -40 m 0
 435.09375 -40 469.186523438 -80 461.803710938 -130 c 0
 448.0703125 -223 369.84765625 -299 299.168945312 -351 c 1
 263.74609375 -320 l 1
 263.74609375 -320 317.391601562 -275 338.990234375 -210 c 1
 302.319335938 -201 277.896484375 -170 283.803710938 -130 c 0
 291.186523438 -80 337.09375 -40 385.09375 -40 c 0
810 0 m 1
 551 0 l 1
 298.68359375 350 l 1
 247 0 l 1
 59 0 l 1
 180.825195312 825 l 1
 368.825195312 825 l 1
 319.061523438 488 l 1
 651.825195312 825 l 1
 879.825195312 825 l 1
 490.087890625 434 l 1
 810 0 l 1
EndSplineSet
EndChar

StartChar: uni0137
Encoding: 311 311 247
Width: 728
Flags: W
HStem: 0 21G<59 238.953 423.953 669> 493 20G<467.8 720.753>
LayerCount: 2
Fore
SplineSet
315.09375 -40 m 0
 365.09375 -40 399.186523438 -80 391.803710938 -130 c 0
 378.0703125 -223 299.84765625 -299 229.168945312 -351 c 1
 193.74609375 -320 l 1
 193.74609375 -320 247.391601562 -275 268.990234375 -210 c 1
 232.319335938 -201 207.896484375 -170 213.803710938 -130 c 0
 221.186523438 -80 267.09375 -40 315.09375 -40 c 0
720.752929688 513 m 1
 440.575195312 268 l 1
 669 0 l 1
 441 0 l 1
 266.271484375 205 l 1
 236 0 l 1
 59 0 l 1
 185.994140625 860 l 1
 362.994140625 860 l 1
 285.321289062 334 l 1
 490.752929688 513 l 1
 720.752929688 513 l 1
EndSplineSet
EndChar

StartChar: kgreenlandic
Encoding: 312 312 248
Width: 718
Flags: W
LayerCount: 2
Fore
SplineSet
659.622070312 1.5 m 1
 452.421875 1.5 l 1
 250.568359375 281.5 l 1
 209.221679688 1.5 l 1
 58.8212890625 1.5 l 1
 156.28125 661.5 l 1
 306.681640625 661.5 l 1
 266.87109375 391.900390625 l 1
 533.08203125 661.5 l 1
 715.481445312 661.5 l 1
 403.69140625 348.700195312 l 1
 659.622070312 1.5 l 1
EndSplineSet
EndChar

StartChar: Lacute
Encoding: 313 313 249
Width: 603
Flags: W
HStem: 0 165<277.865 537.5> 805 20G<184.372 375.325>
LayerCount: 2
Fore
SplineSet
375.325195312 825 m 1
 277.865234375 165 l 1
 561.865234375 165 l 1
 537.5 0 l 1
 65.5 0 l 1
 187.325195312 825 l 1
 375.325195312 825 l 1
285.623046875 976 m 1
 514.612304688 1152 l 1
 588.630859375 1037 l 1
 330.252929688 899 l 1
 285.623046875 976 l 1
EndSplineSet
EndChar

StartChar: lacute
Encoding: 314 314 250
Width: 406
Flags: W
HStem: 0 21G<197 277.298> 805 20G<175.553 354.439>
LayerCount: 2
Fore
SplineSet
262 0 m 0
 132 0 71.3134765625 86 91.83984375 225 c 2
 178.439453125 825 l 1
 354.439453125 825 l 1
 271.16796875 234 l 2
 261.65625 169.395507812 333.07421875 163.864257812 343.68359375 163 c 0
 373.780273438 160.548828125 292.596679688 0 262 0 c 0
205.291015625 1011 m 1
 434.28125 1187 l 1
 508.298828125 1072 l 1
 249.920898438 934 l 1
 205.291015625 1011 l 1
EndSplineSet
EndChar

StartChar: uni013B
Encoding: 315 315 251
Width: 603
Flags: W
HStem: 0 165<277.865 537.5> 805 20G<184.372 375.325>
LayerCount: 2
Fore
SplineSet
280.59375 -40 m 0
 330.59375 -40 364.686523438 -80 357.303710938 -130 c 0
 343.5703125 -223 265.34765625 -299 194.668945312 -351 c 1
 159.24609375 -320 l 1
 159.24609375 -320 212.891601562 -275 234.490234375 -210 c 1
 197.819335938 -201 173.396484375 -170 179.303710938 -130 c 0
 186.686523438 -80 232.59375 -40 280.59375 -40 c 0
375.325195312 825 m 1
 277.865234375 165 l 1
 561.865234375 165 l 1
 537.5 0 l 1
 65.5 0 l 1
 187.325195312 825 l 1
 375.325195312 825 l 1
EndSplineSet
EndChar

StartChar: uni013C
Encoding: 316 316 252
Width: 328
Flags: W
HStem: 0 21G<205 285.298> 805 20G<183.553 362.439>
VStem: 35.7461 326.693
LayerCount: 2
Fore
SplineSet
270 0 m 0
 140 0 79.3134765625 86 99.83984375 225 c 2
 186.439453125 825 l 1
 362.439453125 825 l 1
 279.16796875 234 l 2
 269.65625 169.395507812 341.07421875 163.864257812 351.68359375 163 c 0
 381.780273438 160.548828125 300.596679688 0 270 0 c 0
157.09375 -40 m 0
 207.09375 -40 241.186523438 -80 233.803710938 -130 c 0
 220.0703125 -223 141.84765625 -299 71.1689453125 -351 c 1
 35.74609375 -320 l 1
 35.74609375 -320 89.3916015625 -275 110.990234375 -210 c 1
 74.3193359375 -201 49.896484375 -170 55.8037109375 -130 c 0
 63.1865234375 -80 109.09375 -40 157.09375 -40 c 0
EndSplineSet
EndChar

StartChar: Lcaron
Encoding: 317 317 253
Width: 603
Flags: W
HStem: 0 165<277.865 537.5> 513 21G<435.4 493.592> 805 20G<184.372 375.325>
LayerCount: 2
Fore
SplineSet
544.177734375 824 m 0
 594.177734375 824 628.271484375 784 620.887695312 734 c 0
 607.154296875 641 528.931640625 565 458.252929688 513 c 1
 422.831054688 544 l 1
 422.831054688 544 476.475585938 589 498.07421875 654 c 1
 461.403320312 663 436.981445312 694 442.887695312 734 c 0
 450.271484375 784 496.177734375 824 544.177734375 824 c 0
375.325195312 825 m 1
 277.865234375 165 l 1
 561.865234375 165 l 1
 537.5 0 l 1
 65.5 0 l 1
 187.325195312 825 l 1
 375.325195312 825 l 1
EndSplineSet
EndChar

StartChar: lcaron
Encoding: 318 318 254
Width: 523
Flags: W
HStem: 0 21G<201 281.298> 513 21G<384.4 442.592> 805 20G<179.553 358.439>
LayerCount: 2
Fore
SplineSet
266 0 m 0
 136 0 75.3134765625 86 95.83984375 225 c 2
 182.439453125 825 l 1
 358.439453125 825 l 1
 275.16796875 234 l 2
 265.65625 169.395507812 337.07421875 163.864257812 347.68359375 163 c 0
 377.780273438 160.548828125 296.596679688 0 266 0 c 0
493.177734375 824 m 0
 543.177734375 824 577.271484375 784 569.887695312 734 c 0
 556.154296875 641 477.931640625 565 407.252929688 513 c 1
 371.831054688 544 l 1
 371.831054688 544 425.475585938 589 447.07421875 654 c 1
 410.403320312 663 385.981445312 694 391.887695312 734 c 0
 399.271484375 784 445.177734375 824 493.177734375 824 c 0
EndSplineSet
EndChar

StartChar: Ldot
Encoding: 319 319 255
Width: 604
Flags: W
HStem: 0 165<278.365 538> 383 184<450.535 546.749> 805 20G<184.872 375.825>
VStem: 406.642 184<425.329 524.671>
LayerCount: 2
Fore
SplineSet
375.825195312 825 m 1
 278.365234375 165 l 1
 562.365234375 165 l 1
 538 0 l 1
 66 0 l 1
 187.825195312 825 l 1
 375.825195312 825 l 1
512.227539062 567 m 0
 563.227539062 567 598.172851562 526 590.641601562 475 c 0
 583.111328125 424 536.056640625 383 485.056640625 383 c 0
 434.056640625 383 399.111328125 424 406.641601562 475 c 0
 414.172851562 526 461.227539062 567 512.227539062 567 c 0
EndSplineSet
EndChar

StartChar: ldot
Encoding: 320 320 256
Width: 534
Flags: W
HStem: 0 21G<203 283.298> 383 184<401.66 497.874> 805 20G<181.553 360.439>
VStem: 357.767 184<425.329 524.671>
LayerCount: 2
Fore
SplineSet
268 0 m 0
 138 0 77.3134765625 86 97.83984375 225 c 2
 184.439453125 825 l 1
 360.439453125 825 l 1
 277.16796875 234 l 2
 267.65625 169.395507812 339.07421875 163.864257812 349.68359375 163 c 0
 379.780273438 160.548828125 298.596679688 0 268 0 c 0
463.352539062 567 m 0
 514.352539062 567 549.297851562 526 541.766601562 475 c 0
 534.236328125 424 487.181640625 383 436.181640625 383 c 0
 385.181640625 383 350.236328125 424 357.766601562 475 c 0
 365.297851562 526 412.352539062 567 463.352539062 567 c 0
EndSplineSet
EndChar

StartChar: Lslash
Encoding: 321 321 257
Width: 665
Flags: W
HStem: 0 165<346.865 606.5> 805 20G<253.372 444.325>
LayerCount: 2
Fore
SplineSet
95.4169921875 250 m 1
 118.009765625 403 l 1
 202.72265625 462 l 1
 256.325195312 825 l 1
 444.325195312 825 l 1
 412.577148438 610 l 1
 529.833007812 693 l 1
 507.240234375 540 l 1
 389.984375 457 l 1
 346.865234375 165 l 1
 630.865234375 165 l 1
 606.5 0 l 1
 134.5 0 l 1
 180.12890625 309 l 1
 95.4169921875 250 l 1
EndSplineSet
EndChar

StartChar: lslash
Encoding: 322 322 258
Width: 472
Flags: W
HStem: 0 21G<270 350.298> 805 20G<248.553 427.439>
LayerCount: 2
Fore
SplineSet
91.03125 250 m 1
 113.624023438 403 l 1
 199.24609375 463.384765625 l 1
 251.439453125 825 l 1
 427.439453125 825 l 1
 396.043945312 602.176757812 l 1
 480.870117188 662 l 1
 458.276367188 509 l 1
 374.600585938 449.987304688 l 1
 344.16796875 234 l 2
 334.65625 169.395507812 406.07421875 163.864257812 416.68359375 163 c 0
 446.780273438 160.548828125 365.596679688 0 335 0 c 0
 205 0 144.313476562 86 164.83984375 225 c 2
 177.220703125 310.78515625 l 1
 91.03125 250 l 1
EndSplineSet
EndChar

StartChar: Nacute
Encoding: 323 323 259
Width: 856
Flags: W
HStem: 0 21G<75 265.953 759.519 783.953> 805 20G<193.872 218.154 711.778 902.825>
LayerCount: 2
Fore
SplineSet
425.123046875 976 m 1
 654.112304688 1152 l 1
 728.130859375 1037 l 1
 469.752929688 899 l 1
 425.123046875 976 l 1
75 0 m 1
 196.825195312 825 l 1
 650.06640625 400 l 1
 714.825195312 825 l 1
 902.825195312 825 l 1
 781 0 l 1
 325.611328125 424 l 1
 263 0 l 1
 75 0 l 1
EndSplineSet
EndChar

StartChar: nacute
Encoding: 324 324 260
Width: 693
Flags: W
HStem: 0 21G<71 257.953 457 636.953> 384 144<341.966 478.176> 500 20G<144.834 287.787> 820 20G<583.019 621.913>
LayerCount: 2
Fore
SplineSet
255 0 m 1xd0
 71 0 l 1
 147.787109375 520 l 1
 287.787109375 520 l 1xb0
 283.504882812 491 l 1
 320.901367188 514 369.967773438 528 434.967773438 528 c 0
 626.967773438 528 701.779296875 459 676.380859375 287 c 2
 634 0 l 1
 457 0 l 1
 493.03125 244 l 2
 507.9453125 345 487.704101562 384 413.704101562 384 c 0
 339.704101562 384 305.9453125 345 291.03125 244 c 2
 255 0 l 1xd0
380.05078125 664 m 1
 609.040039062 840 l 1
 683.05859375 725 l 1
 424.680664062 587 l 1
 380.05078125 664 l 1
EndSplineSet
EndChar

StartChar: uni0145
Encoding: 325 325 261
Width: 856
Flags: W
HStem: 0 21G<75 265.953 759.519 783.953> 805 20G<193.872 218.154 711.778 902.825>
LayerCount: 2
Fore
SplineSet
421.09375 -40 m 0
 471.09375 -40 505.186523438 -80 497.803710938 -130 c 0
 484.0703125 -223 405.84765625 -299 335.168945312 -351 c 1
 299.74609375 -320 l 1
 299.74609375 -320 353.391601562 -275 374.990234375 -210 c 1
 338.319335938 -201 313.896484375 -170 319.803710938 -130 c 0
 327.186523438 -80 373.09375 -40 421.09375 -40 c 0
75 0 m 1
 196.825195312 825 l 1
 650.06640625 400 l 1
 714.825195312 825 l 1
 902.825195312 825 l 1
 781 0 l 1
 325.611328125 424 l 1
 263 0 l 1
 75 0 l 1
EndSplineSet
EndChar

StartChar: uni0146
Encoding: 326 326 262
Width: 695
Flags: W
HStem: 0 21G<72 258.953 458 637.953> 384 144<342.966 479.176> 500 20G<145.834 288.787>
LayerCount: 2
Fore
SplineSet
256 0 m 1xc0
 72 0 l 1
 148.787109375 520 l 1
 288.787109375 520 l 1xa0
 284.504882812 491 l 1
 321.901367188 514 370.967773438 528 435.967773438 528 c 0
 627.967773438 528 702.779296875 459 677.380859375 287 c 2
 635 0 l 1
 458 0 l 1
 494.03125 244 l 2
 508.9453125 345 488.704101562 384 414.704101562 384 c 0
 340.704101562 384 306.9453125 345 292.03125 244 c 2
 256 0 l 1xc0
335.09375 -40 m 0
 385.09375 -40 419.186523438 -80 411.803710938 -130 c 0
 398.0703125 -223 319.84765625 -299 249.168945312 -351 c 1
 213.74609375 -320 l 1
 213.74609375 -320 267.391601562 -275 288.990234375 -210 c 1
 252.319335938 -201 227.896484375 -170 233.803710938 -130 c 0
 241.186523438 -80 287.09375 -40 335.09375 -40 c 0
EndSplineSet
EndChar

StartChar: Ncaron
Encoding: 327 327 263
Width: 856
Flags: W
HStem: 0 21G<75 265.953 759.519 783.953> 805 20G<193.872 218.154 711.778 902.825>
LayerCount: 2
Fore
SplineSet
445.112304688 1152 m 1
 581.57421875 1040 l 1
 751.112304688 1152 l 1
 805.674804688 1061 l 1
 560.752929688 899 l 1
 363.674804688 1061 l 1
 445.112304688 1152 l 1
75 0 m 1
 196.825195312 825 l 1
 650.06640625 400 l 1
 714.825195312 825 l 1
 902.825195312 825 l 1
 781 0 l 1
 325.611328125 424 l 1
 263 0 l 1
 75 0 l 1
EndSplineSet
EndChar

StartChar: ncaron
Encoding: 328 328 264
Width: 692
Flags: W
HStem: 0 21G<72 258.953 458 637.953> 384 144<342.966 479.176> 500 20G<145.834 288.787> 820 20G<293.642 335.908 587.265 629.532>
LayerCount: 2
Fore
SplineSet
256 0 m 1xd0
 72 0 l 1
 148.787109375 520 l 1
 288.787109375 520 l 1xb0
 284.504882812 491 l 1
 321.901367188 514 370.967773438 528 435.967773438 528 c 0
 627.967773438 528 702.779296875 459 677.380859375 287 c 2
 635 0 l 1
 458 0 l 1
 494.03125 244 l 2
 508.9453125 345 488.704101562 384 414.704101562 384 c 0
 340.704101562 384 306.9453125 345 292.03125 244 c 2
 256 0 l 1xd0
311.540039062 840 m 1
 448.001953125 728 l 1
 617.540039062 840 l 1
 672.102539062 749 l 1
 427.180664062 587 l 1
 230.102539062 749 l 1
 311.540039062 840 l 1
EndSplineSet
EndChar

StartChar: napostrophe
Encoding: 329 329 265
Width: 762
Flags: W
HStem: 0 21G<155.098 342.051 541.098 721.051> 384 144<426.064 562.274> 500 20G<228.931 371.885> 519.989 21G<184.87 229.449>
LayerCount: 2
Fore
SplineSet
339.09765625 0 m 1xc0
 155.09765625 0 l 1
 231.884765625 520 l 1
 371.884765625 520 l 1xa0
 367.602539062 491 l 1
 404.999023438 514 454.065429688 528 519.065429688 528 c 0
 711.065429688 528 785.876953125 459 760.478515625 287 c 2
 718.09765625 0 l 1
 541.09765625 0 l 1
 577.12890625 244 l 2
 592.04296875 345 571.801757812 384 497.801757812 384 c 0
 423.801757812 384 390.04296875 345 375.12890625 244 c 2
 339.09765625 0 l 1xc0
141.60546875 580.380859375 m 1
 326.375976562 801.879882812 l 1
 430.387695312 713.541015625 l 1
 206.29296875 519.989257812 l 1x90
 141.60546875 580.380859375 l 1
EndSplineSet
EndChar

StartChar: Eng
Encoding: 330 330 266
Width: 856
Flags: W
HStem: -279 110<434.045 501.984> 0 21G<75 265.953> 805 20G<193.872 218.154 711.778 902.825>
LayerCount: 2
Fore
SplineSet
75 0 m 1
 196.825195312 825 l 1
 650.06640625 400 l 1
 714.825195312 825 l 1
 902.825195312 825 l 1
 781 0 l 2
 744.418945312 -247.188476562 495.42578125 -275.158203125 401.801757812 -279 c 1
 434.044921875 -169 l 1
 633.064453125 -135 687.336914062 70 643.955078125 127.598632812 c 1
 325.611328125 424 l 1
 263 0 l 1
 75 0 l 1
EndSplineSet
EndChar

StartChar: eng
Encoding: 331 331 267
Width: 762
Flags: W
HStem: -279.001 117<277.079 336.506> -0.000976562 21G<60.001 246.954> 383.999 144<330.967 467.177> 499.999 20G<133.835 276.788>
LayerCount: 2
Fore
SplineSet
665.380859375 287 m 2xe0
 622.931640625 0 l 1
 582.708984375 -240.8515625 336.534179688 -275.1953125 243.801757812 -279.000976562 c 1
 277.079101562 -162.000976562 l 1
 324.485351562 -156.875976562 430 -102.584960938 447.034179688 6.9990234375 c 2
 482.03125 243.999023438 l 2
 496.946289062 344.999023438 476.705078125 383.999023438 402.705078125 383.999023438 c 0xe0
 328.705078125 383.999023438 294.946289062 344.999023438 280.03125 243.999023438 c 2
 244.000976562 -0.0009765625 l 1
 60.0009765625 -0.0009765625 l 1
 136.788085938 519.999023438 l 1
 276.788085938 519.999023438 l 1xd0
 272.505859375 490.999023438 l 1
 309.901367188 513.999023438 358.96875 527.999023438 423.96875 527.999023438 c 0
 615.96875 527.999023438 690.779296875 459 665.380859375 287 c 2xe0
EndSplineSet
EndChar

StartChar: Omacron
Encoding: 332 332 268
Width: 952
Flags: W
HStem: -15 182<407.192 596.845> 659 181<475.662 664.198> 946 120<428.913 819.193>
LayerCount: 2
Fore
SplineSet
324.486328125 413 m 0
 306.323242188 290 347.16015625 167 501.16015625 167 c 0
 651.16015625 167 731.323242188 290 749.486328125 413 c 0
 767.649414062 536 719.8125 659 573.8125 659 c 0
 428.8125 659 342.649414062 536 324.486328125 413 c 0
121.486328125 413 m 0
 157.07421875 654 373.540039062 840 600.540039062 840 c 0
 829.540039062 840 988.07421875 654 952.486328125 413 c 0
 916.8984375 172 711.28515625 -15 474.28515625 -15 c 0
 230.28515625 -15 85.8984375 172 121.486328125 413 c 0
428.913085938 1066 m 1
 836.913085938 1066 l 1
 819.193359375 946 l 1
 411.193359375 946 l 1
 428.913085938 1066 l 1
EndSplineSet
EndChar

StartChar: omacron
Encoding: 333 333 269
Width: 736
Flags: W
HStem: -15 151<322.557 462.479> 377 151<352.146 488.198> 634 120<274.841 665.121>
LayerCount: 2
Fore
SplineSet
286.302734375 256 m 0
 275.965820312 186 316.583007812 136 388.583007812 136 c 0
 457.583007812 136 514.965820312 186 525.302734375 256 c 0
 535.787109375 327 490.170898438 377 424.170898438 377 c 0
 357.170898438 377 296.787109375 327 286.302734375 256 c 0
98.302734375 256 m 0
 121.9296875 416 274.467773438 528 447.467773438 528 c 0
 617.467773438 528 736.9296875 416 713.302734375 256 c 0
 689.971679688 98 544.28515625 -15 367.28515625 -15 c 0
 182.28515625 -15 74.9716796875 98 98.302734375 256 c 0
274.840820312 754 m 1
 682.840820312 754 l 1
 665.12109375 634 l 1
 257.12109375 634 l 1
 274.840820312 754 l 1
EndSplineSet
EndChar

StartChar: Obreve
Encoding: 334 334 270
Width: 952
Flags: W
HStem: -15 182<407.192 596.845> 659 181<475.662 664.198> 904 109<566.577 690.558>
LayerCount: 2
Fore
SplineSet
324.486328125 413 m 0
 306.323242188 290 347.16015625 167 501.16015625 167 c 0
 651.16015625 167 731.323242188 290 749.486328125 413 c 0
 767.649414062 536 719.8125 659 573.8125 659 c 0
 428.8125 659 342.649414062 536 324.486328125 413 c 0
121.486328125 413 m 0
 157.07421875 654 373.540039062 840 600.540039062 840 c 0
 829.540039062 840 988.07421875 654 952.486328125 413 c 0
 916.8984375 172 711.28515625 -15 474.28515625 -15 c 0
 230.28515625 -15 85.8984375 172 121.486328125 413 c 0
745.296875 1116 m 1
 866.71875 1085 l 1
 838.918945312 978 737.991210938 904 608.991210938 904 c 0
 479.991210938 904 400.918945312 978 404.71875 1085 c 1
 535.296875 1116 l 1
 535.296875 1116 531.086914062 1013 625.086914062 1013 c 0
 719.086914062 1013 745.296875 1116 745.296875 1116 c 1
EndSplineSet
EndChar

